<svg width="121" height="121" viewBox="0 0 121 121" fill="none" xmlns="http://www.w3.org/2000/svg">
<path d="M1.35986 75.0359V46.8789H21.9141V53.4189H9.18449V58.8611H19.0412V65.0274H9.18449V75.0359H1.35986Z" fill="white"/>
<path d="M23.0586 75.0359L33.0905 60.6479L23.0586 46.8789H32.6934L37.5984 54.178L42.3282 46.8789H51.0404L41.8844 59.9238L52.9791 75.0359H43.2158L37.3415 66.3821L31.6423 75.0359H23.0586Z" fill="white"/>
<path d="M55.8987 75.0359V46.8789H63.7233V75.0359H55.8987Z" fill="white"/>
<path d="M69.0254 75.0359V46.8789H89.5796V53.4189H76.85V58.8611H86.7067V65.0274H76.85V75.0359H69.0254Z" fill="white"/>
<path d="M101.293 75.0359V63.8011L90.8176 46.8789H99.7867L105.533 56.9225L110.928 46.8789H119.64L109.118 63.7661V75.0359H101.293Z" fill="white"/>
<path d="M33.0905 60.6362L23.0586 46.8789H32.6934L37.5984 54.178M41.8844 59.9122L52.9791 75.0242H43.2158L37.3415 66.3704" fill="white"/>
</svg>
