<svg width="121" height="121" viewBox="0 0 121 121" fill="none" xmlns="http://www.w3.org/2000/svg">
<path d="M90.097 58.3035C91.8231 58.1309 93.3766 57.8288 94.93 57.8288C99.0294 57.8288 103.129 57.9582 107.228 58.0014C108.178 58.0014 108.48 58.4329 108.48 59.3822C108.48 62.1871 108.436 64.9488 108.48 67.7536C108.48 68.8324 108.134 69.0913 107.099 69.005C102.007 68.5304 96.915 68.4009 91.8231 69.1776C90.4854 69.3934 89.9244 69.8681 89.9676 71.2921C90.0539 76.0819 89.9676 80.8717 89.9676 85.6615C89.9676 87.8191 89.9676 87.8191 87.7669 87.8191C84.1853 87.8191 80.6037 87.8191 77.0221 87.8191C75.555 87.8191 74.8214 87.0999 74.8214 85.6615C74.8214 83.0293 74.8214 80.397 74.8214 77.7648C74.8214 77.2038 74.7783 76.6428 74.7351 76.125C70.5926 77.2038 66.5795 78.2395 62.3506 79.3182C63.5157 81.9936 64.6808 84.7122 65.9322 87.6033C65.3281 87.6896 64.9397 87.8191 64.5513 87.7759C60.1067 87.7759 55.7053 87.7759 51.2607 87.6033C50.7429 87.6033 50.0524 87.0424 49.8367 86.5677C48.8442 84.4101 48.0675 82.1662 47.1181 80.0087C46.8592 79.4477 46.2983 78.7573 45.8236 78.671C38.7899 77.4627 32.1014 75.4346 26.017 71.2058C25.6287 72.0688 25.2403 72.7592 24.9814 73.4496C23.2985 77.5922 21.6156 81.7347 19.9758 85.9204C19.5012 87.1287 18.897 87.6465 17.5593 87.6465C13.7189 87.5602 9.87837 87.6465 6.03789 87.6033C5.52007 87.6033 5.00225 87.5602 4.18237 87.517C5.21801 85.1437 6.12419 82.9861 7.07352 80.8285C13.5463 65.8118 20.1053 50.9245 26.6643 35.9941C27.2253 34.6996 27.9157 34.2681 29.2534 34.2681C33.2233 34.3112 37.1501 34.2681 41.1201 34.2681C42.0694 34.2681 42.5441 34.6133 42.8893 35.4763C47.4633 45.8327 52.0806 56.189 56.6115 66.5454C57.2156 67.9694 57.906 68.4441 59.5458 68.3146C64.465 67.9262 69.0391 66.4591 73.3974 64.3015C74.433 63.7837 74.8214 63.1364 74.8214 61.9713C74.8214 53.3842 74.8214 44.797 74.7783 36.2099C74.7783 34.6133 75.2098 34.1386 76.8064 34.1386C89.4929 34.1818 102.179 34.1386 114.866 34.0955C116.419 34.0955 116.894 34.5701 116.808 36.0804C116.722 38.7558 116.722 41.4744 116.808 44.1498C116.851 45.6169 116.29 46.0484 114.866 46.0484C107.185 46.0053 99.4609 46.0484 91.7799 45.9621C90.1833 45.9621 89.8381 46.4368 89.8813 47.9039C90.0107 50.7519 89.8813 53.5999 89.8813 56.4479C89.8813 57.0089 89.9676 57.5699 90.0107 58.3035H90.097ZM34.9494 49.5437C34.9494 49.5437 34.6473 49.5437 34.4747 49.5437C34.3453 49.5437 33.7412 51.3992 33.6549 51.5718C33.3528 52.2622 33.0939 52.9958 32.7918 53.6862C32.2309 55.1102 31.6699 56.5342 31.1089 57.9582C30.7206 59.037 30.0733 59.8138 31.0226 60.7199C31.8856 61.5398 32.835 62.3165 33.8275 63.007C35.8556 64.431 38.3584 65.9413 40.7749 66.4591C41.2064 66.5454 41.2927 66.2433 41.1632 65.8981C40.8612 65.1214 40.5591 64.3447 40.257 63.5679C39.6098 61.7987 38.9625 60.0295 38.3152 58.2603C37.2364 55.326 36.1145 52.3917 34.9494 49.4574V49.5437Z" fill="url(#paint0_linear_90_1905)"/>
<defs>
<linearGradient id="paint0_linear_90_1905" x1="12.7706" y1="49.8889" x2="110.422" y2="72.4572" gradientUnits="userSpaceOnUse">
<stop stop-color="#00E3F1"/>
<stop offset="0.22" stop-color="#00C2ED"/>
<stop offset="1" stop-color="#0073C4"/>
</linearGradient>
</defs>
</svg>
