<svg xmlns="http://www.w3.org/2000/svg" width="500" height="500" viewBox="0 0 500 500" version="1.1"><path d="M 181.246 137.755 C 180.250 138.444, 180.044 162.002, 180.246 252.062 L 180.500 365.500 221.500 365.807 C 245.877 365.990, 267.426 365.670, 274.649 365.018 C 312.352 361.616, 334.271 346.047, 341.491 317.540 C 343.490 309.647, 343.456 292.549, 341.426 284.716 C 336.986 267.580, 325.919 256.199, 307.588 249.917 L 299.643 247.195 306.567 243.847 C 314.842 239.847, 324.703 230.493, 328.459 223.081 C 334.805 210.558, 335.710 191.594, 330.655 177.059 C 323.844 157.472, 309.257 145.839, 284 139.852 C 276.300 138.027, 271.122 137.792, 229 137.362 C 203.425 137.100, 181.936 137.277, 181.246 137.755 M 191.500 163.802 C 192.050 164.306, 195.988 165.967, 200.250 167.493 L 208 170.268 208 203.634 L 208 237 235.750 236.969 C 251.012 236.952, 266.687 236.524, 270.583 236.017 C 285.317 234.102, 296.532 227.410, 302.347 217.065 C 304.954 212.428, 305.463 210.340, 305.823 202.827 C 306.062 197.830, 305.729 191.965, 305.053 189.262 C 302.424 178.738, 294.179 170.528, 281.500 165.808 C 275.700 163.648, 274.085 163.562, 233 163.230 C 207.232 163.022, 190.894 163.247, 191.500 163.802 M 190 262.417 C 190 262.647, 194.050 264.284, 199 266.054 L 208 269.274 208 304.637 L 208 340 240.542 340 C 265.881 340, 274.790 339.658, 280.792 338.456 C 295.905 335.430, 306.735 327.961, 311.906 317 C 314.163 312.215, 314.498 310.200, 314.487 301.500 C 314.475 292.757, 314.135 290.775, 311.783 285.730 C 306.137 273.621, 293.382 265.393, 276.678 263.082 C 269.381 262.073, 190 261.464, 190 262.417 M 339.873 340.626 C 331.467 346.028, 331.564 360.358, 340.040 365.364 C 344.200 367.822, 352.618 367.520, 356.633 364.768 C 360.821 361.899, 362 359.190, 362 352.438 C 362 347.623, 361.598 346.532, 358.628 343.291 C 355.517 339.897, 354.760 339.585, 348.878 339.274 C 344.153 339.025, 341.819 339.375, 339.873 340.626" stroke="none" fill="#f6eff2" fill-rule="evenodd"/><path d="M 227.054 55.148 C 207.901 57.148, 183.783 64.195, 164.891 73.311 C 80.805 113.887, 37.213 207.551, 60.087 298.500 C 72.721 348.734, 106.494 393.252, 152.500 420.317 C 168.765 429.886, 195.797 439.644, 217.182 443.668 C 230.453 446.165, 269.547 446.165, 282.818 443.668 C 345.860 431.807, 397.621 393.077, 425.378 337 C 446.579 294.168, 451.484 247.168, 439.591 200.794 C 419.342 121.834, 351.885 63.555, 270.857 55.020 C 259.768 53.852, 238.878 53.913, 227.054 55.148 M 181.246 137.755 C 180.250 138.444, 180.044 162.002, 180.246 252.062 L 180.500 365.500 221.500 365.807 C 245.877 365.990, 267.426 365.670, 274.649 365.018 C 312.352 361.616, 334.271 346.047, 341.491 317.540 C 343.490 309.647, 343.456 292.549, 341.426 284.716 C 336.986 267.580, 325.919 256.199, 307.588 249.917 L 299.643 247.195 306.567 243.847 C 314.842 239.847, 324.703 230.493, 328.459 223.081 C 334.805 210.558, 335.710 191.594, 330.655 177.059 C 323.844 157.472, 309.257 145.839, 284 139.852 C 276.300 138.027, 271.122 137.792, 229 137.362 C 203.425 137.100, 181.936 137.277, 181.246 137.755 M 191.500 163.802 C 192.050 164.306, 195.988 165.967, 200.250 167.493 L 208 170.268 208 203.634 L 208 237 235.750 236.969 C 251.012 236.952, 266.687 236.524, 270.583 236.017 C 285.317 234.102, 296.532 227.410, 302.347 217.065 C 304.954 212.428, 305.463 210.340, 305.823 202.827 C 306.062 197.830, 305.729 191.965, 305.053 189.262 C 302.424 178.738, 294.179 170.528, 281.500 165.808 C 275.700 163.648, 274.085 163.562, 233 163.230 C 207.232 163.022, 190.894 163.247, 191.500 163.802 M 190 262.417 C 190 262.647, 194.050 264.284, 199 266.054 L 208 269.274 208 304.637 L 208 340 240.542 340 C 265.881 340, 274.790 339.658, 280.792 338.456 C 295.905 335.430, 306.735 327.961, 311.906 317 C 314.163 312.215, 314.498 310.200, 314.487 301.500 C 314.475 292.757, 314.135 290.775, 311.783 285.730 C 306.137 273.621, 293.382 265.393, 276.678 263.082 C 269.381 262.073, 190 261.464, 190 262.417 M 339.873 340.626 C 331.467 346.028, 331.564 360.358, 340.040 365.364 C 344.200 367.822, 352.618 367.520, 356.633 364.768 C 360.821 361.899, 362 359.190, 362 352.438 C 362 347.623, 361.598 346.532, 358.628 343.291 C 355.517 339.897, 354.760 339.585, 348.878 339.274 C 344.153 339.025, 341.819 339.375, 339.873 340.626" stroke="none" fill="#7c24fa" fill-rule="evenodd"/></svg>