<svg width="121" height="121" viewBox="0 0 121 121" fill="none" xmlns="http://www.w3.org/2000/svg">
<g clip-path="url(#clip0_34_437)">
<path d="M84.8862 39.5892V46.1823H70.8563V39.5892H62.2391V13.5194H71.3759V19.7883H92.7672L86.1853 13.8221L92.7672 7.87749H79.7116V1.60864H59.3379V39.5892H49.7898V46.1823H35.7382V39.5892H23.0073V55.4126H23.029L33.0751 65.5941V86.8433L60.3122 103.121L87.5709 86.8217V65.5941L97.5954 55.4126H97.6171V39.5892H84.8862ZM55.7005 86.9298L57.4976 80.4015C55.5056 79.4072 54.1633 77.3319 54.1633 74.9541C54.1633 71.5819 56.913 68.8366 60.3338 68.8366C63.7547 68.8366 66.5044 71.5819 66.5044 74.9541C66.5044 77.3319 65.162 79.3855 63.1701 80.4015L64.9672 86.9298H55.7005Z" fill="#003765"/>
<path d="M60.3122 110.6L87.8524 93.7607V103.467L60.3338 120.306L32.7936 103.467V93.7823L60.3338 110.622L60.3122 110.6Z" fill="#338AE2"/>
</g>
<defs>
<clipPath id="clip0_34_437">
<rect width="120" height="120" fill="white" transform="translate(0.5 0.957275)"/>
</clipPath>
</defs>
</svg>
