<svg width="61" height="60" viewBox="0 0 61 60" fill="none" xmlns="http://www.w3.org/2000/svg">
<g clip-path="url(#clip0_2051_8459)">
<mask id="mask0_2051_8459" style="mask-type:luminance" maskUnits="userSpaceOnUse" x="0" y="0" width="61" height="60">
<path d="M60.2522 0.474609H0.748047V59.9787H60.2522V0.474609Z" fill="white"/>
</mask>
<g mask="url(#mask0_2051_8459)">
<path d="M36.4167 56.8621L49.7389 42.0368H39.1283L26.6715 55.8992C26.126 56.5061 25.4074 56.8358 24.6416 56.8358C23.8759 56.8358 23.1573 56.5011 22.6118 55.8992L1.60561 32.5248C0.462194 31.2527 0.462194 29.1902 1.60561 27.9181L23.4772 3.58594H30.8255L6.87682 30.2214L24.6364 49.9834L34.99 38.4613C35.5512 37.8383 36.7366 37.3096 37.5758 37.3096H58.2831C59.0487 37.3096 59.5788 37.5138 59.736 37.8697C59.8932 38.2257 59.6938 38.7544 59.1801 39.3251L43.4135 56.8676H36.4114L36.4167 56.8621ZM18.1063 31.2789C17.5819 30.6978 17.5819 29.7503 18.1063 29.1692L40.235 4.54393C40.7805 3.93668 41.4991 3.60688 42.2648 3.60688C43.0306 3.60688 43.7492 3.94192 44.2947 4.54393L59.6467 21.6256C60.1555 22.1963 60.3603 22.725 60.1976 23.0809C60.0399 23.4369 59.5104 23.6411 58.7447 23.6411H35.4778L39.7315 18.9087H49.8543L42.2596 10.4647L24.5 30.2214L30.8675 37.3044L27.1959 41.3928L18.1011 31.2789H18.1063Z" fill="#F3CB45"/>
</g>
</g>
<defs>
<clipPath id="clip0_2051_8459">
<rect width="60" height="60" fill="white" transform="translate(0.5)"/>
</clipPath>
</defs>
</svg>
