<svg width="61" height="60" viewBox="0 0 61 60" fill="none" xmlns="http://www.w3.org/2000/svg">
<path d="M1.17432 37.208V23.2458H11.3665V26.4888H5.0543V29.1874H9.94192V32.2451H5.0543V37.208H1.17432Z" fill="white"/>
<path d="M11.9341 37.208L16.9086 30.0735L11.9341 23.2458H16.7117L19.1439 26.8652L21.4893 23.2458H25.8094L21.2692 29.7144L26.7707 37.208H21.9294L19.0165 32.9169L16.1905 37.208H11.9341Z" fill="white"/>
<path d="M28.2183 37.208V23.2458H32.0982V37.208H28.2183Z" fill="white"/>
<path d="M34.7275 37.208V23.2458H44.9197V26.4888H38.6075V29.1874H43.4951V32.2451H38.6075V37.208H34.7275Z" fill="white"/>
<path d="M50.7281 37.208V31.637L45.5337 23.2458H49.9812L52.8306 28.2261L55.5058 23.2458H59.8258L54.6083 31.6197V37.208H50.7281Z" fill="white"/>
<path d="M16.9086 30.0677L11.9341 23.2458H16.7117L19.1439 26.8652M21.2692 29.7086L26.7707 37.2022H21.9294L19.0165 32.9111" fill="white"/>
</svg>
