<svg width="61" height="60" viewBox="0 0 61 60" fill="none" xmlns="http://www.w3.org/2000/svg">
<path d="M29.1464 45.5418C29.0944 45.1007 28.9133 44.7414 28.3874 44.7193C28.3142 44.6451 28.2198 44.6336 28.1225 44.6345C27.2152 44.6403 26.3088 44.647 25.4015 44.6538C25.2407 44.6538 25.0808 44.6538 24.92 44.6538C24.2428 44.6538 23.5657 44.6528 22.8886 44.6519C22.4407 44.6519 21.9928 44.6519 21.5449 44.6519C21.0643 44.6519 20.5827 44.6519 20.1021 44.6519C19.3373 44.6519 18.5735 44.6538 17.8088 44.6547C17.2347 44.6547 16.6607 44.6547 16.0856 44.6528C14.8981 44.6528 13.7095 44.6538 12.5219 44.6547C12.1097 44.6538 11.6974 44.6528 11.2842 44.6519C10.9278 44.6528 10.5714 44.6538 10.2141 44.6547C9.3501 44.6403 8.48521 44.6268 7.62121 44.6124C7.61928 44.2001 7.61734 43.7889 7.61546 43.3766C7.61546 42.9287 7.61546 42.4799 7.61546 42.032C7.61546 41.744 7.61546 41.456 7.61546 41.168C7.61546 40.7192 7.61546 40.2713 7.61546 39.8225C7.61546 39.1819 7.61546 38.5424 7.61546 37.9019C7.61546 37.3259 7.61546 36.749 7.61546 36.173V34.5404C7.61546 34.0598 7.61546 33.5801 7.61546 33.0995C7.69633 32.9088 7.4729 32.6169 7.81098 32.511C8.32242 32.511 8.83385 32.511 9.34529 32.511C9.73058 32.511 10.1168 32.511 10.5021 32.511C10.7891 32.511 11.0771 32.511 11.3641 32.511C11.7812 32.511 12.1992 32.511 12.6163 32.51C13.0969 32.51 13.5775 32.51 14.0582 32.51C14.2826 32.51 14.507 32.51 14.7314 32.51C15.0521 32.51 15.3719 32.51 15.6926 32.51C15.9806 32.51 16.2696 32.51 16.5576 32.51C17.0382 32.51 17.5189 32.51 17.9995 32.51C18.5427 32.51 19.0869 32.51 19.6301 32.51C20.0799 32.51 20.5297 32.51 20.9786 32.51C21.3302 32.51 21.6817 32.51 22.0323 32.51C22.4176 32.51 22.8038 32.51 23.1891 32.51C23.611 32.4936 24.0405 32.615 24.4528 32.4359C24.7581 32.4098 24.9431 32.2451 25.0095 31.9475C25.1029 31.5671 25.1453 31.1828 25.0972 30.7917C25.0972 30.4391 25.0972 30.0876 25.0972 29.7351C25.102 29.5617 25.1097 29.3893 25.1107 29.2159C25.1126 28.1911 25.0211 28.0736 24.0405 27.8414C23.7381 27.8357 23.4347 27.8232 23.1322 27.8241C19.9104 27.829 16.6886 27.8366 13.4677 27.8434C11.6878 27.8366 9.9078 27.8183 8.12784 27.8347C7.73392 27.8386 7.56825 27.7288 7.61447 27.3368C7.61447 26.8562 7.61447 26.3765 7.61447 25.8959V24.4559C7.61447 24.0716 7.61447 23.6873 7.61447 23.303C7.61447 22.8223 7.61447 22.3427 7.61447 21.862C7.61447 21.3814 7.61447 20.9008 7.61447 20.4201C7.61447 19.7796 7.61447 19.1401 7.61447 18.4996V16.6744C7.63569 16.0939 7.93842 15.8037 8.52275 15.8037C14.4338 15.8046 20.3439 15.8055 26.2549 15.8055C26.4466 15.8055 26.6382 15.793 26.8299 15.7853C27.0331 15.7921 27.2421 15.8508 27.43 15.7189C27.6669 15.716 27.8673 15.6437 27.9886 15.4232C28.11 15.3317 28.1687 15.2007 28.1851 15.0572C28.3074 13.99 28.3055 12.9218 28.1957 11.8527C28.1562 11.1948 27.8624 10.9078 27.2152 10.8972C27.0572 10.8943 26.8993 10.9011 26.7413 10.903C26.5718 10.7643 26.3715 10.8308 26.1865 10.8308C18.9357 10.8278 11.6858 10.8308 4.43502 10.8288C3.98618 10.8288 3.54022 10.8288 3.10101 10.9319C2.68974 11.0657 2.43835 11.3239 2.43449 11.7785C2.43449 12.3872 2.43449 12.995 2.43353 13.6037C2.43353 14.1807 2.43353 14.7566 2.43353 15.3336C2.43353 15.8778 2.43353 16.422 2.43353 16.9662C2.43353 17.4459 2.43353 17.9265 2.43353 18.4062C2.43353 18.7905 2.43353 19.1748 2.43353 19.5591C2.43353 19.9752 2.43353 20.3922 2.43353 20.8083C2.43353 21.3207 2.43353 21.8322 2.43353 22.3446C2.43353 22.7607 2.43353 23.1778 2.43353 23.5938C2.43353 23.8818 2.43353 24.1698 2.43353 24.4578C2.43353 24.8421 2.43353 25.2264 2.43353 25.6117C2.43353 26.1241 2.43353 26.6355 2.43353 27.148C2.43353 27.4678 2.43353 27.7885 2.43353 28.1083C2.43353 28.6207 2.43353 29.1331 2.43353 29.6445C2.43353 30.157 2.43353 30.6694 2.43353 31.1808C2.43353 31.7578 2.43353 32.3338 2.43353 32.9107V34.8312C2.43353 35.3119 2.43353 35.7915 2.43353 36.2722C2.43353 36.5284 2.43353 36.7836 2.43353 37.0398C2.43353 37.4887 2.43353 37.9366 2.43353 38.3854V40.1133C2.43353 40.5295 2.43353 40.9465 2.43353 41.3626C2.43353 41.6824 2.43353 42.0031 2.43353 42.3229C2.43353 42.8035 2.43353 43.2832 2.43353 43.7638C2.43353 44.2117 2.43353 44.6605 2.43353 45.1084C2.43353 45.3646 2.43353 45.6208 2.43353 45.877C2.43353 46.3567 2.43353 46.8373 2.43353 47.317C2.42967 47.6965 2.42197 48.076 2.42293 48.4555C2.42582 49.2116 2.72826 49.5159 3.4834 49.5304C3.63654 49.6602 3.82051 49.6057 3.99099 49.6057C6.86898 49.6082 9.74695 49.6082 12.625 49.6057C12.78 49.6057 12.9351 49.5843 13.0892 49.5718C13.1007 49.5718 13.1123 49.5718 13.1239 49.5718C14.297 49.6518 15.4711 49.5987 16.6443 49.6027C18.1131 49.6077 19.582 49.5853 21.0518 49.5747C21.6182 49.6201 22.1855 49.622 22.7518 49.5893C22.8211 49.5918 22.8925 49.5893 22.9695 49.5776C22.9714 49.5776 22.9724 49.5776 22.9743 49.5776C24.6262 49.5862 26.277 49.5948 27.9289 49.5997C27.9858 49.5997 28.0426 49.5535 28.0984 49.5284C28.1928 49.5246 28.2872 49.5207 28.3816 49.5169C28.817 49.4456 29.0732 49.1971 29.1368 48.757C29.1406 48.3081 29.1435 47.8602 29.1473 47.4114C29.1473 47.0916 29.1473 46.7709 29.1473 46.4511C29.1493 46.1477 29.181 45.8414 29.1473 45.5428L29.1464 45.5418ZM27.7883 13.8503C27.8817 13.9399 27.9761 14.0304 28.0696 14.12C28.0696 14.1239 28.0696 14.1267 28.0696 14.1306C27.9751 14.0362 27.8817 13.9437 27.7883 13.8503ZM6.02714 49.5179C6.03969 49.5034 6.05025 49.489 6.05992 49.4755C6.06666 49.4899 6.07529 49.5034 6.08204 49.5179C6.06374 49.5179 6.04544 49.5179 6.02714 49.5179ZM13.5496 49.5198C13.5554 49.5101 13.5612 49.5005 13.566 49.4909C13.5698 49.5005 13.5746 49.5092 13.5785 49.5188C13.5688 49.5188 13.5592 49.5188 13.5496 49.5188V49.5198ZM58.5454 39.6385C58.5464 39.6038 58.5474 39.5692 58.5494 39.5345C58.5588 39.4719 58.5678 39.4093 58.5772 39.3467C58.5687 39.1531 58.5598 38.9594 58.5514 38.7659C58.5598 38.4451 58.5678 38.1234 58.5762 37.8027C58.534 37.5802 58.6129 37.3403 58.478 37.1313C58.4319 36.4003 58.2846 35.6933 57.9896 35.0201C57.9712 34.943 57.9608 34.863 57.933 34.7908C57.0673 32.5273 55.5326 30.8341 53.4722 29.5944C53.1246 29.3854 52.7646 29.1957 52.3704 28.9751C52.6431 28.7892 52.8628 28.639 53.0825 28.4897C53.5188 28.2653 53.9135 27.984 54.2567 27.6324C54.4982 27.4687 54.7402 27.304 54.8968 27.0468C55.053 26.9746 55.1289 26.8311 55.2147 26.6953C55.4269 26.4275 55.7071 26.2137 55.8459 25.8891C56.1117 25.5414 56.3339 25.1715 56.4643 24.7506C56.6507 24.4886 56.7251 24.1814 56.8149 23.8799C56.8813 23.6228 56.9478 23.3655 57.0142 23.1094C57.0653 22.6596 57.2656 22.231 57.2096 21.7657C57.224 21.3179 57.3722 20.8719 57.2299 20.4221C57.219 20.0869 57.2616 19.7469 57.1778 19.4184C57.1759 19.3674 57.1565 19.3135 57.1287 19.2624C57.1035 18.6614 56.9825 18.0825 56.7474 17.5277C56.7385 17.4651 56.7405 17.3977 56.7192 17.3399C55.602 14.277 53.4127 12.316 50.3978 11.2035C49.7382 10.8625 49.0081 10.772 48.2964 10.6198C47.9505 10.4927 47.5942 10.4339 47.2262 10.4426C46.9238 10.2865 46.5568 10.4435 46.263 10.2441H45.975C45.924 10.3116 45.8132 10.275 45.766 10.3501C45.6784 10.3443 45.5907 10.3395 45.5031 10.3337C45.5127 10.3077 45.5099 10.2779 45.4944 10.2451H44.1489C44.1392 10.2451 44.1286 10.2548 44.1181 10.273C44.1142 10.2807 44.1132 10.2875 44.1151 10.2952C44.1123 10.2952 44.1103 10.2952 44.1075 10.2952C43.9302 10.2702 43.7424 10.3492 43.5719 10.2451H43.2839C43.282 10.2731 43.2801 10.301 43.2782 10.3289C42.9275 10.3713 42.5779 10.4127 42.2273 10.4551C41.7053 10.4936 41.1958 10.5996 40.694 10.746C40.3722 10.8394 40.0505 10.9319 39.7279 11.0253C39.4832 11.0638 39.2549 11.1467 39.0402 11.2699C38.7695 11.3364 38.5201 11.451 38.285 11.5974C37.7909 11.767 37.3517 12.0357 36.9356 12.3468C36.5426 12.549 36.193 12.8101 35.879 13.1202C35.5997 13.3244 35.3117 13.518 35.1171 13.8147C34.7925 14.0391 34.5768 14.3608 34.3485 14.671C34.1867 14.8337 34.0316 15.0023 33.9546 15.2248C33.7013 15.5127 33.5076 15.8364 33.3815 16.1995C33.1667 16.4817 33.055 16.8092 32.9731 17.1483C32.8113 17.4141 32.741 17.7078 32.7063 18.0131C32.5666 18.2867 32.5098 18.5785 32.5146 18.8839C32.375 19.0938 32.4337 19.3308 32.4212 19.5581C32.4116 19.5841 32.4029 19.6101 32.3962 19.6352C32.2719 20.0532 32.3422 20.4818 32.3422 20.9075C32.3422 21.1011 32.3422 21.2957 32.3432 21.4893C32.3432 21.4932 32.3432 21.497 32.3432 21.5008C32.3393 21.5326 32.3364 21.5644 32.3364 21.5943C32.3268 21.8187 32.3605 22.0374 32.4299 22.2521C32.3904 22.4881 32.4983 22.7019 32.532 22.9273C32.6206 23.5669 32.818 24.1727 33.1079 24.7497C33.1176 24.7805 33.1233 24.8123 33.1368 24.8402C33.9391 26.5749 35.2606 27.8116 36.8855 28.7632C36.9934 28.8268 37.3016 28.7892 37.1379 29.0859C36.8672 29.1196 36.663 29.2843 36.4492 29.4307C36.0273 29.5926 35.6575 29.841 35.302 30.1155C34.9072 30.3236 34.5739 30.6135 34.2512 30.9159C34.0162 31.0575 33.8303 31.2501 33.6733 31.4717C33.4614 31.621 33.2746 31.7924 33.1686 32.0361C32.9298 32.222 32.7708 32.4725 32.6186 32.7267C32.4626 32.9299 32.296 33.1274 32.2257 33.3827C32.0446 33.6148 31.9126 33.8719 31.8375 34.1571C31.6237 34.445 31.5534 34.787 31.4657 35.1231C31.3463 35.36 31.2625 35.6076 31.2654 35.8773C31.1334 36.1884 31.0689 36.513 31.0785 36.8511C30.9205 37.2219 30.9967 37.6129 30.9793 37.9953C30.9533 38.0281 30.9456 38.0637 30.9571 38.1022C30.8184 38.8131 30.9687 39.5133 31.0699 40.2145C31.0612 40.4774 31.0872 40.7355 31.1835 40.9831C31.2634 41.5822 31.4252 42.1582 31.667 42.713C32.8007 45.6083 34.9091 47.5356 37.7023 48.7849C38.338 49.1374 39.0325 49.33 39.7279 49.5179C40.0024 49.6478 40.2884 49.7277 40.5957 49.7222C41.0609 49.8829 41.5464 49.932 42.0309 49.991C42.3236 50.0054 42.6029 50.1392 42.9025 50.0872C43.1395 50.111 43.3764 50.1477 43.6143 50.1576C44.4378 50.1893 45.2623 50.2776 46.082 50.11C46.2072 50.1065 46.3314 50.1015 46.4567 50.0976C46.9518 50.1229 47.4362 50.0599 47.9111 49.9186C48.1037 49.9072 48.3069 49.9597 48.4803 49.8258C48.7847 49.8328 49.0717 49.7624 49.3491 49.6419C49.7151 49.5977 50.0743 49.5246 50.4038 49.3474C50.6859 49.3079 50.9557 49.2308 51.1917 49.0633C51.4644 49.0218 51.7069 48.9062 51.937 48.7588C52.362 48.5479 52.835 48.4256 53.197 48.0943C53.621 47.8978 54.0043 47.6425 54.343 47.3208C54.64 47.1397 54.9142 46.9327 55.1319 46.6581C55.3883 46.4646 55.6089 46.2353 55.8092 45.9878C55.8851 45.8221 56.1087 45.7816 56.1499 45.5871C56.3468 45.3868 56.5883 45.2211 56.6507 44.9206C56.801 44.7819 56.9408 44.6345 57.0172 44.439C57.224 44.177 57.3762 43.8852 57.4937 43.574C57.6226 43.3622 57.753 43.1512 57.7922 42.8998C57.9311 42.659 58.0322 42.4047 58.0744 42.1303C58.2063 41.7565 58.3317 41.3809 58.3635 40.9812C58.4002 40.8203 58.4859 40.6691 58.4522 40.4957C58.4606 40.3734 58.4706 40.2511 58.479 40.1297C58.5906 39.9814 58.5588 39.8109 58.5524 39.6452L58.5454 39.6385ZM53.0968 35.9813C53.0968 35.9813 53.1008 35.9833 53.1028 35.9842C53.0795 35.9986 53.0552 36.0179 53.0314 36.043C53.0582 36.5294 53.1692 37.0013 53.2883 37.4704C53.3066 37.5157 53.3309 37.5561 53.3587 37.5956C53.1152 38.1716 53.1564 38.7504 53.3696 39.3322C53.3676 39.3476 53.3696 39.3611 53.3686 39.3756C53.3423 39.3611 53.3165 39.3476 53.2878 39.3371C53.0775 39.7079 53.0497 40.1239 52.9917 40.5333C52.9957 40.5641 53.0026 40.594 53.0111 40.6219C52.7616 40.7828 52.6982 41.0187 52.7587 41.3048C52.5142 41.4801 52.3357 41.6901 52.3704 42.0166C52.3744 42.0204 52.3793 42.0252 52.3833 42.0291C52.2087 42.0407 52.1383 42.1216 52.2117 42.2978C51.8408 42.424 51.6385 42.6927 51.5547 43.0607C51.5487 43.0587 51.5433 43.0559 51.5373 43.0539C51.1992 43.1849 50.924 43.3805 50.795 43.733C50.7821 43.7301 50.7697 43.7272 50.7573 43.7243C50.3096 43.9054 49.8904 44.1289 49.5822 44.5151C49.1141 44.4862 48.7558 44.7646 48.3715 44.9668C48.3618 44.9851 48.3532 45.0024 48.3464 45.0198C48.017 44.9264 47.7319 45.0313 47.4709 45.2355C47.468 45.2452 47.4661 45.2538 47.4632 45.2635C47.1992 45.119 46.9691 45.1835 46.762 45.3935C46.7389 45.3704 46.7158 45.3473 46.6926 45.3242C46.4191 45.249 46.1639 45.3714 45.9009 45.4012C45.8672 45.4138 45.8325 45.4234 45.7978 45.4311C45.6977 45.3579 45.5715 45.3473 45.4482 45.3444C44.8578 45.329 44.2664 45.327 43.676 45.3453C43.5517 45.3492 43.4294 45.3675 43.3302 45.4455C43.308 45.4234 43.2859 45.4012 43.2627 45.38C42.7995 45.1855 42.3053 45.1797 41.8161 45.1393C41.7727 45.1441 41.7361 45.1537 41.7072 45.1681C41.2863 44.7906 40.7691 44.6788 40.2268 44.6316C40.2287 44.6172 40.2316 44.6018 40.2355 44.5864C40.1604 44.3822 39.9571 44.3388 39.7963 44.2454C38.5759 43.5384 37.5453 42.6455 36.9154 41.351C36.8403 41.1979 36.7844 41.0216 36.6004 40.9494C36.585 40.9523 36.5706 40.9532 36.5561 40.9542C36.6072 40.4919 36.5205 40.071 36.1767 39.729C36.2074 39.7088 36.2305 39.6713 36.246 39.6125C36.1959 39.1088 36.246 38.5992 36.1574 38.0974C36.1102 38.083 36.0659 38.0627 36.0235 38.0415C36.0341 38.0291 36.0456 38.0146 36.0563 37.9982C36.2768 37.7102 36.2498 37.3731 36.246 37.0408C36.1988 37.0283 36.1535 37.0119 36.1102 36.9936C36.1227 36.9782 36.1362 36.9599 36.1487 36.9416C36.3057 36.8087 36.3847 36.6594 36.2518 36.4668C36.2701 36.46 36.2884 36.4523 36.3076 36.4417C36.4444 36.0728 36.7151 35.7501 36.6929 35.3273C36.6833 35.3186 36.6746 35.309 36.665 35.2994C36.8932 35.2002 37.0204 35.0461 36.9655 34.7947C37.2332 34.6473 37.4105 34.4402 37.4288 34.1301C37.7928 33.9095 38.1656 33.6967 38.2629 33.2353C38.2706 33.2353 38.2773 33.2382 38.285 33.2382C38.7117 33.0561 39.1432 32.8827 39.3888 32.4493C39.698 32.4801 39.9436 32.3896 40.0852 32.1007C40.0997 32.1035 40.1141 32.1065 40.1295 32.1074C40.2634 32.0804 40.4127 32.0775 40.483 31.9504C40.5023 31.9533 40.5215 31.9552 40.5427 31.9562C40.85 31.909 41.1649 31.883 41.3855 31.6191C41.3855 31.6036 41.3836 31.5902 41.3817 31.5757C41.5261 31.6798 41.6465 31.6316 41.7554 31.5083C41.7564 31.4967 41.7554 31.4861 41.7563 31.4746C41.8575 31.5381 41.9461 31.5555 42.0077 31.4756C42.0327 31.4813 42.0588 31.4852 42.0858 31.4881C42.3314 31.4977 42.576 31.5064 42.7812 31.3339C42.7898 31.3099 42.7956 31.2877 42.8004 31.2656C42.8004 31.2656 42.8014 31.2666 42.8023 31.2675C43.0711 31.464 43.3138 31.4409 43.5325 31.2174C43.5873 31.2501 43.647 31.2771 43.7154 31.2916C44.3319 31.3339 44.9493 31.359 45.5667 31.2733C45.5985 31.2174 45.6225 31.1721 45.6351 31.1346C45.638 31.1346 45.6408 31.1346 45.6438 31.1346C45.6543 31.1327 45.6678 31.1538 45.6804 31.1645C45.714 31.1645 45.7487 31.1645 45.7824 31.1654C46.2611 31.2261 46.7398 31.2877 47.2185 31.3484C47.7676 31.5025 48.3165 31.6576 48.8656 31.8117C48.8993 31.8473 48.933 31.882 48.9667 31.9167C49.0659 32.0275 49.1979 32.0843 49.3279 32.1469C50.5625 32.7412 51.6147 33.5512 52.361 34.7215C52.4468 34.8553 52.5142 35.0047 52.6585 35.0923C52.6694 35.0961 52.6788 35.101 52.6892 35.1058C52.6535 35.4699 52.8261 35.7473 53.0988 35.9833L53.0968 35.9813ZM37.9942 18.3377C37.9942 18.3377 37.9999 18.3377 38.0038 18.3377C38.2927 18.0479 38.5923 17.7656 38.6915 17.3447C38.6867 17.3399 38.6819 17.3351 38.6771 17.3303C38.9804 17.1685 39.2752 16.997 39.4004 16.6541C39.4177 16.6541 39.4341 16.6541 39.4524 16.6532C39.7953 16.4721 40.1652 16.3257 40.3636 15.9625C40.3828 15.9664 40.4031 15.9693 40.4243 15.9703C40.8616 15.8075 41.3277 15.7054 41.688 15.3789C41.6889 15.3692 41.6889 15.3606 41.6899 15.3509C42.0636 15.4376 42.3997 15.3374 42.7157 15.1294C42.7253 15.1044 42.7301 15.0803 42.733 15.0562C42.995 15.2065 43.2396 15.244 43.44 14.9869C43.5016 15.0235 43.569 15.0524 43.6461 15.0659C44.2452 15.1236 44.8472 15.0909 45.4482 15.087C45.5725 15.087 45.7006 15.0784 45.8026 15.0032C45.8383 15.0138 45.8739 15.0244 45.9086 15.036C46.1417 15.0784 46.3671 15.2026 46.6127 15.0909C46.6252 15.0659 46.6339 15.0427 46.6397 15.0206C46.6416 15.0225 46.6435 15.0244 46.6455 15.0273C47.0278 15.3067 47.4478 15.4299 47.9149 15.3683C47.9178 15.374 47.9217 15.3798 47.9245 15.3856C48.0084 15.5127 48.1374 15.5754 48.2732 15.6264C49.063 15.9241 49.7266 16.421 50.3621 16.9585C50.4762 17.0548 50.5754 17.1733 50.7301 17.2041C50.7033 17.2889 50.7276 17.3708 50.7821 17.4324C51.2716 17.9814 51.521 18.6681 51.8666 19.3C51.8825 19.3115 51.8968 19.3241 51.9112 19.3366C51.7957 19.7007 51.8835 20.0243 52.1354 20.3152C52.1011 20.3267 52.0699 20.3614 52.0441 20.4125C51.9187 20.7891 52.122 21.1541 52.0883 21.5278C52.0952 21.7205 52.1026 21.9131 52.0689 22.1038C52.0664 22.152 52.0689 22.1982 52.0808 22.2454C52.0853 22.2569 52.0912 22.2685 52.0972 22.28C51.8418 22.5112 51.8552 22.8377 51.8195 23.146C51.8205 23.1758 51.8245 23.2047 51.8294 23.2327C51.6068 23.3713 51.5721 23.59 51.6321 23.851C51.6281 23.851 51.6241 23.8491 51.6202 23.8481C51.341 24.0292 51.1193 24.2469 51.1501 24.6167C50.6919 24.819 50.3681 25.159 50.135 25.5905C50.1197 25.5838 50.1043 25.577 50.0869 25.5722C49.7189 25.7562 49.3337 25.9151 49.0823 26.2638C49.0621 26.2551 49.0418 26.2464 49.0206 26.2397C48.7086 26.3235 48.3772 26.3716 48.1836 26.6808C48.1778 26.6886 48.174 26.6953 48.1692 26.703C48.1519 26.6722 48.1345 26.6423 48.1181 26.6105C47.678 26.6953 47.2031 26.6789 46.8573 27.0343C46.8294 27.0122 46.8005 26.991 46.7707 26.9708C46.5443 26.9265 46.3189 26.8831 46.1754 27.1268C46.1609 27.1114 46.1455 27.097 46.1311 27.0815C45.9924 27.0237 45.8508 27.0305 45.7073 27.0622C45.584 27.0988 45.4579 27.1075 45.3317 27.1249C45.1409 27.1509 44.8867 27.0632 44.7268 27.1547C44.2808 27.1499 43.8349 27.146 43.388 27.1412C43.3292 27.1114 43.2656 27.0883 43.2088 27.0921C42.7629 26.99 42.2938 27.0122 41.8613 26.8427C41.2478 26.5739 40.5967 26.389 40.0178 26.0413C39.9976 26.0105 39.9802 25.9777 39.9648 25.943C39.6229 25.5414 39.1702 25.2611 38.8051 24.8816C38.5402 24.6071 38.3948 24.2315 38.0568 24.0244C38.0365 24.0177 38.0173 24.0099 37.999 24.0012C37.972 23.5842 37.8776 23.1961 37.5251 22.9167C37.5174 22.9119 37.5097 22.9071 37.502 22.9032C37.5251 22.8878 37.5482 22.8686 37.5742 22.8416C37.5723 22.3706 37.5385 21.9035 37.4105 21.4469C37.395 21.4017 37.3739 21.3602 37.3478 21.3217C37.5193 20.9798 37.5126 20.607 37.5126 20.2362C37.4991 20.1784 37.476 20.1273 37.4461 20.0792C37.6802 19.7719 37.7225 19.4021 37.763 19.0322C37.7437 19.013 37.7254 18.9937 37.7062 18.9744C37.9094 18.8068 38.1097 18.6392 37.9951 18.3368L37.9942 18.3377Z" fill="url(#paint0_linear_2051_8580)"/>
<defs>
<linearGradient id="paint0_linear_2051_8580" x1="3.49688" y1="50.2577" x2="51.4159" y2="10.0477" gradientUnits="userSpaceOnUse">
<stop stop-color="#E990D0"/>
<stop offset="1" stop-color="#39D1EE"/>
</linearGradient>
</defs>
</svg>
