<svg width="61" height="60" viewBox="0 0 61 60" fill="none" xmlns="http://www.w3.org/2000/svg">
<g clip-path="url(#clip0_2051_8425)">
<mask id="mask0_2051_8425" style="mask-type:luminance" maskUnits="userSpaceOnUse" x="0" y="0" width="61" height="60">
<path d="M60.2522 0.474609H0.748047V59.9787H60.2522V0.474609Z" fill="white"/>
</mask>
<g mask="url(#mask0_2051_8425)">
<path d="M36.6902 30.251C34.8449 30.251 32.9995 30.251 31.1542 30.251C30.5661 30.251 30.5337 30.2726 30.5175 30.8785C30.5014 31.3653 30.5175 31.8468 30.5121 32.3337C30.5121 34.557 30.5013 36.7749 30.4959 38.9982C30.4959 39.5824 30.5175 39.6041 31.0787 39.6203C32.3844 39.6582 33.2585 40.3506 33.8575 41.4595C34.0895 41.8815 34.0949 41.8652 34.4348 41.5407C35.1255 40.8861 35.773 40.1666 36.7172 39.8529C38.2766 39.3336 40.6831 39.4472 41.8539 41.3351C42.264 41.9951 42.3827 42.7416 42.3827 43.4989C42.3827 44.8189 41.9727 45.9765 40.9366 46.8637C40.3647 47.3559 39.6741 47.621 38.978 47.8644C37.996 48.2107 36.9816 48.4703 36.0373 48.9247C34.8935 49.4819 34.192 50.326 34.219 51.6782C34.2405 52.6085 34.1758 53.5392 34.397 54.4585C34.5643 55.1617 34.8395 55.8058 35.4006 56.26C36.755 57.3584 38.4061 56.8496 38.9672 55.1944C39.1183 54.7451 39.2801 54.3073 39.4744 53.8744C39.6741 53.4361 40.0032 53.2035 40.4726 53.1604C40.9798 53.1063 41.3683 53.3389 41.6435 53.739C42.1021 54.3936 42.0158 55.2212 41.4924 55.8271C40.9205 56.4871 40.1435 56.7737 39.3449 56.9904C37.3917 57.5205 35.4924 57.342 33.6524 56.4817C32.3467 55.8708 31.683 54.8428 31.6291 53.4093C31.6128 52.9655 31.5913 52.5167 31.5859 52.0675C31.5859 51.819 31.4834 51.7159 31.2351 51.7432C30.6632 51.819 30.0913 51.7645 29.5193 51.7C29.2333 51.6673 29.12 51.7645 29.1254 52.0461C29.1254 52.5817 29.0822 53.1172 29.0499 53.6528C28.9743 54.8592 28.3862 55.7299 27.3664 56.3032C25.6398 57.2661 23.789 57.5042 21.8628 57.1094C21.0102 56.9364 20.1901 56.6766 19.4941 56.1137C18.771 55.5242 18.5768 54.6589 18.9977 53.8526C19.2513 53.3766 19.6505 53.1604 20.1793 53.1658C20.6973 53.1658 21.048 53.4361 21.2369 53.9017C21.4203 54.3504 21.5714 54.8101 21.7495 55.2594C22.0948 56.1356 22.6613 56.7792 23.6596 56.8442C24.7549 56.9091 25.4779 56.3086 25.9797 55.3947C26.2495 54.8969 26.352 54.3395 26.4384 53.7827C26.5624 52.9982 26.5463 52.2028 26.4869 51.4129C26.4006 50.2337 25.7369 49.444 24.6901 48.9463C23.7459 48.4974 22.7369 48.2161 21.7495 47.8861C20.8376 47.5777 19.9635 47.199 19.3214 46.4363C18.4419 45.3977 18.1991 44.1859 18.3556 42.8606C18.5983 40.7617 20.2441 39.6473 22.1434 39.5987C23.6703 39.5608 24.906 40.1288 25.9474 41.2269C26.5571 41.8761 26.6002 41.8761 27.0481 41.1404C27.6794 40.1017 28.5966 39.6311 29.7783 39.6257C30.0696 39.6257 30.1884 39.5175 30.1884 39.22C30.1884 36.3746 30.1884 33.5292 30.1992 30.6837C30.1992 30.37 30.0751 30.2618 29.7675 30.2564C27.8574 30.2185 25.9528 30.2402 24.0426 30.2293C22.4887 30.2239 20.9347 30.2293 19.3861 30.2077C19.2458 30.2077 19.1056 30.2077 18.9653 30.2077C18.3897 30.2077 18.0822 30.4944 18.0426 31.0678C17.9616 32.2417 17.3519 33.0639 16.3537 33.6265C15.8897 33.8916 15.8735 33.9728 16.262 34.3406C17.0444 35.0871 17.7674 35.8877 17.9833 36.9912C18.28 38.4735 18.2369 39.9178 17.2386 41.1783C16.6289 41.9464 15.7926 42.3142 14.8592 42.4116C12.5929 42.6605 10.8771 41.4866 10.1649 39.3066C9.79253 38.1597 9.49039 36.9804 8.9616 35.8823C8.41124 34.7409 7.54253 34.1242 6.25833 34.1134C5.20079 34.1026 4.14862 34.1134 3.13423 34.4812C2.08206 34.8653 1.41839 35.601 1.29428 36.7099C1.21335 37.4186 1.47774 38.0677 2.06587 38.533C2.49214 38.8738 2.98854 39.0631 3.50113 39.2254C3.78171 39.3174 4.0515 39.4148 4.3051 39.5716C4.78532 39.8637 4.97417 40.2856 4.90942 40.832C4.85006 41.3405 4.53711 41.6705 4.10546 41.8707C3.30149 42.2439 2.45437 41.9734 1.94177 41.2053C1.2727 40.1991 0.992124 39.0577 0.88421 37.8838C0.738526 36.3042 1.0245 34.7787 1.73134 33.3506C2.34106 32.1227 3.33387 31.4735 4.72596 31.4789C5.13065 31.4789 5.54071 31.441 5.94539 31.4248C6.16664 31.414 6.26373 31.3274 6.23135 31.0894C6.15043 30.5161 6.16664 29.948 6.25833 29.3746C6.32309 28.9473 6.25833 28.8932 5.82132 28.877C5.3141 28.8607 4.8015 28.8553 4.2943 28.8283C3.12344 28.758 2.27091 28.1575 1.74753 27.1351C0.522697 24.7657 0.436365 22.326 1.41839 19.8538C1.69357 19.1614 2.13602 18.588 2.90221 18.3608C3.50653 18.1823 4.25114 18.4798 4.59107 19.037C4.87704 19.5131 4.8069 20.2054 4.41301 20.5949C4.16481 20.8438 3.84107 20.9628 3.51192 21.0764C2.99394 21.2549 2.47595 21.4443 2.0335 21.7742C0.69536 22.7696 1.04608 24.8414 2.51372 25.642C2.94538 25.8746 3.39862 26.0369 3.87884 26.1127C4.83927 26.2641 5.81051 26.275 6.77096 26.1505C7.88244 26.0099 8.52454 25.2526 8.95079 24.2734C9.38785 23.2673 9.64684 22.1962 9.98681 21.1575C10.1649 20.6111 10.3753 20.081 10.6829 19.5888C11.6379 18.0633 13.494 17.5386 15.0534 17.8415C17.3519 18.2851 18.2045 20.3948 18.0157 22.4233C17.8861 23.819 17.1847 24.8847 16.2242 25.8314C15.8142 26.2371 15.8196 26.2912 16.3268 26.5617C17.4869 27.1784 18.0426 28.1575 18.048 29.4503C18.048 29.7966 18.1991 29.8939 18.5067 29.8885C19.6883 29.8885 20.8754 29.8885 22.057 29.8885C24.5283 29.8993 26.9941 29.9156 29.4653 29.9264C30.1884 29.9264 30.1992 29.9156 30.2046 29.2177C30.2207 26.7186 30.237 24.2193 30.2531 21.7147C30.2531 21.6011 30.2531 21.4875 30.2531 21.3685C30.2477 21.0115 30.1182 20.8221 29.7028 20.8275C28.4726 20.8384 27.5715 20.2704 26.9779 19.1831C26.6488 18.5772 26.6164 18.5826 26.1308 19.0911C25.5211 19.7294 24.8736 20.3299 24.0156 20.6166C22.4617 21.1251 20.9725 21.0493 19.6397 20.0107C18.539 19.1506 18.2854 17.9335 18.3663 16.6135C18.5174 14.1414 20.0714 13.173 21.7333 12.6159C22.8772 12.2318 24.0588 11.9451 25.111 11.3176C25.9042 10.847 26.4114 10.1545 26.4815 9.2295C26.584 7.95284 26.611 6.67618 26.1416 5.44821C25.7855 4.51238 25.1974 3.80914 24.1398 3.6739C22.8178 3.5008 22.111 4.34468 21.7711 5.23727C21.6146 5.6538 21.4905 6.08654 21.3124 6.49226C21.0318 7.13599 20.5031 7.43892 19.9257 7.33077C19.3376 7.21717 18.879 6.67077 18.8088 6.02703C18.7009 5.04794 19.2567 4.45287 20.0174 4.03634C21.3502 3.30605 22.807 3.11672 24.307 3.23573C25.1272 3.30064 25.9042 3.52244 26.6704 3.81455C28.2243 4.4096 29.0661 5.51857 29.1146 7.2009C29.1254 7.59581 29.1362 7.99072 29.1362 8.38563C29.1362 8.62365 29.2333 8.73184 29.4816 8.72639C30.0913 8.70477 30.701 8.69396 31.3107 8.77508C31.5211 8.80216 31.5805 8.68315 31.5859 8.50464C31.6021 8.12054 31.6291 7.74189 31.6344 7.3578C31.6506 5.28056 32.6326 4.32304 34.3862 3.68472C34.969 3.47375 35.5733 3.3331 36.1992 3.24114C37.791 3.00853 39.3018 3.29523 40.7154 4.00388C41.4708 4.38255 42.0212 4.99384 41.951 5.94591C41.8755 6.96289 40.9529 7.55252 40.0464 7.17928C39.6687 7.02239 39.5122 6.68163 39.3719 6.34082C39.2154 5.96213 39.0967 5.57267 38.9564 5.19398C38.6651 4.40419 38.1578 3.80914 37.2945 3.6739C36.3125 3.52244 35.5247 3.90651 34.9528 4.71253C34.5319 5.30218 34.3809 5.9946 34.2945 6.68703C34.1866 7.57419 34.1758 8.47216 34.2945 9.35932C34.4456 10.4953 35.2064 11.1499 36.1777 11.588C37.1273 12.0208 38.1309 12.313 39.1237 12.6321C40.6345 13.1189 41.7999 13.9629 42.2262 15.5587C42.5554 16.7866 42.5446 18.0146 41.8485 19.1452C41.282 20.0702 40.4456 20.5733 39.3827 20.768C38.1687 20.9898 37.0301 20.8492 35.9672 20.2054C35.3736 19.843 34.9043 19.3345 34.4132 18.8585C34.1758 18.6313 34.0679 18.6583 33.9168 18.9342C33.5175 19.6753 33.0211 20.3299 32.1902 20.6382C31.8503 20.7626 31.4995 20.8059 31.1434 20.8221C30.5661 20.8492 30.5661 20.8438 30.5661 21.4389C30.5661 23.7866 30.5661 26.1343 30.5661 28.4821C30.5661 28.7471 30.5445 29.0176 30.5553 29.2827C30.5823 29.9156 30.5877 29.9156 31.2082 29.9156C33.6902 29.9156 36.1722 29.9156 38.6543 29.921C39.8791 29.921 41.0985 29.9264 42.3233 29.9264C42.8414 29.9264 42.8683 29.9048 42.8629 29.3908C42.8467 28.1953 43.327 27.2811 44.3468 26.6428C45.0104 26.2317 45.005 26.2046 44.4547 25.6583C43.8234 25.0254 43.2029 24.3762 42.9331 23.4891C42.4744 21.9798 42.496 20.4975 43.4079 19.1614C44.2064 17.9876 45.4205 17.6251 46.7856 17.6954C48.7389 17.7982 49.9259 18.8909 50.5842 20.6707C50.9998 21.7959 51.2963 22.9589 51.8145 24.0462C52.1705 24.7928 52.6505 25.4203 53.4548 25.7178C53.9403 25.9017 54.4639 25.9125 54.9603 25.9071C55.9099 25.8963 56.8595 25.8151 57.7714 25.4798C59.131 24.9821 59.8649 23.5269 59.3685 22.2557C59.077 21.5092 58.4512 21.163 57.755 20.9033C57.4475 20.7897 57.1292 20.6923 56.8218 20.5733C55.9907 20.2487 55.6292 19.486 55.9639 18.7827C56.3309 18.0146 57.3072 17.69 58.0466 18.0849C58.6991 18.4365 59.0824 19.0099 59.3413 19.6808C60.2155 21.9527 60.1942 24.2085 59.2009 26.4481C58.6292 27.7355 57.6742 28.4442 56.2441 28.4821C55.8395 28.4929 55.4294 28.5308 55.0247 28.5578C54.7391 28.5794 54.6092 28.7147 54.6632 29.0122C54.7604 29.5315 54.7282 30.0508 54.6632 30.5756C54.6042 31.0299 54.6632 31.1003 55.1165 31.0894C55.7155 31.0786 56.3145 31.0786 56.908 31.1652C58.2568 31.3545 59.0125 32.2417 59.5193 33.421C60.3613 35.3738 60.4743 37.3699 59.8758 39.4039C59.6869 40.053 59.4226 40.6806 58.9153 41.162C58.3376 41.703 57.6365 41.7841 56.9457 41.4055C56.4657 41.1404 56.2823 40.7076 56.2927 40.1937C56.3036 39.6149 56.6492 39.2579 57.151 39.0361C57.5661 38.8521 57.998 38.6952 58.419 38.5059C60.1996 37.7107 60.2695 35.5902 58.7155 34.4596C58.1437 34.0431 57.4585 33.9024 56.7786 33.8159C55.9421 33.7077 55.1061 33.7131 54.2695 33.8429C53.0447 34.0323 52.408 34.8491 51.9816 35.9094C51.4907 37.1265 51.2373 38.4248 50.7786 39.6528C49.9907 41.7571 47.9673 42.5955 45.9816 42.2655C44.1417 41.9626 43.0356 40.3073 43.0248 38.5221C43.0194 37.7811 43.0518 37.0508 43.3216 36.3421C43.6399 35.5036 44.2496 34.8869 44.8162 34.2378C45.1345 33.8754 45.1399 33.8808 44.746 33.6319C44.6165 33.5508 44.4924 33.4642 44.3575 33.3885C43.3701 32.8205 42.9493 31.9225 42.8899 30.819C42.8575 30.2239 42.8629 30.2185 42.2532 30.2185C41.3252 30.2185 40.3971 30.2185 39.4636 30.2185C38.5464 30.2185 37.6291 30.2185 36.7118 30.2185L36.6902 30.251ZM51.1723 33.7996C50.0123 33.7888 48.8522 33.8375 47.7029 33.9782C46.3809 34.135 45.1399 34.5029 44.2334 35.6064C43.3701 36.6558 43.5374 38.1543 44.6273 38.8467C45.1831 39.1984 45.7982 39.3607 46.4349 39.3769C48.2371 39.4148 49.6184 38.6303 50.5842 37.1103C51.2264 36.0987 51.8036 35.0438 52.5806 34.1242C52.6401 34.0539 52.71 33.989 52.6669 33.8916C52.6237 33.7888 52.5156 33.8105 52.4294 33.8105C52.0089 33.8105 51.5879 33.8105 51.1669 33.8105L51.1723 33.7996ZM26.5895 47.2694C26.5571 45.7817 26.6272 44.2887 26.1632 42.839C25.861 41.8977 25.3862 41.1025 24.4905 40.6102C23.4006 40.0098 22.1757 40.3993 21.6415 41.5353C20.7567 43.4232 21.3988 45.9224 23.0768 47.1666C24.129 47.951 25.2621 48.6056 26.2495 49.4765C26.3034 49.5252 26.3574 49.601 26.4438 49.563C26.5463 49.5197 26.5193 49.4115 26.5301 49.325C26.5895 48.638 26.6002 47.951 26.5895 47.264V47.2694ZM14.5138 39.3985C14.8106 39.4202 15.226 39.3769 15.6307 39.2471C16.4185 38.9982 17.0929 38.5925 17.3304 37.754C17.5786 36.8885 17.3196 36.1203 16.7099 35.4658C15.8789 34.5786 14.789 34.2649 13.6397 34.1026C12.0048 33.87 10.3645 33.9944 8.72418 34.016C8.60547 34.016 8.44902 33.989 8.38967 34.135C8.34112 34.254 8.43821 34.3514 8.51378 34.438C9.226 35.2277 9.76555 36.1366 10.3429 37.0237C11.2979 38.4897 12.5606 39.431 14.5138 39.3985ZM34.1003 46.9232C34.0355 47.713 34.165 48.5028 34.1542 49.2925C34.1542 49.3899 34.1326 49.5143 34.2459 49.563C34.3593 49.6169 34.4348 49.5143 34.5103 49.4494C34.8395 49.1681 35.1578 48.8814 35.5193 48.6326C36.2424 48.1349 36.9816 47.6589 37.6777 47.1233C39.2855 45.8845 39.9168 43.5422 39.1237 41.6813C38.6597 40.5886 37.6777 40.0747 36.6794 40.4155C35.5733 40.7942 34.9582 41.6218 34.6021 42.6929C34.1435 44.0669 34.138 45.495 34.1111 46.9232H34.1003ZM26.5625 13.2109C26.5625 12.551 26.5625 11.8856 26.5625 11.2256C26.5625 11.1282 26.6218 11.0038 26.5139 10.9443C26.3898 10.874 26.2981 10.993 26.2171 11.0579C25.6506 11.4853 25.1272 11.9721 24.5175 12.3508C24.0211 12.6538 23.5409 12.9945 23.0768 13.3515C21.4689 14.5795 20.8214 16.9759 21.62 18.826C22.2351 20.2487 23.6488 20.6003 24.879 19.6645C25.6991 19.037 26.0822 18.1661 26.3197 17.214C26.6488 15.9049 26.611 14.5579 26.5732 13.2217L26.5625 13.2109ZM34.1542 13.3083C34.1219 14.1035 34.1489 15.0718 34.2405 16.0347C34.3485 17.122 34.5967 18.1715 35.2819 19.064C35.638 19.5293 36.1021 19.8701 36.6578 20.0486C37.9798 20.4759 38.9672 19.6375 39.3233 18.2364C39.8467 16.1808 39.0374 14.1847 37.2676 13.0162C36.3341 12.3995 35.4006 11.7774 34.5427 11.0579C34.4618 10.9876 34.3809 10.8632 34.2514 10.9389C34.1326 11.0038 34.1596 11.1391 34.1596 11.2527C34.1596 11.8802 34.1596 12.5023 34.1596 13.3029L34.1542 13.3083ZM49.2946 26.1397C49.2946 26.1072 49.2946 26.0748 49.2946 26.0423C50.2495 26.0423 51.1991 26.0423 52.1542 26.0423C52.2732 26.0423 52.4348 26.0856 52.4889 25.9341C52.532 25.8151 52.408 25.7286 52.3322 25.6474C51.7981 25.0308 51.3072 24.387 50.8758 23.6892C50.4707 23.0292 50.0338 22.3747 49.4457 21.8608C48.4475 20.979 47.2604 20.6598 45.9439 20.768C45.1831 20.8275 44.5086 21.098 43.9529 21.6282C43.4079 22.1475 43.246 22.802 43.4564 23.5215C43.7802 24.625 44.5572 25.2958 45.6039 25.6799C46.7964 26.1181 48.0428 26.1289 49.2892 26.1451L49.2946 26.1397ZM10.8447 26.2046C11.5192 26.2046 12.1937 26.2425 12.8681 26.1938C14.0875 26.1127 15.2476 25.8314 16.2566 25.0687C16.8987 24.5872 17.4869 23.2835 17.2764 22.5802C17.012 21.6985 16.4185 21.2225 15.6361 20.9682C13.9041 20.411 11.967 21.0115 10.8447 22.3963C9.94902 23.5053 9.34471 24.8198 8.41124 25.9125C8.2116 26.1451 8.3681 26.2046 8.59471 26.2209C9.34471 26.2641 10.0947 26.2317 10.8447 26.1992V26.2046ZM51.2695 28.6606C49.3378 28.7417 47.7245 28.8012 46.1112 28.8824C45.5662 28.9094 45.0212 29.0122 44.5626 29.3476C43.9367 29.8074 43.9474 30.4025 44.595 30.8298C44.8539 30.9975 45.1237 31.1111 45.4367 31.1544C45.9925 31.2301 46.5482 31.2788 47.1094 31.2679C48.7713 31.2355 50.4385 31.2084 52.1006 31.1814C52.5052 31.176 52.9153 31.1814 53.3199 31.1706C53.8376 31.1544 53.8917 31.1057 53.9135 30.6026C53.9348 30.1211 53.9135 29.6343 53.8758 29.1528C53.8485 28.7796 53.6705 28.6498 53.309 28.6606C52.5211 28.6768 51.7337 28.6606 51.2641 28.6606H51.2695ZM29.12 46.1604C29.12 47.9672 29.1254 49.2006 29.12 50.4395C29.12 50.737 29.2279 50.8828 29.5247 50.9265C30.0589 51.0073 30.5823 51.0291 31.1164 50.921C31.478 50.8506 31.5913 50.6934 31.5859 50.3314C31.5643 48.1133 31.5859 45.8953 31.5481 43.6774C31.5373 43.0229 31.4995 42.3521 31.2459 41.7246C31.084 41.3297 30.852 40.9673 30.3934 40.9456C29.9294 40.924 29.6704 41.2594 29.4816 41.6435C29.2495 42.1249 29.2172 42.6496 29.1902 43.1744C29.1308 44.3591 29.1146 45.5437 29.1254 46.1604H29.12ZM11.0389 28.8824C9.85729 28.8824 8.67563 28.8824 7.49398 28.877C7.18104 28.877 7.02995 28.9797 6.99757 29.3043C6.94902 29.8128 6.94902 30.3213 6.99757 30.8298C7.05152 31.3761 7.10547 31.4248 7.66124 31.414C9.44185 31.3869 11.2224 31.3653 12.9976 31.3329C13.6181 31.322 14.244 31.3166 14.8645 31.2679C15.3717 31.2301 15.8735 31.1219 16.3052 30.819C16.9527 30.3592 16.9311 29.7587 16.2566 29.3313C15.6469 28.9419 14.9562 28.9094 14.2764 28.8878C13.1973 28.8607 12.1127 28.8824 11.0336 28.8824H11.0389ZM29.1254 13.5733C29.1254 13.5733 29.1524 13.5733 29.1632 13.5733C29.1632 14.0061 29.1632 14.4389 29.1632 14.8716C29.1632 15.3206 29.1686 15.7642 29.1632 16.2132C29.1632 16.8786 29.2009 17.5386 29.3089 18.1931C29.379 18.5988 29.5031 18.9883 29.8053 19.2858C30.1506 19.6267 30.5715 19.6321 30.9168 19.2858C31.1974 19.0045 31.3484 18.6583 31.4078 18.2688C31.5103 17.5872 31.5643 16.9002 31.5643 16.2132C31.5643 14.1738 31.5643 12.129 31.5805 10.0896C31.5805 9.71634 31.451 9.54864 31.0895 9.52702C30.593 9.49999 30.102 9.47832 29.6056 9.54323C29.2495 9.59193 29.1093 9.74882 29.12 10.1167C29.1416 11.2635 29.1254 12.4103 29.1254 13.5625V13.5733Z" fill="#CD833F"/>
</g>
</g>
<defs>
<clipPath id="clip0_2051_8425">
<rect width="60" height="60" fill="white" transform="translate(0.5)"/>
</clipPath>
</defs>
</svg>
