<svg width="61" height="60" viewBox="0 0 61 60" fill="none" xmlns="http://www.w3.org/2000/svg">
<g clip-path="url(#clip0_2051_8608)">
<mask id="mask0_2051_8608" style="mask-type:luminance" maskUnits="userSpaceOnUse" x="0" y="0" width="61" height="60">
<path d="M60.2522 0.474609H0.748047V59.9787H60.2522V0.474609Z" fill="white"/>
</mask>
<g mask="url(#mask0_2051_8608)">
<path d="M34.5918 55.3209H25.243V5.99295H34.5918V55.3209ZM0.763391 5.13257C0.763391 5.13257 -0.219902 18.2942 13.5563 20.8779C14.7854 37.8548 14.7854 39.8214 14.7854 39.8214L13.0621 44.1258L21.9193 49.0473C21.9193 49.0473 21.9193 11.3534 21.9193 11.1603C21.9193 11.2681 15.5003 11.2105 14.9184 11.2105C12.2042 11.2105 9.05869 11.2506 6.54529 10.0817C4.78186 9.26141 3.21411 8.0323 1.92228 6.58497C1.70655 6.33911 0.740815 5.45364 0.763391 5.13257ZM57.9251 6.58497C56.6358 8.0323 55.0654 9.26394 53.3021 10.0817C50.7885 11.2506 47.6431 11.2105 44.9289 11.2105C44.347 11.2105 37.928 11.2681 37.928 11.1603C37.928 11.3534 37.928 49.0473 37.928 49.0473L46.7852 44.1258L45.0619 39.8214C45.0619 39.8214 45.0619 37.8523 46.291 20.8779C60.0697 18.2942 59.0864 5.13257 59.0864 5.13257C59.1117 5.45364 58.1433 6.33911 57.9251 6.58497Z" fill="url(#paint0_linear_2051_8608)"/>
<path d="M10.2653 26.7224C7.58133 28.6814 4.9224 30.8763 2.92571 33.5578C1.66147 35.256 0.527672 37.6917 1.0444 39.8539C1.76432 42.869 5.251 43.1575 7.82212 42.9041C14.1534 42.282 19.9277 39.0186 25.3208 35.8831C31.0977 32.5243 36.6964 28.7442 42.9398 26.2809C43.1857 26.1831 43.4315 26.0902 43.6773 25.9975C46.562 24.9189 49.8004 23.6245 52.9184 24.372C53.3522 24.4749 53.7861 24.6454 54.0946 24.9665C54.6564 25.5559 54.6514 26.4816 54.4913 27.2792C54.0222 29.5845 52.6446 31.4532 51.3807 33.3646C52.5068 32.118 54.0569 31.4056 55.3541 30.3671C56.6508 29.3286 57.8349 28.092 58.7577 26.7475C59.8089 25.2173 60.5741 23.2683 60.1174 21.4021C58.7552 15.8559 52.0506 17.3585 48.1523 18.8209C42.0844 21.0985 36.4832 23.9882 30.8217 27.1337C27.0591 29.2258 23.2689 31.2952 19.2881 32.9482C16.9878 33.9014 10.4183 37.2075 8.40159 34.3078C7.86223 33.5302 7.98516 32.4717 8.17081 31.6037C8.4367 30.3671 9.23435 27.4799 10.2653 26.7274V26.7224Z" fill="white"/>
</g>
</g>
<defs>
<linearGradient id="paint0_linear_2051_8608" x1="30.5014" y1="55.3209" x2="30.5014" y2="5.13257" gradientUnits="userSpaceOnUse">
<stop stop-color="#0A7EFF"/>
<stop offset="1" stop-color="#00C7FF"/>
</linearGradient>
<clipPath id="clip0_2051_8608">
<rect width="60" height="60" fill="white" transform="translate(0.5)"/>
</clipPath>
</defs>
</svg>
