<svg width="61" height="60" viewBox="0 0 61 60" fill="none" xmlns="http://www.w3.org/2000/svg">
<mask id="mask0_2051_8445" style="mask-type:luminance" maskUnits="userSpaceOnUse" x="2" y="6" width="57" height="48">
<path d="M58.5165 6.6731H2.4834V53.7805H58.5165V6.6731Z" fill="white"/>
</mask>
<g mask="url(#mask0_2051_8445)">
<path d="M11.8396 37.4862C12.3982 36.9291 12.1189 36.5809 11.7349 36.1631L12.468 36.8942L11.8396 37.4862Z" fill="#386CE5"/>
<path d="M52.1278 31.3585C52.0232 31.7067 51.6042 32.0201 51.325 32.2986C44.4122 39.2272 37.4648 46.1558 30.5174 53.0843C29.5748 54.0245 29.5748 53.9898 28.6322 53.0496C24.8268 49.2545 21.0215 45.4594 17.2161 41.6644L16.2037 40.6199L12.4682 36.8944L11.735 36.1633C10.4782 34.9447 9.22139 33.7261 7.99948 32.5075C7.65039 32.1594 7.33615 31.8112 7.02197 31.463C7.05688 31.3585 7.09179 31.2889 7.1267 31.1845C9.18649 31.1845 11.2463 31.1148 13.3061 31.1845C13.8297 31.2193 14.3534 31.8808 14.8072 32.2986C15.6451 33.1342 15.8895 33.3431 16.4481 32.9253L15.8197 33.5172L19.5203 37.2426L20.4629 36.3026C19.8345 36.9293 19.7647 37.2775 20.428 37.9389C23.186 40.585 25.8742 43.3356 28.5973 46.0513C29.2956 46.7477 29.9938 46.7593 30.692 46.0862C35.405 41.3859 40.153 36.6855 44.8312 31.9853C45.4596 31.3585 46.088 31.08 46.9608 31.1148C47.8336 31.1496 48.7064 31.1148 49.5443 31.1496C50.3823 31.1496 51.3597 30.9408 52.1278 31.3237V31.3585Z" fill="#386CE5"/>
<path d="M58.4464 12.6965C58.1325 14.7506 57.7483 16.8049 57.3644 18.8242C57.1899 19.7991 56.7709 19.9384 56.0375 19.2072C55.444 18.5457 55.0254 18.6501 54.4666 19.2421L49.2299 24.4646C48.7411 24.9172 48.6364 25.2654 49.0902 25.7528L44.1328 20.8088C44.7612 21.4355 44.866 21.3311 45.7038 20.4955C47.3446 18.8939 48.9855 17.2226 50.6613 15.6211C51.2549 15.0292 51.534 14.5417 50.7312 13.8802C50.2076 13.4276 49.9979 13.0446 51.0104 12.8705C53.0702 12.4876 55.0949 11.9653 57.1547 11.5475C58.4464 11.3038 58.621 11.4082 58.4464 12.6965Z" fill="white"/>
<path d="M43.1554 30.488C38.9311 34.7009 34.7068 38.9137 30.5174 43.1265C29.8191 43.8229 29.2955 43.6488 28.702 43.0221C26.5025 40.7938 24.2333 38.6004 22.0339 36.3373C21.4753 35.7802 21.0913 35.7105 20.4629 36.3373L15.4705 41.3509L15.1214 41.6991C13.5155 43.2658 11.9445 44.8326 10.3734 46.4342C9.77989 47.0609 9.11657 47.3742 8.2438 47.3394C6.56806 47.3394 4.92721 47.3394 3.25145 47.3394C3.00707 47.3394 2.72778 47.1653 2.4834 47.0957C2.58813 46.852 2.65795 46.5735 2.83251 46.3994C4.22898 44.9719 5.66037 43.5444 7.09175 42.1517C8.06925 41.1768 9.08166 40.1671 10.0941 39.1922L11.8397 37.521L16.448 32.9948L17.1113 32.3681C18.1936 31.254 19.3457 30.1746 20.3931 29.0256C21.0564 28.2597 21.4753 28.3293 22.1386 29.0605C24.2682 31.254 26.4676 33.3778 28.6321 35.5364C29.3071 36.1864 30.0053 36.1632 30.7268 35.4668C33.5198 32.6815 36.3476 29.8961 39.1405 27.0759C39.7689 26.4724 40.3973 26.484 41.0258 27.1108C41.724 27.8071 42.4222 28.5731 43.1554 29.2346C43.6791 29.722 43.6441 30.0354 43.1554 30.5228V30.488Z" fill="white"/>
<path d="M58.4464 12.6965C58.1325 14.7506 57.7483 16.8049 57.3644 18.8242C57.1899 19.7991 56.7709 19.9384 56.0375 19.2072C55.444 18.5457 55.0254 18.6501 54.4666 19.2421L49.2299 24.4646C48.7411 24.9172 48.6364 25.2654 49.0902 25.7528L44.1328 20.8088C44.7612 21.4355 44.866 21.3311 45.7038 20.4955C47.3446 18.8939 48.9855 17.2226 50.6613 15.6211C51.2549 15.0292 51.534 14.5417 50.7312 13.8802C50.2076 13.4276 49.9979 13.0446 51.0104 12.8705C53.0702 12.4876 55.0949 11.9653 57.1547 11.5475C58.4464 11.3038 58.621 11.4082 58.4464 12.6965Z" fill="white"/>
<path d="M52.1276 28.8516C52.1276 28.8516 52.023 29.0605 51.9877 29.165C49.9979 29.165 48.0079 29.2346 46.0529 29.1302C45.599 29.0953 45.1452 28.6427 44.7961 28.2945C40.2226 23.7335 35.6492 19.1725 31.0758 14.6115C29.6444 13.184 29.6793 13.184 28.2131 14.6463C23.6047 19.2073 18.9964 23.8032 14.423 28.399C13.8644 28.9561 13.2709 29.2346 12.5028 29.1998C10.7224 29.165 8.94186 29.1998 6.84717 29.1998C7.23122 28.7124 7.40576 28.4338 7.65018 28.2249C14.6674 21.1919 21.7195 14.1937 28.7018 7.16061C29.435 6.42945 29.8539 6.56874 30.4823 7.19542C34.9161 11.652 39.3848 16.0738 43.8185 20.4955L44.1328 20.8089L49.0902 25.7529L49.2298 25.927C50.2076 26.867 51.1497 27.8767 52.1276 28.8516Z" fill="#386CE5"/>
</g>
</svg>
