<svg width="61" height="60" viewBox="0 0 61 60" fill="none" xmlns="http://www.w3.org/2000/svg">
<path d="M50.7958 6.27515H10.2041C5.21037 6.27515 1.16211 10.3234 1.16211 15.3172V45.1364C1.16211 50.1303 5.21037 54.1786 10.2041 54.1786H50.7958C55.7897 54.1786 59.8379 50.1303 59.8379 45.1364V15.3172C59.8379 10.3234 55.7897 6.27515 50.7958 6.27515Z" fill="#DCD625"/>
<path fill-rule="evenodd" clip-rule="evenodd" d="M48.6629 27.4549H42.7607V39.0201C42.7607 40.1905 43.0879 41.1029 43.736 41.751C44.3841 42.3991 45.2335 42.7263 46.2718 42.7263C47.0206 42.7263 47.8197 42.613 48.6629 42.3865V47.7035C47.719 47.93 46.6808 48.0433 45.5419 48.0433C42.811 48.0433 40.6276 47.3259 39.0042 45.8976C37.4122 44.463 36.6131 42.3865 36.6131 39.6494V27.4486H32.3154V22.3266H36.6131V14.8577H42.7607V22.3266H48.6629V27.4549Z" fill="#08271F"/>
<path fill-rule="evenodd" clip-rule="evenodd" d="M11.0728 27.4299H15.3704V47.6344H21.518V27.4299H27.4705V22.3079H21.518V20.6027C21.518 19.4324 21.8452 18.52 22.4933 17.8719C23.1791 17.2238 24.0034 16.8965 24.985 16.8965C25.8659 16.8965 26.6903 16.9973 27.4768 17.1923V11.9697C26.5329 11.7431 25.4443 11.6299 24.2048 11.6299C21.5683 11.6299 19.4415 12.3472 17.8118 13.7756C16.1821 15.2102 15.3704 17.2867 15.3704 20.0238V22.3205H11.0728V27.4425V27.4299Z" fill="#08271F"/>
</svg>
