<svg width="61" height="60" viewBox="0 0 61 60" fill="none" xmlns="http://www.w3.org/2000/svg">
<g clip-path="url(#clip0_2051_8620)">
<mask id="mask0_2051_8620" style="mask-type:luminance" maskUnits="userSpaceOnUse" x="0" y="0" width="61" height="60">
<path d="M60.2522 0.474609H0.748047V59.9787H60.2522V0.474609Z" fill="white"/>
</mask>
<g mask="url(#mask0_2051_8620)">
<path d="M58.8628 25.5594C58.8662 25.5635 58.8633 25.57 58.8578 25.5696C57.8011 25.4966 56.738 25.4575 55.6877 25.497C54.0623 25.548 53.0333 24.9869 52.4175 23.6496C51.7952 22.2896 50.91 21.0146 50.2679 19.6546C49.5013 18.0565 48.2234 17.0932 46.2901 16.6512C44.1603 16.1696 42.0894 15.5406 39.9793 15.0079C38.8521 14.7245 37.8429 14.3109 37.2662 13.3872C35.8338 11.0903 34.295 8.84233 32.8471 6.55266C31.4632 4.36415 27.1964 2.82992 25.7586 4.98344C23.0914 9.00681 19.4281 11.8005 13.9889 12.6222C12.4423 12.8602 11.6035 13.7668 11.1644 15.0702C10.2011 17.9545 9.06732 20.7936 8.13677 23.678C7.71737 24.97 6.88506 25.48 5.41058 25.48C4.13924 25.48 2.86136 25.5593 1.59657 25.6556C1.17061 25.684 0.705313 25.871 0.751186 26.3186C0.797059 26.772 1.282 26.857 1.70796 26.874C3.33318 26.9193 4.96497 26.9703 6.59016 26.9533C7.91393 26.9363 8.85762 27.4463 9.69643 28.285C12.7765 31.362 15.1095 34.7054 15.1554 38.9441C15.1619 39.6071 15.3847 40.2758 15.5289 40.9331C15.7058 41.7094 16.1777 42.3442 17.1017 42.5141C20.1555 43.0751 21.2303 45.0528 21.8594 47.3705C22.4557 49.5748 23.039 51.779 23.6616 53.9836C23.8385 54.6069 24.1465 55.6552 25.0902 54.8281C26.7154 53.4168 27.1938 54.5672 27.8753 55.491C28.3734 56.1654 28.819 56.8567 29.3302 57.5251C30.3984 58.9135 30.7981 58.9081 31.8008 57.4289C33.9896 54.2102 36.1522 50.9801 38.341 47.7672C38.7997 47.0928 39.1601 46.1918 40.2283 46.1748C41.5521 46.1578 41.847 45.3758 42.2139 44.5768C44.7436 39.1028 47.7581 33.8554 51.3558 28.846C52.3912 27.3953 53.5709 26.7607 55.4844 26.908C56.6051 26.9986 57.752 26.9306 58.8791 26.9023C59.4295 26.8853 60.1897 26.976 60.2487 26.3243C60.3137 25.5376 59.4573 25.5923 58.8677 25.5491C58.8623 25.5487 58.8593 25.5552 58.8628 25.5594ZM38.1771 25.4403C34.7825 25.4969 31.3879 25.463 27.9802 25.4686H25.4536C25.4411 25.4686 25.431 25.4788 25.431 25.4913C25.431 25.5038 25.4208 25.514 25.4083 25.514C21.379 25.5138 17.3497 25.4631 13.327 25.5367C11.5642 25.565 11.0071 25.0946 11.5052 23.5816C12.2981 21.1733 12.9862 18.7309 13.6874 16.2942C13.9495 15.3819 14.5 14.6452 15.6141 14.5715C20.5422 14.2485 23.4322 11.5342 25.8438 8.21348C26.0666 7.90182 26.3287 7.61283 26.5909 7.32379C26.8465 7.04045 27.0496 6.55311 27.5149 6.66647C28.1375 6.81379 27.9147 7.38612 27.9147 7.78281C27.9409 10.3498 27.9212 12.9225 27.9343 15.4895C27.9343 18.3456 28.0195 18.4192 31.0799 19.1899C32.5085 19.5469 33.8782 20.0852 35.3199 20.3742C37.3973 20.7823 38.59 21.9269 39.4419 23.5023C40.248 24.9756 40.0514 25.4006 38.1771 25.4403Z" fill="#E9AC28"/>
</g>
</g>
<defs>
<clipPath id="clip0_2051_8620">
<rect width="60" height="60" fill="white" transform="translate(0.5)"/>
</clipPath>
</defs>
</svg>
