<svg width="121" height="121" viewBox="0 0 121 121" fill="none" xmlns="http://www.w3.org/2000/svg">
<g clip-path="url(#clip0_18_123)">
<path d="M72.4317 114.672L99.2983 84.7742H77.9002L52.7789 112.73C51.6788 113.954 50.2297 114.619 48.6854 114.619C47.1411 114.619 45.692 113.944 44.5919 112.73L2.22941 65.5918C-0.0764688 63.0264 -0.0764688 58.8669 2.22941 56.3015L46.3372 7.23169H61.1562L12.8597 60.9466L48.6748 100.8L69.5546 77.5636C70.6864 76.3073 73.0769 75.241 74.7693 75.241H116.529C118.073 75.241 119.142 75.6528 119.459 76.3707C119.776 77.0885 119.374 78.1548 118.338 79.3056L86.542 114.683H72.4211L72.4317 114.672ZM35.5059 63.0792C34.4482 61.9073 34.4482 59.9965 35.5059 58.8246L80.132 9.16365C81.2321 7.93902 82.6812 7.27392 84.2255 7.27392C85.7698 7.27392 87.2189 7.94958 88.319 9.16365L119.279 43.6117C120.305 44.7625 120.718 45.8287 120.39 46.5466C120.072 47.2645 119.004 47.6763 117.46 47.6763H70.5383L79.1166 38.1326H99.531L84.2149 21.1038L48.3998 60.9466L61.2408 75.2305L53.8366 83.4756L35.4954 63.0792H35.5059Z" fill="#F3CB45"/>
</g>
<defs>
<clipPath id="clip0_18_123">
<rect width="120" height="120" fill="white" transform="translate(0.5 0.957275)"/>
</clipPath>
</defs>
</svg>
