<?xml version="1.0" encoding="UTF-8"?><svg width="161px" height="116px" viewBox="0 0 161 116" version="1.1" xmlns="http://www.w3.org/2000/svg" xmlns:xlink="http://www.w3.org/1999/xlink"><title>E8 - gradient</title><defs><linearGradient x1="13.3%" y1="99.7612556%" x2="87.5%" y2="6.3096176%" id="linearGradient-1"><stop stop-color="#FE89CE" offset="0%"/><stop stop-color="#30D5F1" offset="100%"/></linearGradient></defs><g id="Blog" stroke="none" stroke-width="1" fill="none" fill-rule="evenodd"><g id="iMac-21.5&quot;" transform="translate(-1596.000000, -225.000000)" fill="url(#linearGradient-1)" fill-rule="nonzero"><g id="E8---gradient" transform="translate(1596.000000, 225.000000)"><path d="M3.19478292,1.84387043 L70.7773906,1.84387043 C72.8705599,1.84387043 73.9718296,2.90545122 73.9718296,5.08488274 L73.9718296,12.7955825 C73.9718296,14.9746709 72.925245,16.0365948 70.7773906,16.0365948 L14.9266421,16.0365948 L14.9266421,51.183016 L61.8554546,51.183016 C63.9486238,51.183016 65.0498936,52.2442537 65.0498936,54.4240284 L65.0498936,61.5195327 C65.0498936,63.6989643 64.003309,64.760545 61.8554546,64.760545 L14.9266421,64.760545 L14.9266421,100.074747 L73.4772556,100.074747 C75.5700809,100.074747 76.6716946,101.136671 76.6716946,103.315759 L76.6716946,111.082729 C76.6716946,113.261817 75.62511,114.323741 73.4772556,114.323741 L3.19478292,114.323741 C1.04658461,114.323741 0,113.260445 0,111.082729 L0,5.02895589 C0,2.90545122 1.04658461,1.84387043 3.19478292,1.84387043 Z M81.7391864,82.3620622 C81.7391864,69.454283 87.8532629,60.1790039 100.026043,54.4240284 C90.497067,49.3949581 85.7235222,41.5354632 85.7054085,30.8455437 C85.7054085,21.5699216 89.0099057,14.138513 95.5649027,8.49504803 C102.1199,2.85158303 110.76669,0 121.507338,0 C132.1933,0 140.840779,2.84952437 147.340059,8.49333248 C153.839339,14.1371406 157.144524,21.5682061 157.144524,30.8455437 C157.144524,41.5179646 152.352522,49.3408612 142.823546,54.4257439 C148.552075,57.1074877 153.013559,60.8511554 156.207998,65.7140463 C159.402437,70.5769372 161,76.1071761 161,82.3095665 C161,92.4228333 157.36464,100.562191 150.093921,106.72764 C142.824119,112.927857 133.313716,116.018588 121.562711,115.999916 C109.665191,115.999916 100.062729,112.907957 92.7553235,106.724209 C85.37489,100.578089 81.7391864,92.4759009 81.7391864,82.3620622 Z M103.385913,96.7225671 C107.957799,100.689942 113.961473,102.701593 121.507338,102.701593 C128.943144,102.701593 134.892134,100.745869 139.408647,96.8344208 C143.92516,92.9229725 146.184104,87.7265792 146.184104,81.2448977 C146.184104,75.0987773 143.925504,70.181332 139.408647,66.3817374 C134.892134,62.6380697 128.943144,60.7382724 121.507338,60.7382724 C113.961473,60.7382724 107.90277,62.6380697 103.275855,66.3817374 C98.6489396,70.1254051 96.3353101,75.0980911 96.3353101,81.2445546 C96.3906831,87.6703092 98.7043126,92.8111188 103.385913,96.7225671 Z M100.026043,32.0172627 C100.026043,37.2695829 102.008466,41.4603222 105.919659,44.5894809 C109.830852,47.7186395 115.063087,49.2828757 121.507338,49.2828757 C127.841645,49.2828757 132.964166,47.7184107 136.874901,44.5894809 C140.730835,41.4603222 142.658459,37.2695829 142.658459,32.0172627 C142.658459,26.4297245 140.73244,21.9593509 136.874901,18.5509012 C133.017361,15.1424514 127.898279,13.4660184 121.507338,13.4660184 C115.063431,13.4660184 109.830508,15.1421083 105.919659,18.5509012 C102.010186,21.9037672 100.026043,26.4297245 100.026043,32.0172627 Z" id="Path_330"/></g></g></g></svg>