<svg width="239" height="286" viewBox="0 0 239 286" fill="none" xmlns="http://www.w3.org/2000/svg">
<path fill-rule="evenodd" clip-rule="evenodd" d="M238.941 0.53772V285.538H0.699768V0.53772H238.941ZM228.241 11.232H11.4056V274.838H228.241V11.232ZM143.73 23.5511L171.952 51.7849L80.1232 143.101L144.058 207.347L157.801 193.807L107.158 142.922L185.735 64.7322L213.997 92.9544L163.684 143.009L214.326 193.922L143.834 263.832L23.644 143.049L143.73 23.5511ZM143.707 38.6764L38.7808 143.084L143.885 248.713L199.183 193.864L148.553 142.974L198.832 92.9371L185.723 79.8401L122.295 142.957L172.972 193.882L143.983 222.45L64.9864 143.067L156.798 51.7677L143.707 38.6764Z" fill="#00C992"/>
</svg>
