<svg xmlns="http://www.w3.org/2000/svg" width="500" height="500" viewBox="0 0 500 500" version="1.1"><path d="M 232.503 107.172 C 201.594 110.693, 171.239 125.631, 148.486 148.518 C 112.868 184.347, 98.666 234.080, 110.089 282.975 C 123.987 342.459, 175.034 387.226, 235.500 392.956 C 241.550 393.529, 247.287 393.999, 248.250 393.999 C 249.909 394, 250 386.477, 250 250 L 250 106 245.250 106.131 C 242.637 106.203, 236.902 106.671, 232.503 107.172" stroke="none" fill="#43146b" fill-rule="evenodd"/><path d="M 221.870 64.482 C 154.474 75.425, 100.158 119.069, 74.992 182.500 C 70.767 193.149, 65.468 214.182, 63.963 226.278 C 62.006 242.002, 63.215 272.632, 66.383 287.569 C 76.840 336.892, 105.073 378.296, 147.535 406.585 C 206.546 445.898, 289.946 447.006, 348.467 409.254 C 396.252 378.428, 426.352 333.020, 435.139 278.500 C 436.892 267.624, 436.905 229.787, 435.158 220 C 427.633 177.824, 410.281 145.150, 379.335 114.880 C 358.294 94.299, 336.689 81.207, 308.802 72.140 C 286.887 65.013, 279.421 63.839, 253.500 63.437 C 237.023 63.182, 228.052 63.478, 221.870 64.482 M 232.503 107.172 C 201.594 110.693, 171.239 125.631, 148.486 148.518 C 112.868 184.347, 98.666 234.080, 110.089 282.975 C 123.987 342.459, 175.034 387.226, 235.500 392.956 C 241.550 393.529, 247.287 393.999, 248.250 393.999 C 249.909 394, 250 386.477, 250 250 L 250 106 245.250 106.131 C 242.637 106.203, 236.902 106.671, 232.503 107.172" stroke="none" fill="#faf3fb" fill-rule="evenodd"/></svg>