<svg width="120" height="120" viewBox="0 0 120 120" fill="none" xmlns="http://www.w3.org/2000/svg">
<path d="M9.73576 86.9325L20.6566 95.4604L21.7226 54.9313L47.328 39.4636V26.9112L9.73576 49.6014V86.9325Z" fill="white"/>
<path d="M60.9247 0.783691L9.19189 30.1309V44.2714L54.5288 17.0562V113.212C54.5288 116.519 57.2264 119.217 60.5331 119.217C63.8398 119.217 66.5374 116.541 66.5374 113.212V17.8612L110.808 43.7276V28.7821L60.9247 0.783691Z" fill="white"/>
<path d="M71.6063 112.255L84.137 105.337V79.1878L110.678 78.2524V47.8392L70.2575 25.8452C70.2575 25.8452 71.5628 110.58 71.6063 112.255ZM81.4612 43.7058L100.41 56.2583V69.0501L81.4612 68.2452V43.7058Z" fill="white"/>
</svg>
