<svg xmlns="http://www.w3.org/2000/svg" width="225" height="225" viewBox="0 0 225 225" version="1.1"><path d="M 170.522 49.016 C 165.728 58.621, 163.123 62.244, 159.500 64.342 C 158.113 65.145, 144.787 65.653, 116 66 L 74.500 66.500 69.500 69.161 C 60.257 74.079, 54.067 83.084, 54.022 91.677 C 54.004 95.031, 54.528 96.270, 56.678 97.962 C 59.334 100.050, 59.795 100.066, 110.428 99.784 L 161.500 99.500 167.120 96.865 C 181.839 89.963, 189.674 75.425, 186.865 60.229 C 185.613 53.452, 183.383 48.878, 178.720 43.516 L 175.256 39.531 170.522 49.016 M 54.421 109.419 C 52.662 110.185, 50.867 111.990, 50.232 113.630 C 48.057 119.255, 39.073 177.063, 39.997 179.492 C 41.809 184.258, 44.392 185, 59.157 185 C 73.914 185, 76.940 184.344, 81.348 180.186 C 83.622 178.042, 97 153.535, 97 151.514 C 97 151.231, 92.690 151, 87.423 151 C 78.171 151, 77.747 150.901, 74.923 148.077 C 73.315 146.469, 72 144.669, 72 144.077 C 72 143.341, 78.771 143, 93.364 143 C 115.858 143, 122.833 142.228, 129.505 138.997 C 138.462 134.661, 146.553 123.568, 147.676 114.084 L 148.240 109.324 130.870 108.665 C 99.989 107.494, 57.889 107.909, 54.421 109.419" stroke="none" fill="#a7f67f" fill-rule="evenodd"/><path d="M -0 112.504 L -0 225.009 112.750 224.754 L 225.500 224.500 225.754 112.250 L 226.009 0 113.004 0 L 0 0 -0 112.504 M 0.483 113 C 0.483 174.875, 0.603 200.188, 0.750 169.250 C 0.897 138.313, 0.897 87.688, 0.750 56.750 C 0.603 25.813, 0.483 51.125, 0.483 113 M 170.522 49.016 C 165.728 58.621, 163.123 62.244, 159.500 64.342 C 158.113 65.145, 144.787 65.653, 116 66 L 74.500 66.500 69.500 69.161 C 60.257 74.079, 54.067 83.084, 54.022 91.677 C 54.004 95.031, 54.528 96.270, 56.678 97.962 C 59.334 100.050, 59.795 100.066, 110.428 99.784 L 161.500 99.500 167.120 96.865 C 181.839 89.963, 189.674 75.425, 186.865 60.229 C 185.613 53.452, 183.383 48.878, 178.720 43.516 L 175.256 39.531 170.522 49.016 M 54.421 109.419 C 52.662 110.185, 50.867 111.990, 50.232 113.630 C 48.057 119.255, 39.073 177.063, 39.997 179.492 C 41.809 184.258, 44.392 185, 59.157 185 C 73.914 185, 76.940 184.344, 81.348 180.186 C 83.622 178.042, 97 153.535, 97 151.514 C 97 151.231, 92.690 151, 87.423 151 C 78.171 151, 77.747 150.901, 74.923 148.077 C 73.315 146.469, 72 144.669, 72 144.077 C 72 143.341, 78.771 143, 93.364 143 C 115.858 143, 122.833 142.228, 129.505 138.997 C 138.462 134.661, 146.553 123.568, 147.676 114.084 L 148.240 109.324 130.870 108.665 C 99.989 107.494, 57.889 107.909, 54.421 109.419" stroke="none" fill="#040404" fill-rule="evenodd"/></svg>