<svg xmlns="http://www.w3.org/2000/svg" width="270" height="270" viewBox="0 0 270 270" version="1.1"><path d="M 141.410 72.077 C 137.894 73.098, 136.041 74.760, 127.167 84.846 C 116.888 96.528, 117.175 96.445, 86.250 96.811 L 60 97.121 60 109.561 L 60 122 76.750 121.955 C 87.760 121.925, 94.496 121.485, 96.407 120.669 C 98.006 119.986, 102.513 115.619, 106.422 110.964 C 111.619 104.776, 114.986 101.761, 118.945 99.750 L 124.359 97 166.679 97 L 209 97 209 84 L 209 71 176.750 71.090 C 159.012 71.140, 143.109 71.584, 141.410 72.077 M 139.567 123.966 C 137.417 125.062, 134.278 127.655, 132.591 129.729 C 126.041 137.780, 120.384 143.278, 116.525 145.345 C 112.748 147.367, 110.881 147.520, 86.220 147.824 L 59.940 148.148 60.220 160.324 L 60.500 172.500 76.741 172.775 C 95.991 173.100, 98.131 172.403, 104.930 163.590 C 109.983 157.041, 116.039 151.387, 119.802 149.705 C 121.710 148.853, 135.085 148.354, 165.500 148 L 208.500 147.500 208.500 135 L 208.500 122.500 175.988 122.237 C 145.202 121.987, 143.268 122.079, 139.567 123.966 M 141.741 174.429 C 139.673 175.167, 137.233 176.385, 136.318 177.135 C 133.724 179.264, 119 197.328, 119 198.382 C 119 198.965, 131.290 199.072, 151.250 198.663 C 168.988 198.300, 189.238 198.003, 196.250 198.002 L 209 198 209 186.154 L 209 174.309 196.250 173.658 C 174.216 172.535, 145.929 172.935, 141.741 174.429" stroke="none" fill="#3fb2cd" fill-rule="evenodd"/><path d="M 108 2.082 C 88.931 6.178, 71.400 13.873, 55.808 24.993 C 45.355 32.448, 30.472 47.622, 23.193 58.247 C 15.205 69.905, 7.379 87.024, 3.803 100.661 C 0.985 111.406, 0.658 114.256, 0.263 131.500 C -0.118 148.129, 0.096 151.810, 1.978 161 C 6.020 180.737, 13.556 198.156, 24.993 214.192 C 32.448 224.645, 47.622 239.528, 58.247 246.807 C 69.905 254.795, 87.024 262.621, 100.661 266.197 C 111.406 269.015, 114.256 269.342, 131.500 269.737 C 148.129 270.118, 151.810 269.904, 161 268.022 C 189.134 262.261, 212.652 249.421, 232.192 229.154 C 243.619 217.302, 250.443 207.484, 257.604 192.592 C 262.768 181.853, 269 161.543, 269 155.452 C 269 154.168, 269.450 152.840, 270 152.500 C 270.607 152.125, 271 144.767, 271 133.774 C 271 123.815, 270.689 115.977, 270.309 116.357 C 269.930 116.737, 268.777 112.875, 267.748 107.774 C 264.051 89.442, 256.200 71.503, 245.007 55.808 C 237.552 45.355, 222.378 30.472, 211.753 23.193 C 200.106 15.213, 182.976 7.380, 169.339 3.798 C 158.324 0.905, 156.108 0.666, 137.500 0.365 C 120.318 0.087, 116.161 0.329, 108 2.082 M 141.410 72.077 C 137.894 73.098, 136.041 74.760, 127.167 84.846 C 116.888 96.528, 117.175 96.445, 86.250 96.811 L 60 97.121 60 109.561 L 60 122 76.750 121.955 C 87.760 121.925, 94.496 121.485, 96.407 120.669 C 98.006 119.986, 102.513 115.619, 106.422 110.964 C 111.619 104.776, 114.986 101.761, 118.945 99.750 L 124.359 97 166.679 97 L 209 97 209 84 L 209 71 176.750 71.090 C 159.012 71.140, 143.109 71.584, 141.410 72.077 M 0.415 135 C 0.415 145.175, 0.564 149.338, 0.745 144.250 C 0.927 139.162, 0.927 130.837, 0.745 125.750 C 0.564 120.662, 0.415 124.825, 0.415 135 M 139.567 123.966 C 137.417 125.062, 134.278 127.655, 132.591 129.729 C 126.041 137.780, 120.384 143.278, 116.525 145.345 C 112.748 147.367, 110.881 147.520, 86.220 147.824 L 59.940 148.148 60.220 160.324 L 60.500 172.500 76.741 172.775 C 95.991 173.100, 98.131 172.403, 104.930 163.590 C 109.983 157.041, 116.039 151.387, 119.802 149.705 C 121.710 148.853, 135.085 148.354, 165.500 148 L 208.500 147.500 208.500 135 L 208.500 122.500 175.988 122.237 C 145.202 121.987, 143.268 122.079, 139.567 123.966 M 141.741 174.429 C 139.673 175.167, 137.233 176.385, 136.318 177.135 C 133.724 179.264, 119 197.328, 119 198.382 C 119 198.965, 131.290 199.072, 151.250 198.663 C 168.988 198.300, 189.238 198.003, 196.250 198.002 L 209 198 209 186.154 L 209 174.309 196.250 173.658 C 174.216 172.535, 145.929 172.935, 141.741 174.429" stroke="none" fill="#0c152d" fill-rule="evenodd"/></svg>