<svg width="120" height="120" viewBox="0 0 120 120" fill="none" xmlns="http://www.w3.org/2000/svg">
<g clip-path="url(#clip0_323_78)">
<path fill-rule="evenodd" clip-rule="evenodd" d="M103.682 15.7473C103.682 29.2283 83.402 40.2084 58.3548 40.2084C33.3076 40.2084 13.0666 29.2283 13.0666 15.7473C13.0666 9.72973 17.0523 4.2592 23.6951 0C9.54985 5.93943 0.40625 15.3956 0.40625 26.0632C0.40625 44.0378 26.3522 58.5738 58.3939 58.5738C90.4356 58.5738 116.382 43.9987 116.382 26.0632C116.382 15.3956 107.238 5.93943 93.0927 0C99.7355 4.2592 103.721 9.72973 103.721 15.7473H103.682ZM58.3939 120H50.9696C45.3428 120 40.4584 116.053 39.2861 110.583L37.3323 101.244L31.1194 72.1719C31.1194 72.1719 24.164 71.5858 12.9494 68.4207C1.73481 65.2556 -0.41433 55.7213 1.18775 50.8369C2.28186 47.4764 3.45412 44.8583 3.45412 44.8583C18.3418 58.5738 32.2526 61.3872 48.5079 62.6767L51.3213 75.9622L56.3229 99.72C56.5183 100.619 57.3388 101.244 58.3939 101.244V120ZM58.3939 120H65.8182C71.445 120 76.3294 116.053 77.5017 110.583L79.4554 101.244L85.6684 72.1719C85.6684 72.1719 92.6238 71.5858 103.838 68.4207C115.053 65.2556 117.202 55.7213 115.639 50.8759C114.545 47.5155 113.373 44.8974 113.373 44.8974C98.4851 58.6128 84.5743 61.4262 68.319 62.7157L65.5056 76.0013L60.5039 99.759C60.3086 100.658 59.488 101.283 58.433 101.283V120.039L58.3939 120Z" fill="white"/>
</g>
<defs>
<clipPath id="clip0_323_78">
<rect width="120" height="120" fill="white"/>
</clipPath>
</defs>
</svg>
