<svg width="186" height="177" viewBox="0 0 186 177" fill="none" xmlns="http://www.w3.org/2000/svg">
<path d="M0.439453 81.9858V78.653C1.58357 73.0816 3.36193 68.4344 5.77453 64.7121C13.7585 52.4088 23.5332 40.9178 35.0988 30.2394C42.0796 23.7975 49.1474 17.3432 56.3023 10.8764C56.4776 10.72 56.5922 10.5064 56.6262 10.2724C56.6603 10.0385 56.6117 9.79906 56.4888 9.59548L51.1538 0.865395C51.1204 0.808222 51.1023 0.743193 51.1013 0.677005C51.1003 0.610818 51.1165 0.545854 51.1482 0.488838C51.1799 0.431821 51.2258 0.384809 51.2815 0.352627C51.3371 0.320452 51.4003 0.304259 51.4647 0.30576H88.1881C88.2727 0.30705 88.3555 0.328338 88.4305 0.367884C88.505 0.407436 88.5692 0.464116 88.6178 0.533281C88.6664 0.602445 88.6976 0.682107 88.7096 0.765772C88.7216 0.849442 88.7132 0.934733 88.6856 1.01462L75.2794 39.0566C75.25 39.1434 75.196 39.2199 75.1246 39.2774C75.0532 39.3349 74.9668 39.371 74.8761 39.3814C74.7849 39.3918 74.6925 39.3762 74.6096 39.3363C74.5274 39.2964 74.4578 39.2339 74.4092 39.156L68.2904 29.0579C68.1085 28.7594 67.8679 28.7055 67.5696 28.8963C51.3362 39.4918 37.1963 50.5599 25.1499 62.1007C19.2925 67.7214 2.82718 86.0772 17.5018 92.109C19.0935 92.7554 20.6605 93.4102 22.2026 94.074C22.899 94.3723 22.87 94.5133 22.1155 94.4965C13.0496 94.3099 2.16807 91.935 0.439453 81.9858Z" fill="white"/>
<path d="M46.5417 79.2601C46.4693 79.2691 46.4 79.2962 46.3404 79.3382C46.2807 79.3802 46.2326 79.436 46.2003 79.5002C46.1681 79.5644 46.1529 79.6359 46.1561 79.7067C46.1592 79.7775 46.1807 79.8465 46.2184 79.9071C58.0075 99.6926 66.9868 120.038 70.568 142.311C70.5848 142.444 70.5308 142.522 70.4066 142.548C70.2739 142.581 70.1869 142.535 70.1455 142.411C61.4525 116.494 48.9171 92.8404 30.4743 72.6318C30.4039 72.5532 30.357 72.4565 30.3391 72.3527C30.3213 72.2483 30.3332 72.1414 30.3735 72.0442C30.4138 71.9464 30.4809 71.8624 30.5669 71.8017C30.6529 71.7405 30.7545 71.7051 30.8599 71.6991C60.4574 69.9952 90.4657 61.4769 111.843 41.4919C113.004 40.4058 113.634 40.6545 113.734 42.238C114.099 48.1908 114.285 51.2045 114.293 51.2791C114.336 51.9791 114.211 52.6795 113.927 53.322C113.643 53.9645 113.211 54.5304 112.664 54.9726C94.3831 69.8086 69.7848 76.9099 46.5417 79.2601Z" fill="#635BFF"/>
<path d="M72.3787 94.5117C81.445 119.509 86.1954 146.769 82.9995 173.319C82.4521 177.854 82.0998 177.838 81.9426 173.269C80.9643 143.713 73.7886 114.874 60.4154 86.752C60.1831 86.2545 60.3368 85.964 60.8757 85.8812C90.1374 81.4044 115.756 69.1422 136.114 48.1876C136.645 47.6404 136.91 47.7482 136.91 48.5109V85.5457C136.91 87.983 136.624 88.016 136.052 85.6447L131.226 65.66C131.211 65.588 131.176 65.5208 131.127 65.4661C131.077 65.4109 131.013 65.3707 130.943 65.3479C130.872 65.3251 130.797 65.3215 130.724 65.3371C130.652 65.3527 130.585 65.3869 130.53 65.4361C114.371 79.0914 95.1783 88.4349 72.9507 93.4674C72.3709 93.6001 72.1801 93.9482 72.3787 94.5117Z" fill="#635BFF"/>
<path d="M121.212 123.577C134.486 117.633 146.3 111.373 156.655 104.799C160.568 102.319 164.618 99.2063 168.805 95.4594C171.516 93.0215 173.58 90.5554 174.999 88.0599C178.854 81.2574 174.414 77.738 168.718 74.8031C167.624 74.239 167.686 74.0607 168.904 74.2684C174.613 75.2257 182.136 77.9121 184.562 83.2098C192.832 101.254 140.265 133.215 127.952 140.614C127.741 140.745 127.582 140.945 127.504 141.18C127.427 141.414 127.436 141.668 127.53 141.896L130.726 149.855C130.983 150.476 130.78 150.729 130.117 150.613L99.3 145.216C99.204 145.2 99.1127 145.161 99.0341 145.103C98.9561 145.045 98.8931 144.969 98.8505 144.881C98.8078 144.793 98.7868 144.697 98.7892 144.599C98.7916 144.502 98.8175 144.406 98.8649 144.32L115.517 114.076C115.84 113.495 116.126 113.512 116.374 114.126L120.043 123.105C120.267 123.668 120.657 123.826 121.212 123.577Z" fill="white"/>
</svg>
