<svg xmlns="http://www.w3.org/2000/svg" width="500" height="390" viewBox="0 0 500 390" version="1.1"><path d="M 239.913 48.746 C 236.526 51.080, 235.069 53.148, 235.032 55.677 C 234.999 57.897, 239.230 62, 241.552 62 C 242.257 62, 243.060 62.563, 243.338 63.250 C 243.615 63.938, 243.878 60.814, 243.921 56.309 C 243.964 51.804, 243.623 47.885, 243.163 47.601 C 242.703 47.316, 241.240 47.831, 239.913 48.746 M 489.500 107.972 C 480.881 110.479, 468.779 114.939, 467.329 116.142 C 466.646 116.709, 465.505 116.845, 464.794 116.445 C 464.082 116.045, 464.175 116.364, 465 117.154 C 465.825 117.944, 474.038 125.966, 483.250 134.980 L 500 151.370 500 128.685 L 500 106 497.750 106.113 C 496.512 106.176, 492.800 107.012, 489.500 107.972 M 297.251 120.973 C 291.901 123.401, 289.923 127.069, 292.552 129.689 C 294.116 131.248, 296.040 131.487, 306.383 131.403 C 314.491 131.338, 318.523 130.932, 318.782 130.153 C 318.994 129.519, 319.804 129, 320.583 129 C 322.763 129, 322.263 125.586, 319.750 123.313 C 314.705 118.748, 304.492 117.686, 297.251 120.973 M 233.067 136.255 C 227.935 138.722, 224.699 139.501, 217.067 140.105 C 210.904 140.594, 205.187 141.741, 201 143.329 C 197.425 144.685, 191.800 146.117, 188.500 146.512 C 185.200 146.907, 177.550 148.490, 171.500 150.029 C 165.450 151.569, 157.575 153.350, 154 153.988 C 147.032 155.231, 138.745 158.778, 139.595 160.154 C 139.880 160.615, 140.294 162.007, 140.514 163.246 C 141.123 166.672, 153.959 178.205, 161.679 182.262 C 170.490 186.892, 181.283 189.875, 192.038 190.652 C 200.179 191.241, 200.713 191.151, 203.538 188.722 C 206.352 186.301, 206.500 185.783, 206.500 178.337 C 206.500 165.981, 204.911 163.681, 190 154.454 L 184.500 151.051 193.091 151.026 C 210.625 150.973, 219.740 156.536, 225.646 170.892 C 226.914 173.977, 227.995 175.825, 228.047 175 C 228.119 173.845, 228.298 173.896, 228.825 175.226 C 229.442 176.782, 230.014 176.663, 234.666 174.006 C 242.250 169.675, 243 167.539, 243 150.275 C 243 139.113, 242.677 135.535, 241.571 134.429 C 240.786 133.643, 239.998 133.037, 239.821 133.082 C 239.645 133.126, 236.605 134.555, 233.067 136.255 M 384.313 160.250 C 383.193 161.488, 380.594 165.425, 378.537 169 C 376.480 172.575, 373.162 177.525, 371.165 180 C 364.182 188.651, 348.417 204.325, 338.354 212.622 C 323.336 225.006, 309.749 241.926, 302.317 257.500 C 298.906 264.649, 298.500 266.328, 298.500 273.285 C 298.500 283.955, 299.509 284.300, 307.841 276.484 C 338.860 247.387, 351.367 235.424, 370.155 216.877 C 394.519 192.825, 393.003 195.397, 392.994 178.125 C 392.985 160.557, 389.859 154.120, 384.313 160.250 M 154.500 297.031 C 149.550 298.657, 141.365 301.168, 136.311 302.612 C 131.257 304.057, 126.886 305.854, 126.598 306.606 C 126.309 307.358, 127.069 309.065, 128.286 310.400 C 130.069 312.353, 134.731 313.914, 152.217 318.413 C 164.161 321.486, 174.653 324, 175.534 324 C 176.746 324, 176.956 323.453, 176.398 321.750 C 175.993 320.512, 174.001 313.906, 171.971 307.069 C 167.602 292.348, 168.025 292.591, 154.500 297.031 M 333.494 344.006 C 332.496 345.110, 331.498 345.831, 331.276 345.610 C 331.055 345.388, 326.725 347.973, 321.653 351.354 C 316.582 354.734, 310.198 358.489, 307.466 359.697 C 292.161 366.469, 280.875 371.003, 276.711 372.051 C 274.120 372.704, 272 373.661, 272 374.178 C 272 374.695, 271.438 374.836, 270.750 374.490 C 269.351 373.788, 274.781 378.869, 282.818 385.784 L 288.136 390.359 312.315 366.180 C 325.614 352.881, 336.228 342, 335.902 342 C 335.577 342, 334.493 342.903, 333.494 344.006" stroke="none" fill="#7e8282" fill-rule="evenodd"/><path d="M 124.597 1.543 C 114.720 3.406, 100.993 7.965, 92.777 12.111 C 76.390 20.381, 59.713 34.955, 48.850 50.500 C 45.775 54.900, 35.664 66.381, 26.380 76.013 C 1.897 101.414, 0 104.181, 0 114.500 C -0 122.822, 2.082 126.520, 12.385 136.500 C 20.011 143.887, 22.097 146.575, 24.021 151.500 C 28.477 162.901, 27.880 162.678, 37.422 156.522 L 45.702 151.180 46.330 162.840 C 48.105 195.833, 55.673 215.306, 78.364 245.274 C 118.496 298.276, 129.474 312.003, 127.398 306.595 C 127.056 305.705, 128.893 304.737, 133.199 303.538 C 136.665 302.573, 145.091 300.014, 151.924 297.852 C 158.758 295.689, 164.931 294.143, 165.642 294.416 C 167.944 295.300, 167.938 293.502, 165.610 285.931 C 164.354 281.844, 162.991 277.150, 162.582 275.500 C 162.002 273.163, 169.427 280.019, 196.169 306.511 C 236.565 346.530, 272 378.137, 272 374.151 C 272 373.648, 274.120 372.704, 276.711 372.051 C 280.875 371.003, 292.161 366.469, 307.466 359.697 C 310.198 358.489, 316.582 354.734, 321.653 351.354 C 326.725 347.973, 331.131 345.464, 331.444 345.778 C 331.758 346.092, 358.782 319.627, 391.498 286.969 C 433.996 244.544, 451.294 226.638, 452.079 224.259 C 452.819 222.020, 453.231 202.143, 453.339 163.557 L 453.500 106.186 459.176 111.593 C 465.068 117.206, 465.937 117.663, 467.587 116.013 C 468.882 114.718, 486.916 108.523, 494.250 106.854 L 500 105.545 500 56.273 L 500 7 475.250 6.872 C 461.637 6.802, 389.300 6.415, 314.500 6.013 L 178.500 5.282 170.500 3.061 C 159.911 0.122, 136.272 -0.660, 124.597 1.543 M 133.500 20.637 C 124.210 22.114, 112.746 25.492, 105.504 28.885 C 89.224 36.514, 78.063 45.733, 66.788 60.866 C 62.840 66.165, 52.132 78.150, 42.993 87.500 C 33.853 96.850, 25.166 105.997, 23.688 107.827 C 19.844 112.584, 20.126 116.237, 24.603 119.707 C 26.585 121.243, 30.509 124.375, 33.323 126.667 C 39.299 131.534, 40.453 131.315, 44.409 124.565 C 47.085 119.999, 50.763 118.073, 57 117.970 C 58.375 117.947, 62.181 117.289, 65.458 116.506 C 68.736 115.724, 71.622 115.288, 71.872 115.539 C 72.123 115.790, 71.070 123.821, 69.532 133.387 C 63.976 167.954, 67.743 191.596, 82.724 216.185 C 88.485 225.641, 133.397 284.315, 139.965 290.966 L 145.429 296.500 145.802 293.533 C 146.473 288.187, 142.946 273.447, 138.016 261 C 136.818 257.975, 132.906 248.831, 129.323 240.679 C 125.740 232.528, 122.994 225.673, 123.220 225.447 C 123.446 225.220, 126.615 226.620, 130.262 228.556 C 133.909 230.492, 143.104 234.791, 150.696 238.108 C 158.914 241.698, 165.849 245.426, 167.834 247.319 C 169.667 249.069, 184.967 266.166, 201.834 285.313 L 232.500 320.126 233.117 291.813 C 233.703 264.941, 234.589 254.488, 237.144 244.343 C 238.523 238.866, 237.769 229.387, 235.624 225.240 C 234.747 223.543, 232.158 219.993, 229.871 217.351 L 225.713 212.546 226.526 199.523 C 226.973 192.360, 227.445 184.250, 227.575 181.500 C 227.942 173.688, 228.034 173.230, 228.825 175.226 C 229.441 176.779, 230.035 176.651, 234.796 173.932 C 237.804 172.214, 240.604 169.746, 241.291 168.206 C 242.254 166.051, 242.602 181.599, 243 244.528 L 243.500 323.555 246.018 328.448 C 247.990 332.279, 250.485 334.742, 257.518 339.798 C 262.458 343.350, 270.325 349.303, 275 353.028 L 283.500 359.801 283.755 265.901 L 284.010 172 296.255 171.763 C 319.893 171.306, 324.976 172.340, 329.905 178.607 L 332 181.270 332 151.432 L 332 121.594 328.250 125.179 C 323.204 130.002, 319 132.193, 319 130 C 319 129.450, 319.675 129, 320.500 129 C 322.750 129, 322.305 125.625, 319.750 123.313 C 314.705 118.748, 304.492 117.686, 297.251 120.973 C 292.789 122.998, 289.306 127.935, 291.762 128.754 C 294.586 129.695, 292.691 131, 288.500 131 L 284 131 284 99 L 284 67 295.250 66.799 C 316.484 66.421, 318.543 67.177, 325.462 77.892 C 327.808 81.526, 331.814 87.166, 334.364 90.425 L 339 96.350 339 61.675 L 339 27 285.288 27 L 231.575 27 236.231 31.750 C 243.552 39.220, 245.040 45.442, 240.250 48.560 C 236.610 50.929, 235.070 53.029, 235.032 55.677 C 234.999 57.897, 239.230 62, 241.552 62 C 242.257 62, 243.036 62.562, 243.283 63.250 C 243.842 64.804, 242.907 134.322, 242.319 134.971 C 242.084 135.230, 241.544 134.880, 241.119 134.192 C 240.536 133.249, 238.669 133.728, 233.506 136.144 C 228.033 138.705, 224.750 139.497, 217.083 140.104 C 210.905 140.594, 205.191 141.739, 201 143.329 C 197.425 144.685, 191.800 146.117, 188.500 146.512 C 185.200 146.907, 177.550 148.490, 171.500 150.029 C 165.450 151.569, 157.575 153.350, 154 153.988 C 150.425 154.626, 145.609 156.083, 143.297 157.227 C 139.732 158.992, 139.244 159.588, 140.082 161.154 C 140.626 162.169, 140.694 163, 140.234 163 C 138.792 163, 130.283 147.901, 126.448 138.537 C 124.429 133.607, 121.703 125.343, 120.392 120.172 C 117.648 109.355, 115.546 89.511, 116.483 83.264 C 117.094 79.189, 117.009 79, 114.561 79 C 113.153 79, 112 78.722, 112 78.382 C 112 78.043, 115.211 74.203, 119.135 69.851 C 123.059 65.498, 126.007 61.674, 125.686 61.353 C 125.366 61.032, 121.367 61.459, 116.802 62.300 C 112.236 63.142, 108.282 63.613, 108.015 63.347 C 107.259 62.593, 111.980 59.249, 117.676 56.505 C 130.209 50.467, 147.968 49.281, 164.200 53.399 C 191.400 60.299, 208.994 78.042, 217.324 106.976 L 219.764 115.452 221.084 109.476 C 222.969 100.937, 222.710 82.966, 220.587 75 C 212.043 42.942, 183.690 21.817, 147.500 20.546 C 141.450 20.334, 135.150 20.375, 133.500 20.637 M 413.250 27.750 L 347 28.014 347.024 62.257 L 347.049 96.500 351.774 91.005 C 364.713 75.959, 370.867 69.388, 373.074 68.265 C 374.408 67.585, 379.160 67.023, 383.633 67.015 C 391.229 67.001, 391.807 67.149, 392.370 69.250 C 392.701 70.487, 392.932 92.875, 392.883 119 C 392.820 152.237, 392.497 165.386, 391.806 162.789 C 390.614 158.305, 387.754 157.008, 384.852 159.634 C 383.749 160.632, 381.251 164.302, 379.301 167.789 C 377.351 171.277, 373.917 176.464, 371.671 179.315 C 364.754 188.096, 349.006 203.839, 338.354 212.622 C 323.336 225.006, 309.749 241.926, 302.317 257.500 C 298.906 264.649, 298.500 266.328, 298.500 273.285 C 298.500 278.650, 298.910 281.323, 299.819 281.886 C 300.899 282.555, 300.849 283.590, 299.545 287.602 C 298.206 291.719, 297.996 297.201, 298.226 322 L 298.500 351.500 364.500 285.201 C 406.988 242.521, 430.925 217.762, 431.694 215.701 C 432.576 213.335, 432.902 193.678, 432.944 140.367 L 433 68.233 435.250 67.630 C 436.488 67.299, 440.224 67.021, 443.554 67.014 C 451.512 66.996, 458.665 70.483, 463.721 76.845 C 465.756 79.405, 470.251 84.494, 473.710 88.153 L 480 94.806 480 60.903 C 480 42.256, 479.887 27.109, 479.750 27.243 C 479.613 27.376, 449.688 27.604, 413.250 27.750" stroke="none" fill="#f8f8f8" fill-rule="evenodd"/></svg>