<svg xmlns="http://www.w3.org/2000/svg" width="178" height="112" viewBox="0 0 178 112" version="1.1"><path d="M 9.558 15.907 C 9.249 16.405, 9.898 16.578, 10.999 16.290 C 13.334 15.679, 13.629 15, 11.559 15 C 10.766 15, 9.866 15.408, 9.558 15.907 M 164.189 15.619 C 165.117 15.896, 166.104 16.883, 166.381 17.811 C 166.747 19.036, 166.829 18.954, 166.681 17.511 C 166.561 16.346, 165.654 15.439, 164.489 15.319 C 163.046 15.171, 162.964 15.253, 164.189 15.619 M 14.500 17 C 14.840 17.550, 15.343 18, 15.618 18 C 15.893 18, 15.840 17.550, 15.500 17 C 15.160 16.450, 14.657 16, 14.382 16 C 14.107 16, 14.160 16.450, 14.500 17 M 160.405 17.155 C 159.962 17.870, 160.130 18.038, 160.845 17.595 C 161.480 17.203, 162 16.684, 162 16.441 C 162 15.607, 161.117 16.002, 160.405 17.155 M 17 18.430 C 17 18.705, 17.900 19.411, 19 20 C 20.100 20.589, 21 20.845, 21 20.570 C 21 20.295, 20.100 19.589, 19 19 C 17.900 18.411, 17 18.155, 17 18.430 M 156.441 19.555 C 154.577 21.049, 154.589 21.067, 156.750 20.020 C 157.988 19.420, 159 18.720, 159 18.465 C 159 17.700, 158.481 17.921, 156.441 19.555 M 11.500 22 C 11.840 22.550, 12.343 23, 12.618 23 C 12.893 23, 12.840 22.550, 12.500 22 C 12.160 21.450, 11.657 21, 11.382 21 C 11.107 21, 11.160 21.450, 11.500 22 M 22.500 22 C 22.840 22.550, 23.343 23, 23.618 23 C 23.893 23, 23.840 22.550, 23.500 22 C 23.160 21.450, 22.657 21, 22.382 21 C 22.107 21, 22.160 21.450, 22.500 22 M 152.405 22.155 C 151.962 22.870, 152.130 23.038, 152.845 22.595 C 153.998 21.883, 154.393 21, 153.559 21 C 153.316 21, 152.797 21.520, 152.405 22.155 M 163.405 22.155 C 162.962 22.870, 163.130 23.038, 163.845 22.595 C 164.480 22.203, 165 21.684, 165 21.441 C 165 20.607, 164.117 21.002, 163.405 22.155 M 28.500 26 C 28.840 26.550, 29.343 27, 29.618 27 C 29.893 27, 29.840 26.550, 29.500 26 C 29.160 25.450, 28.657 25, 28.382 25 C 28.107 25, 28.160 25.450, 28.500 26 M 146.405 26.155 C 145.962 26.870, 146.130 27.038, 146.845 26.595 C 147.480 26.203, 148 25.684, 148 25.441 C 148 24.607, 147.117 25.002, 146.405 26.155 M 15.500 27 C 15.840 27.550, 16.343 28, 16.618 28 C 16.893 28, 16.840 27.550, 16.500 27 C 16.160 26.450, 15.657 26, 15.382 26 C 15.107 26, 15.160 26.450, 15.500 27 M 159.405 27.155 C 158.962 27.870, 159.130 28.038, 159.845 27.595 C 160.998 26.883, 161.393 26, 160.559 26 C 160.316 26, 159.797 26.520, 159.405 27.155 M 142.441 28.555 C 140.577 30.049, 140.589 30.067, 142.750 29.020 C 143.988 28.420, 145 27.720, 145 27.465 C 145 26.700, 144.481 26.921, 142.441 28.555 M 33.500 29 C 33.840 29.550, 34.343 30, 34.618 30 C 34.893 30, 34.840 29.550, 34.500 29 C 34.160 28.450, 33.657 28, 33.382 28 C 33.107 28, 33.160 28.450, 33.500 29 M 17 29.378 C 17 29.585, 17.788 30.373, 18.750 31.128 C 20.336 32.371, 20.371 32.336, 19.128 30.750 C 17.821 29.084, 17 28.555, 17 29.378 M 156.405 31.155 C 155.962 31.870, 156.130 32.038, 156.845 31.595 C 157.480 31.203, 158 30.684, 158 30.441 C 158 29.607, 157.117 30.002, 156.405 31.155 M 38.500 32 C 38.840 32.550, 39.343 33, 39.618 33 C 39.893 33, 39.840 32.550, 39.500 32 C 39.160 31.450, 38.657 31, 38.382 31 C 38.107 31, 38.160 31.450, 38.500 32 M 136.405 32.155 C 135.962 32.870, 136.130 33.038, 136.845 32.595 C 137.480 32.203, 138 31.684, 138 31.441 C 138 30.607, 137.117 31.002, 136.405 32.155 M 148 31.892 C 148 32.566, 147.581 32.859, 147.069 32.543 C 146.557 32.226, 145.875 32.394, 145.553 32.915 C 145.231 33.436, 145.374 34.113, 145.870 34.420 C 146.971 35.100, 149.545 32.212, 148.643 31.309 C 148.289 30.956, 148 31.218, 148 31.892 M 27 32.544 C 27 32.660, 27.600 33.253, 28.333 33.862 C 29.330 34.689, 29.667 34.635, 29.667 33.651 C 29.667 32.926, 29.067 32.333, 28.333 32.333 C 27.600 32.333, 27 32.428, 27 32.544 M 41 33.430 C 41 33.705, 41.900 34.411, 43 35 C 44.100 35.589, 45 35.845, 45 35.570 C 45 35.295, 44.100 34.589, 43 34 C 41.900 33.411, 41 33.155, 41 33.430 M 132.441 34.555 C 130.577 36.049, 130.589 36.067, 132.750 35.020 C 133.988 34.420, 135 33.720, 135 33.465 C 135 32.700, 134.481 32.921, 132.441 34.555 M 21 34.378 C 21 34.585, 21.788 35.373, 22.750 36.128 C 24.336 37.371, 24.371 37.336, 23.128 35.750 C 21.821 34.084, 21 33.555, 21 34.378 M 152.872 35.750 C 151.629 37.336, 151.664 37.371, 153.250 36.128 C 154.916 34.821, 155.445 34, 154.622 34 C 154.415 34, 153.627 34.788, 152.872 35.750 M 34.500 36 C 34.840 36.550, 35.343 37, 35.618 37 C 35.893 37, 35.840 36.550, 35.500 36 C 35.160 35.450, 34.657 35, 34.382 35 C 34.107 35, 34.160 35.450, 34.500 36 M 46.500 37 C 46.840 37.550, 47.343 38, 47.618 38 C 47.893 38, 47.840 37.550, 47.500 37 C 47.160 36.450, 46.657 36, 46.382 36 C 46.107 36, 46.160 36.450, 46.500 37 M 37.500 38 C 37.840 38.550, 38.343 39, 38.618 39 C 38.893 39, 38.840 38.550, 38.500 38 C 38.160 37.450, 37.657 37, 37.382 37 C 37.107 37, 37.160 37.450, 37.500 38 M 137.405 38.155 C 136.962 38.870, 137.130 39.038, 137.845 38.595 C 138.998 37.883, 139.393 37, 138.559 37 C 138.316 37, 137.797 37.520, 137.405 38.155 M 24.500 39 C 24.840 39.550, 25.343 40, 25.618 40 C 25.893 40, 25.840 39.550, 25.500 39 C 25.160 38.450, 24.657 38, 24.382 38 C 24.107 38, 24.160 38.450, 24.500 39 M 126 39 C 126 39.615, 125.547 39.838, 124.993 39.496 C 124.439 39.153, 123.717 39.574, 123.388 40.431 C 123.059 41.288, 122.388 41.740, 121.895 41.435 C 121.403 41.131, 121 41.385, 121 42 C 121 42.615, 120.581 42.859, 120.069 42.543 C 119.557 42.226, 118.876 42.392, 118.555 42.912 C 118.234 43.431, 118.836 44.131, 119.893 44.466 C 122.199 45.198, 123.533 48, 121.576 48 C 120.827 48, 119.957 48.669, 119.644 49.486 C 119.326 50.315, 121.488 49.368, 124.537 47.344 C 127.542 45.349, 130 43.504, 130 43.243 C 130 42.983, 128.891 43.497, 127.535 44.385 C 124.705 46.239, 124 46.375, 124 45.067 C 124 44.554, 124.900 43.849, 126 43.500 C 128.083 42.839, 128.736 39.573, 127 38.500 C 126.450 38.160, 126 38.385, 126 39 M 150.405 39.155 C 149.962 39.870, 150.130 40.038, 150.845 39.595 C 151.998 38.883, 152.393 38, 151.559 38 C 151.316 38, 150.797 38.520, 150.405 39.155 M 40.500 40 C 40.840 40.550, 41.343 41, 41.618 41 C 41.893 41, 41.840 40.550, 41.500 40 C 41.160 39.450, 40.657 39, 40.382 39 C 40.107 39, 40.160 39.450, 40.500 40 M 51.500 40 C 51.840 40.550, 52.343 41, 52.618 41 C 52.893 41, 52.840 40.550, 52.500 40 C 52.160 39.450, 51.657 39, 51.382 39 C 51.107 39, 51.160 39.450, 51.500 40 M 134.405 40.155 C 133.962 40.870, 134.130 41.038, 134.845 40.595 C 135.998 39.883, 136.393 39, 135.559 39 C 135.316 39, 134.797 39.520, 134.405 40.155 M 43.500 42 C 43.840 42.550, 44.343 43, 44.618 43 C 44.893 43, 44.840 42.550, 44.500 42 C 44.160 41.450, 43.657 41, 43.382 41 C 43.107 41, 43.160 41.450, 43.500 42 M 131.405 42.155 C 130.962 42.870, 131.130 43.038, 131.845 42.595 C 132.998 41.883, 133.393 41, 132.559 41 C 132.316 41, 131.797 41.520, 131.405 42.155 M 27.500 43 C 27.840 43.550, 28.343 44, 28.618 44 C 28.893 44, 28.840 43.550, 28.500 43 C 28.160 42.450, 27.657 42, 27.382 42 C 27.107 42, 27.160 42.450, 27.500 43 M 56.500 43 C 56.840 43.550, 57.343 44, 57.618 44 C 57.893 44, 57.840 43.550, 57.500 43 C 57.160 42.450, 56.657 42, 56.382 42 C 56.107 42, 56.160 42.450, 56.500 43 M 147.405 43.155 C 146.962 43.870, 147.130 44.038, 147.845 43.595 C 148.998 42.883, 149.393 42, 148.559 42 C 148.316 42, 147.797 42.520, 147.405 43.155 M 46 43.302 C 46 43.530, 48.587 45.378, 51.750 47.408 C 54.913 49.438, 56.269 50.053, 54.765 48.774 C 51.796 46.250, 46 42.632, 46 43.302 M 36.158 46 C 36.158 47.375, 36.385 47.938, 36.662 47.250 C 36.940 46.563, 36.940 45.438, 36.662 44.750 C 36.385 44.063, 36.158 44.625, 36.158 46 M 139.158 46 C 139.158 47.375, 139.385 47.938, 139.662 47.250 C 139.940 46.563, 139.940 45.438, 139.662 44.750 C 139.385 44.063, 139.158 44.625, 139.158 46 M 61.798 48.398 C 62.189 51.743, 62.461 52, 65.609 52 C 67.474 52, 69 51.605, 69 51.122 C 69 49.983, 66.899 48.255, 65 47.832 C 64.179 47.649, 63.028 46.892, 62.443 46.148 C 61.652 45.144, 61.486 45.723, 61.798 48.398 M 113.405 46.155 C 112.962 46.870, 113.130 47.038, 113.845 46.595 C 114.480 46.203, 115 45.684, 115 45.441 C 115 44.607, 114.117 45.002, 113.405 46.155 M 29.195 49.500 C 29.215 51.150, 29.439 51.704, 29.693 50.731 C 29.947 49.758, 29.930 48.408, 29.656 47.731 C 29.382 47.054, 29.175 47.850, 29.195 49.500 M 146.195 49.500 C 146.215 51.150, 146.439 51.704, 146.693 50.731 C 146.947 49.758, 146.930 48.408, 146.656 47.731 C 146.382 47.054, 146.175 47.850, 146.195 49.500 M 108.405 49.155 C 107.962 49.870, 108.130 50.038, 108.845 49.595 C 109.480 49.203, 110 48.684, 110 48.441 C 110 47.607, 109.117 48.002, 108.405 49.155 M 112.036 49.957 C 111.230 50.466, 110.522 52.005, 110.462 53.376 C 110.402 54.748, 109.774 56.687, 109.066 57.685 C 108.358 58.683, 109.178 57.942, 110.889 56.038 C 112.600 54.134, 114 52.982, 114 53.479 C 114 53.976, 114.708 53.509, 115.574 52.441 C 116.440 51.374, 116.820 51.132, 116.420 51.905 C 115.941 52.828, 116.086 53.065, 116.845 52.595 C 117.480 52.203, 118 51.234, 118 50.441 C 118 48.818, 114.310 48.518, 112.036 49.957 M 58.500 52 C 58.840 52.550, 59.343 53, 59.618 53 C 59.893 53, 59.840 52.550, 59.500 52 C 59.160 51.450, 58.657 51, 58.382 51 C 58.107 51, 58.160 51.450, 58.500 52 M 70 51.378 C 70 51.585, 70.787 52.373, 71.750 53.128 C 73.336 54.371, 73.371 54.336, 72.128 52.750 C 70.821 51.084, 70 50.555, 70 51.378 M 103.872 52.750 C 102.629 54.336, 102.664 54.371, 104.250 53.128 C 105.916 51.821, 106.445 51, 105.622 51 C 105.415 51, 104.627 51.788, 103.872 52.750 M 37.158 55 C 37.158 56.375, 37.385 56.938, 37.662 56.250 C 37.940 55.563, 37.940 54.438, 37.662 53.750 C 37.385 53.063, 37.158 53.625, 37.158 55 M 138.158 55 C 138.158 56.375, 138.385 56.938, 138.662 56.250 C 138.940 55.563, 138.940 54.438, 138.662 53.750 C 138.385 53.063, 138.158 53.625, 138.158 55 M 30.079 56.583 C 30.127 57.748, 30.364 57.985, 30.683 57.188 C 30.972 56.466, 30.936 55.603, 30.604 55.271 C 30.272 54.939, 30.036 55.529, 30.079 56.583 M 65.500 57 C 66.495 58.100, 67.535 59, 67.810 59 C 68.085 59, 67.495 58.100, 66.500 57 C 65.505 55.900, 64.465 55, 64.190 55 C 63.915 55, 64.505 55.900, 65.500 57 M 145.079 56.583 C 145.127 57.748, 145.364 57.985, 145.683 57.188 C 145.972 56.466, 145.936 55.603, 145.604 55.271 C 145.272 54.939, 145.036 55.529, 145.079 56.583 M 38.500 59 C 38.840 59.550, 39.343 60, 39.618 60 C 39.893 60, 39.840 59.550, 39.500 59 C 39.160 58.450, 38.657 58, 38.382 58 C 38.107 58, 38.160 58.450, 38.500 59 M 31 61 C 31 61.733, 31.300 62.033, 31.667 61.667 C 32.033 61.300, 32.033 60.700, 31.667 60.333 C 31.300 59.967, 31 60.267, 31 61 M 144 61 C 144 61.733, 144.300 62.033, 144.667 61.667 C 145.033 61.300, 145.033 60.700, 144.667 60.333 C 144.300 59.967, 144 60.267, 144 61 M 44 63.500 C 45.292 64.875, 46.574 66, 46.849 66 C 47.124 66, 46.292 64.875, 45 63.500 C 43.708 62.125, 42.426 61, 42.151 61 C 41.876 61, 42.708 62.125, 44 63.500 M 131.405 63.250 L 129.500 65.500 131.750 63.595 C 132.988 62.547, 134 61.535, 134 61.345 C 134 60.545, 133.195 61.136, 131.405 63.250 M 69 63 C 69 63.733, 69.300 64.033, 69.667 63.667 C 70.033 63.300, 70.033 62.700, 69.667 62.333 C 69.300 61.967, 69 62.267, 69 63 M 105.162 64.543 C 103.487 68.220, 103.807 69.005, 105.618 65.662 C 106.464 64.100, 106.969 62.636, 106.741 62.407 C 106.512 62.179, 105.802 63.140, 105.162 64.543 M 136.750 62.662 C 137.438 62.940, 138.563 62.940, 139.250 62.662 C 139.938 62.385, 139.375 62.158, 138 62.158 C 136.625 62.158, 136.063 62.385, 136.750 62.662 M 97.564 64.707 C 97.022 66.132, 97.136 66.247, 98.124 65.267 C 98.808 64.588, 99.115 63.781, 98.807 63.474 C 98.499 63.166, 97.940 63.721, 97.564 64.707 M 37.500 66 C 37.840 66.550, 38.343 67, 38.618 67 C 38.893 67, 38.840 66.550, 38.500 66 C 38.160 65.450, 37.657 65, 37.382 65 C 37.107 65, 37.160 65.450, 37.500 66 M 137.405 66.155 C 136.962 66.870, 137.130 67.038, 137.845 66.595 C 138.998 65.883, 139.393 65, 138.559 65 C 138.316 65, 137.797 65.520, 137.405 66.155 M 132 67 C 132 67.733, 132.300 68.033, 132.667 67.667 C 133.033 67.300, 133.033 66.700, 132.667 66.333 C 132.300 65.967, 132 66.267, 132 67 M 40.500 68 C 40.840 68.550, 41.343 69, 41.618 69 C 41.893 69, 41.840 68.550, 41.500 68 C 41.160 67.450, 40.657 67, 40.382 67 C 40.107 67, 40.160 67.450, 40.500 68 M 51 69.500 C 52.292 70.875, 53.574 72, 53.849 72 C 54.124 72, 53.292 70.875, 52 69.500 C 50.708 68.125, 49.426 67, 49.151 67 C 48.876 67, 49.708 68.125, 51 69.500 M 79 68 C 79 68.733, 79.300 69.033, 79.667 68.667 C 80.033 68.300, 80.033 67.700, 79.667 67.333 C 79.300 66.967, 79 67.267, 79 68 M 96 68 C 96 68.733, 96.300 69.033, 96.667 68.667 C 97.033 68.300, 97.033 67.700, 96.667 67.333 C 96.300 66.967, 96 67.267, 96 68 M 124.405 69.250 L 122.500 71.500 124.750 69.595 C 125.987 68.547, 127 67.535, 127 67.345 C 127 66.545, 126.195 67.136, 124.405 69.250 M 134.405 68.155 C 133.962 68.870, 134.130 69.038, 134.845 68.595 C 135.998 67.883, 136.393 67, 135.559 67 C 135.316 67, 134.797 67.520, 134.405 68.155 M 77.333 70.667 C 77.700 71.033, 78.300 71.033, 78.667 70.667 C 79.033 70.300, 78.733 70, 78 70 C 77.267 70, 76.967 70.300, 77.333 70.667 M 46 71.378 C 46 71.585, 46.788 72.373, 47.750 73.128 C 49.336 74.371, 49.371 74.336, 48.128 72.750 C 46.821 71.084, 46 70.555, 46 71.378 M 127.405 73.155 C 126.962 73.870, 127.130 74.038, 127.845 73.595 C 128.998 72.883, 129.393 72, 128.559 72 C 128.316 72, 127.797 72.520, 127.405 73.155 M 59.500 77 C 61.648 79.200, 63.631 81, 63.906 81 C 64.181 81, 62.648 79.200, 60.500 77 C 58.352 74.800, 56.369 73, 56.094 73 C 55.819 73, 57.352 74.800, 59.500 77 M 117.405 75.250 L 115.500 77.500 117.750 75.595 C 118.987 74.547, 120 73.535, 120 73.345 C 120 72.545, 119.195 73.136, 117.405 75.250 M 50.500 75 C 50.840 75.550, 51.343 76, 51.618 76 C 51.893 76, 51.840 75.550, 51.500 75 C 51.160 74.450, 50.657 74, 50.382 74 C 50.107 74, 50.160 74.450, 50.500 75 M 124.405 75.155 C 123.962 75.870, 124.130 76.038, 124.845 75.595 C 125.998 74.883, 126.393 74, 125.559 74 C 125.316 74, 124.797 74.520, 124.405 75.155 M 75 76 C 75 76.733, 75.300 77.033, 75.667 76.667 C 76.033 76.300, 76.033 75.700, 75.667 75.333 C 75.300 74.967, 75 75.267, 75 76 M 99.624 76.539 C 98.659 79.053, 98.943 79.702, 100.122 77.675 C 100.706 76.671, 100.973 75.639, 100.715 75.382 C 100.458 75.124, 99.966 75.645, 99.624 76.539 M 53.500 77 C 53.840 77.550, 54.343 78, 54.618 78 C 54.893 78, 54.840 77.550, 54.500 77 C 54.160 76.450, 53.657 76, 53.382 76 C 53.107 76, 53.160 76.450, 53.500 77 M 121.405 77.155 C 120.962 77.870, 121.130 78.038, 121.845 77.595 C 122.998 76.883, 123.393 76, 122.559 76 C 122.316 76, 121.797 76.520, 121.405 77.155 M 117.872 79.750 C 116.629 81.336, 116.664 81.371, 118.250 80.128 C 119.916 78.821, 120.445 78, 119.622 78 C 119.415 78, 118.627 78.787, 117.872 79.750 M 57.500 80 C 57.840 80.550, 58.343 81, 58.618 81 C 58.893 81, 58.840 80.550, 58.500 80 C 58.160 79.450, 57.657 79, 57.382 79 C 57.107 79, 57.160 79.450, 57.500 80 M 85 81 C 85 81.733, 85.300 82.033, 85.667 81.667 C 86.033 81.300, 86.033 80.700, 85.667 80.333 C 85.300 79.967, 85 80.267, 85 81 M 90 81 C 90 81.733, 90.300 82.033, 90.667 81.667 C 91.033 81.300, 91.033 80.700, 90.667 80.333 C 90.300 79.967, 90 80.267, 90 81 M 62.500 83 C 62.840 83.550, 63.343 84, 63.618 84 C 63.893 84, 63.840 83.550, 63.500 83 C 63.160 82.450, 62.657 82, 62.382 82 C 62.107 82, 62.160 82.450, 62.500 83 M 112.405 83.155 C 111.962 83.870, 112.130 84.038, 112.845 83.595 C 113.480 83.203, 114 82.684, 114 82.441 C 114 81.607, 113.117 82.002, 112.405 83.155 M 65.405 84.155 C 64.962 84.870, 65.130 85.038, 65.845 84.595 C 66.998 83.883, 67.393 83, 66.559 83 C 66.316 83, 65.797 83.520, 65.405 84.155 M 87.014 84.414 C 87.662 85.062, 88.338 85.062, 88.986 84.414 C 89.633 83.767, 89.295 83.429, 88 83.429 C 86.705 83.429, 86.367 83.767, 87.014 84.414 M 109.500 84 C 109.840 84.550, 110.343 85, 110.618 85 C 110.893 85, 110.840 84.550, 110.500 84 C 110.160 83.450, 109.657 83, 109.382 83 C 109.107 83, 109.160 83.450, 109.500 84 M 88 88.500 C 88 90.492, 88.502 91, 90.469 91 C 92.356 91, 92.812 91.412, 92.405 92.750 C 92.112 93.713, 92.574 93.294, 93.432 91.820 C 95.499 88.265, 94.511 86, 90.893 86 C 88.474 86, 88 86.409, 88 88.500 M 81 89 C 81 89.733, 81.300 90.033, 81.667 89.667 C 82.033 89.300, 82.033 88.700, 81.667 88.333 C 81.300 87.967, 81 88.267, 81 89 M 84.619 96.192 C 85.346 97.369, 90.769 97.182, 91.528 95.954 C 91.945 95.280, 90.745 94.993, 88.147 95.146 C 85.932 95.277, 84.344 95.748, 84.619 96.192" stroke="none" fill="#fffcfc" fill-rule="evenodd"/><path d="M 9.518 16.971 C 9.187 17.506, 12.206 22.118, 16.225 27.221 C 30.312 45.106, 29.198 43.002, 30.471 54.138 C 30.826 57.239, 31.652 60.438, 32.308 61.246 C 33.384 62.573, 43.480 69.714, 59.300 80.338 C 62.490 82.480, 65.360 83.974, 65.676 83.657 C 66.296 83.037, 60.472 77.539, 47 66.025 C 42.325 62.030, 38.189 58.027, 37.809 57.131 C 37.429 56.234, 36.823 52.397, 36.464 48.606 C 35.854 42.181, 35.500 41.380, 31.268 36.856 C 28.770 34.185, 27.263 32, 27.919 32 C 29.246 32, 50.119 45.232, 60.562 52.695 C 67.213 57.447, 67.353 57.644, 73.212 70.500 C 85.648 97.786, 84.356 95.674, 88.318 95.211 C 90.704 94.933, 91.977 94.197, 92.316 92.901 C 92.702 91.422, 92.279 91, 90.406 91 C 88.506 91, 88 90.474, 88 88.500 C 88 86.405, 88.472 86, 90.917 86 C 92.521 86, 94.003 86.508, 94.209 87.128 C 94.416 87.749, 97.671 81.448, 101.443 73.126 C 105.214 64.805, 108.861 57.530, 109.547 56.961 C 110.232 56.392, 110.580 55.110, 110.319 54.112 C 110.058 53.115, 110.587 51.556, 111.494 50.649 C 113.427 48.716, 117.986 48.438, 118.032 50.250 C 118.053 51.076, 118.477 50.961, 119.282 49.912 C 119.952 49.039, 121.123 48.119, 121.884 47.868 C 122.999 47.499, 122.937 47.080, 121.562 45.705 C 119.131 43.274, 118.199 43.498, 110.968 48.250 C 104.020 52.815, 102.771 54.770, 92.702 76.817 C 90.612 81.392, 88.439 84.980, 87.873 84.791 C 87.306 84.602, 83.714 77.711, 79.890 69.478 C 76.066 61.245, 72.278 53.849, 71.471 53.042 C 70.547 52.119, 68.521 51.682, 66.002 51.864 C 62.171 52.141, 62 52.027, 62 49.200 C 62 46.528, 61.071 45.693, 52.250 40.439 C 46.887 37.245, 35.829 30.440, 27.674 25.316 C 13.067 16.137, 10.704 15.051, 9.518 16.971 M 155 21.067 C 150.875 23.756, 142.955 28.690, 137.399 32.032 C 128.534 37.364, 127.353 38.395, 127.747 40.455 C 128.078 42.189, 127.647 42.977, 126.098 43.469 C 124.268 44.050, 123.065 46, 124.536 46 C 124.831 46, 130.334 42.653, 136.765 38.562 C 143.196 34.471, 148.648 31.314, 148.880 31.547 C 149.112 31.779, 147.252 34.161, 144.746 36.840 C 140.503 41.376, 140.144 42.185, 139.524 48.606 C 139.158 52.397, 138.694 56.023, 138.494 56.663 C 138.293 57.303, 133.277 62.028, 127.347 67.163 C 110.890 81.413, 109.453 82.786, 110.204 83.537 C 111.065 84.399, 141.057 64.412, 143.692 61.220 C 144.348 60.426, 145.174 57.239, 145.529 54.138 C 146.796 43.053, 145.645 45.259, 159.243 27.847 C 169.425 14.809, 168.026 12.575, 155 21.067 M 115.405 52.155 C 114.962 52.870, 115.130 53.038, 115.845 52.595 C 116.480 52.203, 117 51.684, 117 51.441 C 117 50.607, 116.117 51.002, 115.405 52.155 M 112.405 54.155 C 111.962 54.870, 112.130 55.038, 112.845 54.595 C 113.480 54.203, 114 53.684, 114 53.441 C 114 52.607, 113.117 53.002, 112.405 54.155 M 136.750 62.662 C 137.438 62.940, 138.563 62.940, 139.250 62.662 C 139.938 62.385, 139.375 62.158, 138 62.158 C 136.625 62.158, 136.063 62.385, 136.750 62.662 M 132 67 C 132 67.733, 132.300 68.033, 132.667 67.667 C 133.033 67.300, 133.033 66.700, 132.667 66.333 C 132.300 65.967, 132 66.267, 132 67 M 77.333 70.667 C 77.700 71.033, 78.300 71.033, 78.667 70.667 C 79.033 70.300, 78.733 70, 78 70 C 77.267 70, 76.967 70.300, 77.333 70.667 M 86.750 97.662 C 87.438 97.940, 88.563 97.940, 89.250 97.662 C 89.938 97.385, 89.375 97.158, 88 97.158 C 86.625 97.158, 86.063 97.385, 86.750 97.662" stroke="none" fill="#fcfcfc" fill-rule="evenodd"/></svg>