<svg xmlns="http://www.w3.org/2000/svg" width="234" height="167" viewBox="0 0 234 167" version="1.1"><path d="" stroke="none" fill="#f4f4f4" fill-rule="evenodd"/><path d="M 38.365 43.491 C 38.013 44.410, 41.610 50.076, 47.729 58.241 L 57.665 71.500 58.817 79.901 C 59.450 84.522, 60.088 88.390, 60.234 88.497 C 64.741 91.802, 88.541 108.202, 91.171 109.814 C 93.190 111.052, 95.092 111.660, 95.399 111.164 C 96.029 110.143, 88.615 102.927, 75.806 92.094 C 67.128 84.755, 67.110 84.731, 66.494 79.121 C 65.482 69.922, 65.070 68.607, 62.222 65.478 C 60.725 63.833, 58.825 61.597, 58 60.511 C 56.511 58.549, 56.521 58.548, 59.500 60.453 C 73.662 69.509, 93.984 83.339, 95.207 84.754 C 96.038 85.714, 100.419 94.600, 104.942 104.500 C 109.465 114.400, 113.572 122.920, 114.068 123.434 C 115.728 125.156, 119.148 124.705, 120.483 122.589 C 121.208 121.440, 125.284 112.850, 129.541 103.500 C 133.799 94.150, 137.973 85.701, 138.819 84.725 C 140.174 83.160, 155.937 72.442, 172 62.165 C 177.521 58.632, 177.482 59.210, 171.778 65.478 C 168.930 68.607, 168.518 69.922, 167.506 79.121 C 166.890 84.731, 166.872 84.755, 158.194 92.094 C 145.385 102.927, 137.971 110.143, 138.601 111.164 C 138.908 111.660, 140.810 111.052, 142.829 109.814 C 145.459 108.202, 169.259 91.802, 173.766 88.497 C 173.912 88.390, 174.548 84.522, 175.179 79.901 L 176.327 71.500 186.258 58.218 C 195.613 45.708, 197.322 42, 193.734 42 C 193.004 42, 189.277 44.058, 185.453 46.574 C 181.629 49.090, 169.275 56.746, 158 63.588 C 146.724 70.429, 136.265 77.033, 134.756 78.263 C 133.038 79.665, 129.397 86.100, 125.004 95.500 C 121.149 103.750, 117.591 110.635, 117.099 110.800 C 116.606 110.964, 114.746 107.938, 112.965 104.075 C 111.184 100.211, 109.344 97.288, 108.875 97.577 C 108.406 97.867, 108.272 97.454, 108.577 96.660 C 108.882 95.866, 107.327 91.628, 105.122 87.243 C 100.570 78.189, 101.949 79.284, 72.918 61.684 C 63.248 55.822, 52.244 48.995, 48.465 46.513 C 41.116 41.686, 39.270 41.134, 38.365 43.491" stroke="none" fill="#fcfcfc" fill-rule="evenodd"/></svg>