<svg xmlns="http://www.w3.org/2000/svg" width="225" height="225" viewBox="0 0 225 225" version="1.1"><path d="M 32.402 79.394 C 32.023 80.382, 35.441 85.735, 41.909 94.284 C 51.928 107.524, 52.016 107.690, 52.973 115.065 C 53.504 119.154, 53.952 123.040, 53.969 123.701 C 53.986 124.361, 60.638 129.474, 68.750 135.063 C 76.862 140.652, 84.773 146.114, 86.329 147.200 C 87.884 148.287, 89.427 148.907, 89.756 148.578 C 90.625 147.709, 86.031 143.150, 72.846 131.800 C 61.691 122.197, 61.166 121.569, 60.569 117.134 C 58.946 105.057, 58.825 104.727, 54.134 99.659 C 51.585 96.905, 50.267 94.933, 51.203 95.276 C 52.140 95.620, 61.402 101.496, 71.786 108.333 L 90.665 120.765 96.250 133.132 C 109.035 161.446, 110.285 163.595, 113.300 162.438 C 114.943 161.808, 115.324 161.071, 126.193 137.541 C 129.993 129.313, 133.642 121.928, 134.301 121.129 C 135.524 119.648, 172.476 95, 173.474 95 C 173.776 95, 172.051 97.421, 169.641 100.380 C 165.751 105.156, 165.177 106.523, 164.531 112.554 C 164.131 116.291, 163.584 119.920, 163.316 120.619 C 163.048 121.318, 156.345 127.587, 148.422 134.552 C 134.484 146.802, 130.567 151.841, 139.347 146.225 C 148.926 140.098, 167.850 126.886, 168.957 125.552 C 169.609 124.766, 170.701 120.351, 171.382 115.741 L 172.622 107.358 182.311 94.620 C 196.751 75.636, 195.697 74.372, 175.764 86.771 C 167.919 91.651, 154.022 100.279, 144.883 105.945 L 128.266 116.247 120.776 132.326 C 116.656 141.169, 112.864 148.545, 112.349 148.717 C 111.833 148.889, 108.095 141.825, 104.040 133.020 C 99.986 124.214, 95.956 116.410, 95.084 115.676 C 94.213 114.942, 89.450 111.854, 84.500 108.813 C 79.550 105.773, 66.500 97.708, 55.500 90.892 C 44.500 84.077, 34.936 78.354, 34.247 78.176 C 33.558 77.998, 32.728 78.546, 32.402 79.394" stroke="none" fill="#efefef" fill-rule="evenodd"/><path d="M -0 112.504 L -0 225.009 112.750 224.754 L 225.500 224.500 225.754 112.250 L 226.009 0 113.004 0 L 0 0 -0 112.504 M 0.483 113 C 0.483 174.875, 0.603 200.188, 0.750 169.250 C 0.897 138.313, 0.897 87.688, 0.750 56.750 C 0.603 25.813, 0.483 51.125, 0.483 113 M 32.402 79.394 C 32.023 80.382, 35.441 85.735, 41.909 94.284 C 51.928 107.524, 52.016 107.690, 52.973 115.065 C 53.504 119.154, 53.952 123.040, 53.969 123.701 C 53.986 124.361, 60.638 129.474, 68.750 135.063 C 76.862 140.652, 84.773 146.114, 86.329 147.200 C 87.884 148.287, 89.427 148.907, 89.756 148.578 C 90.625 147.709, 86.031 143.150, 72.846 131.800 C 61.691 122.197, 61.166 121.569, 60.569 117.134 C 58.946 105.057, 58.825 104.727, 54.134 99.659 C 51.585 96.905, 50.267 94.933, 51.203 95.276 C 52.140 95.620, 61.402 101.496, 71.786 108.333 L 90.665 120.765 96.250 133.132 C 109.035 161.446, 110.285 163.595, 113.300 162.438 C 114.943 161.808, 115.324 161.071, 126.193 137.541 C 129.993 129.313, 133.642 121.928, 134.301 121.129 C 135.524 119.648, 172.476 95, 173.474 95 C 173.776 95, 172.051 97.421, 169.641 100.380 C 165.751 105.156, 165.177 106.523, 164.531 112.554 C 164.131 116.291, 163.584 119.920, 163.316 120.619 C 163.048 121.318, 156.345 127.587, 148.422 134.552 C 134.484 146.802, 130.567 151.841, 139.347 146.225 C 148.926 140.098, 167.850 126.886, 168.957 125.552 C 169.609 124.766, 170.701 120.351, 171.382 115.741 L 172.622 107.358 182.311 94.620 C 196.751 75.636, 195.697 74.372, 175.764 86.771 C 167.919 91.651, 154.022 100.279, 144.883 105.945 L 128.266 116.247 120.776 132.326 C 116.656 141.169, 112.864 148.545, 112.349 148.717 C 111.833 148.889, 108.095 141.825, 104.040 133.020 C 99.986 124.214, 95.956 116.410, 95.084 115.676 C 94.213 114.942, 89.450 111.854, 84.500 108.813 C 79.550 105.773, 66.500 97.708, 55.500 90.892 C 44.500 84.077, 34.936 78.354, 34.247 78.176 C 33.558 77.998, 32.728 78.546, 32.402 79.394" stroke="none" fill="#040404" fill-rule="evenodd"/></svg>