<svg width="121" height="121" viewBox="0 0 121 121" fill="none" xmlns="http://www.w3.org/2000/svg">
<path d="M1.9856 70.2412H15.1024V103.544H27.6229V70.2412H40.6545V59.0835H1.9856V70.2412Z" fill="#FEFFFB"/>
<path d="M35.7144 51.1623H48.8312V84.4653H61.2666V51.1623H74.3833V40.0045H35.7144V51.1623Z" fill="#FEFFFB"/>
<path d="M101.98 18.3704H81.1121V62.8311H93.6326V49.2885H101.98C112.626 49.2885 119.014 43.1559 119.014 33.872C119.014 24.5881 112.797 18.4555 101.98 18.4555V18.3704ZM101.043 38.8121H93.5475V28.8467H101.043C104.365 28.8467 106.579 30.465 106.579 33.7868C106.579 37.1086 104.279 38.8121 101.043 38.7269V38.8121Z" fill="#A761FF"/>
</svg>
