<svg width="80" height="79" viewBox="0 0 80 79" fill="none" xmlns="http://www.w3.org/2000/svg">
<ellipse cx="40.1019" cy="39.6771" rx="39.3982" ry="39.0875" fill="url(#paint0_linear_2051_10239)"/>
<path fill-rule="evenodd" clip-rule="evenodd" d="M65.6923 25.4847L65.2819 24.7577C64.7525 23.8784 64.0058 23.1477 63.1126 22.6346L43.4428 11.3795C42.5523 10.8669 41.5412 10.596 40.5114 10.5942H39.6613C38.6315 10.596 37.6204 10.8669 36.7299 11.3795L17.0601 22.6637C16.1718 23.1734 15.4339 23.9054 14.9201 24.7867L14.5097 25.5138C13.9931 26.3975 13.7201 27.4005 13.7183 28.4221V50.9614C13.7201 51.9831 13.9931 52.9862 14.5097 53.8697L14.9201 54.5968C15.4472 55.4678 16.1821 56.1969 17.0601 56.7199L36.7592 67.975C37.6454 68.4982 38.6593 68.7698 39.6906 68.7602H40.5114C41.5412 68.7585 42.5523 68.4877 43.4428 67.975L63.1126 56.6908C64.0096 56.1926 64.7504 55.4577 65.2526 54.5677L65.6923 53.8406C66.2026 52.9545 66.4753 51.9532 66.4838 50.9323V28.393C66.482 27.3715 66.2091 26.3684 65.6923 25.4847ZM39.6613 16.4108H40.5114L57.6895 26.2409L40.101 36.3036L22.5125 26.2409L39.6613 16.4108ZM43.0324 61.4895L60.1812 51.6594L60.6209 50.9323V31.2722L43.0324 41.364V61.4895Z" fill="white"/>
<defs>
<linearGradient id="paint0_linear_2051_10239" x1="0.703613" y1="3.71327" x2="80.7835" y2="78.6437" gradientUnits="userSpaceOnUse">
<stop offset="0.156958" stop-color="#7DE3FA"/>
<stop offset="0.741638" stop-color="#333BFF"/>
</linearGradient>
</defs>
</svg>
