<svg width="21" height="20" viewBox="0 0 21 20" fill="none" xmlns="http://www.w3.org/2000/svg">
<path d="M17.3229 5.58355H15.4704C15.3253 5.05712 15.0082 4.59233 14.568 4.26094C14.1279 3.92955 13.5891 3.75 13.0349 3.75C12.4808 3.75 11.942 3.92955 11.5018 4.26094C11.0617 4.59233 10.7446 5.05712 10.5995 5.58355H2.42708C2.24751 5.58355 2.07529 5.65377 1.94831 5.77875C1.82134 5.90373 1.75 6.07325 1.75 6.25C1.75 6.42675 1.82134 6.59627 1.94831 6.72125C2.07529 6.84623 2.24751 6.91645 2.42708 6.91645H10.5995C10.7446 7.44288 11.0617 7.90767 11.5018 8.23906C11.942 8.57045 12.4808 8.75 13.0349 8.75C13.5891 8.75 14.1279 8.57045 14.568 8.23906C15.0082 7.90767 15.3253 7.44288 15.4704 6.91645H17.3229C17.5025 6.91645 17.6747 6.84623 17.8017 6.72125C17.9287 6.59627 18 6.42675 18 6.25C18 6.07325 17.9287 5.90373 17.8017 5.77875C17.6747 5.65377 17.5025 5.58355 17.3229 5.58355ZM13.0349 7.41628C12.8006 7.41628 12.5715 7.34788 12.3767 7.21973C12.1818 7.09158 12.0299 6.90943 11.9402 6.69632C11.8506 6.48321 11.8271 6.24871 11.8728 6.02247C11.9185 5.79623 12.0314 5.58842 12.1971 5.42531C12.3628 5.26221 12.5739 5.15113 12.8038 5.10613C13.0336 5.06113 13.2719 5.08422 13.4884 5.1725C13.7049 5.26077 13.89 5.41025 14.0202 5.60205C14.1504 5.79384 14.2198 6.01933 14.2198 6.25C14.2195 6.55921 14.0945 6.85565 13.8724 7.0743C13.6503 7.29294 13.3491 7.41593 13.0349 7.41628Z" fill="#FBFBFF"/>
<path d="M17.3229 11.8334H9.1512C9.00587 11.3069 8.68863 10.8422 8.24842 10.5109C7.80822 10.1795 7.2695 10 6.71539 10C6.16128 10 5.62256 10.1795 5.18236 10.5109C4.74215 10.8422 4.42491 11.3069 4.27958 11.8334H2.42708C2.24751 11.8334 2.07529 11.9036 1.94831 12.0286C1.82134 12.1536 1.75 12.3232 1.75 12.5C1.75 12.6768 1.82134 12.8464 1.94831 12.9714C2.07529 13.0964 2.24751 13.1666 2.42708 13.1666H4.27958C4.42491 13.6931 4.74215 14.1578 5.18236 14.4891C5.62256 14.8205 6.16128 15 6.71539 15C7.2695 15 7.80822 14.8205 8.24842 14.4891C8.68863 14.1578 9.00587 13.6931 9.1512 13.1666H17.3229C17.5025 13.1666 17.6747 13.0964 17.8017 12.9714C17.9287 12.8464 18 12.6768 18 12.5C18 12.3232 17.9287 12.1536 17.8017 12.0286C17.6747 11.9036 17.5025 11.8334 17.3229 11.8334ZM6.71505 13.6666C6.4807 13.6666 6.25161 13.5982 6.05676 13.47C5.8619 13.3418 5.71003 13.1596 5.62035 12.9464C5.53067 12.7333 5.5072 12.4987 5.55292 12.2724C5.59864 12.0461 5.71149 11.8382 5.8772 11.6751C6.04291 11.5119 6.25404 11.4008 6.48389 11.3558C6.71374 11.3108 6.95198 11.3339 7.16849 11.4222C7.385 11.5105 7.57006 11.66 7.70026 11.8519C7.83045 12.0437 7.89995 12.2693 7.89995 12.5C7.89941 12.8092 7.7744 13.1057 7.55231 13.3243C7.33021 13.543 7.02914 13.6661 6.71505 13.6666Z" fill="#FBFBFF"/>
</svg>
