<svg xmlns="http://www.w3.org/2000/svg" width="507" height="124" viewBox="0 0 507 124" version="1.1"><path d="M 48.131 2.474 C 29.373 6.742, 13.639 19.595, 5.537 37.270 C 2.225 44.496, -0.324 53.791, 0.868 54.295 C 1.216 54.442, 4.988 54.400, 9.250 54.202 L 17 53.842 17.004 48.171 C 17.008 41.606, 19.545 36.504, 23.566 34.975 C 24.976 34.439, 29.926 34, 34.565 34 L 43 34 43 29.950 C 43 20.463, 47.667 17, 60.450 17 C 68.932 17, 69 16.980, 69 14.468 C 69 10.959, 71.465 5.399, 73.535 4.241 C 76.383 2.647, 73.660 1.868, 63.712 1.430 C 57.839 1.172, 52.192 1.550, 48.131 2.474 M 78.056 11.896 C 77.369 13.178, 77 26.815, 77 50.867 C 77 86.932, 76.950 87.881, 75.009 88.497 C 73.914 88.845, 72.564 88.848, 72.009 88.506 C 71.366 88.108, 71 76.902, 71 57.641 C 71 35.454, 70.680 27.080, 69.800 26.200 C 68.197 24.597, 53.803 24.597, 52.200 26.200 C 51.320 27.080, 51 35.454, 51 57.641 C 51 74.274, 50.628 88.112, 50.174 88.393 C 49.719 88.674, 48.369 88.648, 47.174 88.335 C 45.026 87.774, 45 87.503, 45 66.083 C 45 50.552, 44.660 44.060, 43.800 43.200 C 42.197 41.597, 27.803 41.597, 26.200 43.200 C 25.387 44.013, 25 48.689, 25 57.700 C 25 72.459, 24.211 73.980, 20.197 66.953 L 17.895 62.921 9.697 63.210 L 1.500 63.500 1.641 66.690 C 1.850 71.424, 8.421 81.570, 16.429 89.522 C 31.579 104.567, 53.337 110.929, 74.500 106.501 C 86.381 104.015, 97.280 97.924, 106.537 88.597 C 114.942 80.128, 121.395 69.797, 120.817 65.734 C 120.523 63.659, 119.920 63.479, 112.336 63.211 L 104.172 62.922 101.902 66.961 C 97.359 75.043, 97.051 73.471, 96.765 40.750 L 96.500 10.500 87.806 10.212 C 80.010 9.954, 79.002 10.128, 78.056 11.896 M 105 37.500 L 105 54 111.250 54.014 C 114.688 54.021, 118.563 54.312, 119.861 54.659 C 122.088 55.255, 122.184 55.098, 121.542 51.896 C 119.893 43.680, 116.427 35.311, 111.821 28.424 C 109.090 24.341, 106.438 21, 105.928 21 C 105.395 21, 105 28.024, 105 37.500 M 233.476 40.355 C 228.712 42.495, 228 45.388, 228 62.597 C 228 80.679, 228.779 83.254, 234.792 85.056 C 236.990 85.714, 243.255 86.044, 249.766 85.844 C 260.454 85.516, 261.085 85.375, 263.730 82.727 L 266.500 79.955 266.500 62.500 L 266.500 45.045 263.730 42.273 C 261.039 39.579, 260.612 39.493, 248.730 39.248 C 240.098 39.070, 235.610 39.396, 233.476 40.355 M 431.500 39.945 C 430.400 40.396, 428.600 41.764, 427.500 42.987 C 425.662 45.030, 425.500 46.618, 425.500 62.582 L 425.500 79.955 428.270 82.727 C 430.915 85.375, 431.546 85.516, 442.234 85.844 C 448.745 86.044, 455.010 85.714, 457.208 85.056 C 463.228 83.252, 464 80.688, 464 62.500 C 464 44.928, 463.189 41.959, 457.881 40.108 C 454.239 38.839, 434.502 38.717, 431.500 39.945 M 144 62.500 L 144 85 150 85 L 156 85 156 79.136 L 156 73.273 165.460 72.778 C 171.752 72.449, 175.740 71.745, 177.370 70.677 C 180.942 68.337, 182.317 63.038, 181.777 53.702 C 181.343 46.205, 181.100 45.478, 178.140 42.834 L 174.968 40 159.484 40 L 144 40 144 62.500 M 186 62.500 L 186 85 192 85 L 198 85 198 78.500 L 198 72 201.785 72 C 205.449 72, 205.674 72.209, 208.776 78.500 L 211.981 85 217.991 85 C 221.296 85, 223.990 84.662, 223.977 84.250 C 223.965 83.838, 222.470 80.746, 220.655 77.379 C 217.491 71.510, 217.433 71.210, 219.252 70.075 C 222.715 67.912, 224.271 62.238, 223.770 53.592 C 223.343 46.216, 223.092 45.472, 220.140 42.834 L 216.968 40 201.484 40 L 186 40 186 62.500 M 272 62.500 L 272 85 278 85 L 284 85 284 79.136 L 284 73.273 293.271 72.788 C 306.094 72.117, 308.472 70.250, 309.699 59.893 C 310.592 52.352, 309.227 46.073, 305.991 42.837 L 303.154 40 287.577 40 L 272 40 272 62.500 M 310 40.629 C 310 41.027, 313.470 51.192, 317.712 63.217 L 325.424 85.082 331.870 84.791 L 338.316 84.500 340.059 79.500 C 341.017 76.750, 344.530 66.737, 347.866 57.250 L 353.932 40 347.690 40 L 341.448 40 336.544 54.750 L 331.640 69.500 327.030 55 L 322.420 40.500 316.210 40.202 C 312.795 40.039, 310 40.230, 310 40.629 M 355.636 61.538 C 351.436 73.430, 348 83.574, 348 84.080 C 348 84.586, 350.651 85, 353.891 85 L 359.783 85 361.383 81 L 362.984 77 369.834 77 L 376.683 77 377.882 81 L 379.080 85 385.465 85 L 391.850 85 387.312 72.250 C 384.816 65.237, 381.323 55.225, 379.551 50 L 376.328 40.500 369.800 40.207 L 363.272 39.915 355.636 61.538 M 387 45 L 387 50 393 50 L 399 50 399 67.500 L 399 85 405 85 L 411 85 411 67.500 L 411 50 417 50 L 423 50 423 45 L 423 40 405 40 L 387 40 387 45 M 469 62.500 L 469 85 475 85 L 481 85 481 78.500 L 481 72 484.785 72 C 488.449 72, 488.674 72.209, 491.776 78.500 L 494.981 85 500.991 85 C 504.296 85, 507 84.630, 507 84.178 C 507 83.725, 505.598 80.767, 503.884 77.603 L 500.769 71.851 503.617 68.877 C 506.137 66.248, 506.510 65.026, 506.849 58.312 C 507.060 54.137, 506.713 48.986, 506.078 46.866 C 504.261 40.800, 501.693 40, 484.050 40 L 469 40 469 62.500 M 239.623 50.540 C 238.702 52.941, 238.896 73.288, 239.855 74.799 C 240.434 75.712, 242.737 76.010, 247.590 75.799 L 254.500 75.500 254.500 62.500 L 254.500 49.500 247.373 49.209 C 241.543 48.970, 240.132 49.213, 239.623 50.540 M 437.435 50.308 C 437.159 51.028, 437.061 56.990, 437.217 63.558 L 437.500 75.500 444.410 75.799 C 449.263 76.010, 451.566 75.712, 452.145 74.799 C 453.094 73.303, 453.303 52.952, 452.393 50.582 C 451.596 48.504, 438.221 48.259, 437.435 50.308 M 156 56.454 L 156 63 161.750 62.985 C 169.541 62.964, 170.178 62.404, 169.808 55.905 L 169.500 50.500 162.750 50.204 L 156 49.909 156 56.454 M 198 56 L 198 62.091 204.750 61.796 L 211.500 61.500 211.500 56 L 211.500 50.500 204.750 50.204 L 198 49.909 198 56 M 284 56.454 L 284 63 289.878 63 C 297.041 63, 298.224 61.855, 297.808 55.328 L 297.500 50.500 290.750 50.204 L 284 49.909 284 56.454 M 481 56.046 L 481 62.091 487.750 61.796 L 494.500 61.500 494.800 55.750 L 495.100 50 488.050 50 L 481 50 481 56.046 M 367.679 61.350 C 366.755 64.279, 366 66.974, 366 67.338 C 366 67.702, 367.740 68, 369.866 68 L 373.731 68 371.860 62.328 C 370.831 59.208, 369.847 56.513, 369.673 56.340 C 369.500 56.166, 368.602 58.421, 367.679 61.350 M 11 97.875 C 11 99.812, 24.083 111.739, 30.088 115.276 C 54.391 129.591, 84.781 125.509, 104.786 105.243 C 108.827 101.149, 111.899 97.566, 111.613 97.280 C 111.327 96.994, 108.369 98.808, 105.039 101.311 C 98.344 106.344, 89.311 110.909, 80.964 113.476 C 72.451 116.095, 55.894 116.613, 46.403 114.557 C 37.057 112.533, 22.191 105.622, 16.341 100.583 C 12.063 96.897, 11 96.358, 11 97.875" stroke="none" fill="#FFFFFF" fill-rule="evenodd"/><path d="" stroke="none" fill="#fcfcfc" fill-rule="evenodd"/></svg>