<svg width="25" height="24" viewBox="0 0 25 24" fill="none" xmlns="http://www.w3.org/2000/svg">
<path d="M9.5 22.0002H15.5C20.5 22.0002 22.5 20.0002 22.5 15.0002V9.00024C22.5 4.00024 20.5 2.00024 15.5 2.00024H9.5C4.5 2.00024 2.5 4.00024 2.5 9.00024V15.0002C2.5 20.0002 4.5 22.0002 9.5 22.0002Z" stroke="url(#paint0_linear_2051_8794)" stroke-width="1.5" stroke-linecap="round" stroke-linejoin="round"/>
<path d="M17.5 2.44024V12.4202C17.5 14.3902 16.09 15.1602 14.36 14.1202L13.04 13.3302C12.74 13.1502 12.26 13.1502 11.96 13.3302L10.64 14.1202C8.91 15.1502 7.5 14.3902 7.5 12.4202V2.44024" stroke="url(#paint1_linear_2051_8794)" stroke-width="1.5" stroke-linecap="round" stroke-linejoin="round"/>
<path d="M9.5 22.0002H15.5C20.5 22.0002 22.5 20.0002 22.5 15.0002V9.00024C22.5 4.00024 20.5 2.00024 15.5 2.00024H9.5C4.5 2.00024 2.5 4.00024 2.5 9.00024V15.0002C2.5 20.0002 4.5 22.0002 9.5 22.0002Z" stroke="url(#paint2_linear_2051_8794)" stroke-width="1.5" stroke-linecap="round" stroke-linejoin="round"/>
<path d="M17.5 2.44024V12.4202C17.5 14.3902 16.09 15.1602 14.36 14.1202L13.04 13.3302C12.74 13.1502 12.26 13.1502 11.96 13.3302L10.64 14.1202C8.91 15.1502 7.5 14.3902 7.5 12.4202V2.44024" stroke="url(#paint3_linear_2051_8794)" stroke-width="1.5" stroke-linecap="round" stroke-linejoin="round"/>
<defs>
<linearGradient id="paint0_linear_2051_8794" x1="2.5" y1="2.79939" x2="22.9759" y2="21.8075" gradientUnits="userSpaceOnUse">
<stop offset="0.156958" stop-color="#7DE3FA"/>
<stop offset="0.741638" stop-color="#333BFF"/>
</linearGradient>
<linearGradient id="paint1_linear_2051_8794" x1="7.5" y1="2.92548" x2="19.5305" y2="12.1221" gradientUnits="userSpaceOnUse">
<stop offset="0.156958" stop-color="#7DE3FA"/>
<stop offset="0.741638" stop-color="#333BFF"/>
</linearGradient>
<linearGradient id="paint2_linear_2051_8794" x1="2.5" y1="2.79939" x2="22.9759" y2="21.8075" gradientUnits="userSpaceOnUse">
<stop offset="0.156958" stop-color="#7DE3FA"/>
<stop offset="0.741638" stop-color="#333BFF"/>
</linearGradient>
<linearGradient id="paint3_linear_2051_8794" x1="7.5" y1="2.92548" x2="19.5305" y2="12.1221" gradientUnits="userSpaceOnUse">
<stop offset="0.156958" stop-color="#7DE3FA"/>
<stop offset="0.741638" stop-color="#333BFF"/>
</linearGradient>
</defs>
</svg>
