<svg width="33" height="33" viewBox="0 0 33 33" fill="none" xmlns="http://www.w3.org/2000/svg">
<path fill-rule="evenodd" clip-rule="evenodd" d="M25.3194 5.36687C26.2389 5.00132 27.1503 5.91237 26.7844 6.83188L19.3314 25.5733C18.9558 26.5169 17.6215 26.5226 17.2384 25.5817L14.3303 18.4401C14.2736 18.3008 14.1896 18.1743 14.0833 18.0679C13.977 17.9616 13.8504 17.8776 13.7112 17.8209L6.56949 14.9128C5.62897 14.5297 5.6343 13.1954 6.57827 12.8202L25.3194 5.36687ZM25.1893 7.7909L18.2833 25.156L15.3753 18.0149C15.3202 17.8798 15.2522 17.7504 15.1721 17.6284L25.1893 7.7909ZM24.4657 6.92061L14.3357 16.8685C14.2709 16.8344 14.2044 16.8036 14.1366 16.776L6.99492 13.8679L24.4657 6.92061Z" fill="white"/>
</svg>
