<svg width="49" height="49" viewBox="0 0 49 49" fill="none" xmlns="http://www.w3.org/2000/svg">
<circle cx="24.7007" cy="24.5688" r="23.5" stroke="white" stroke-opacity="0.19"/>
<g clip-path="url(#clip0_2051_10215)">
<path d="M29.2116 26.4888H15.1597L27.3281 18.6234C27.3635 18.6005 27.3941 18.5708 27.4182 18.5359C27.4423 18.501 27.4594 18.4616 27.4685 18.4199C27.4776 18.3783 27.4786 18.3352 27.4713 18.2932C27.4641 18.2512 27.4487 18.2111 27.4262 18.1751L26.2206 16.2475C25.9457 15.8089 25.5108 15.4991 25.0115 15.3861C24.5122 15.2731 23.9891 15.366 23.5571 15.6446L21.8448 16.7514L21.9805 16.0916C22.034 15.8531 22.0405 15.6061 21.9998 15.365C21.9592 15.1239 21.872 14.8933 21.7434 14.6865C21.6148 14.4797 21.4472 14.3008 21.2504 14.1601C21.0536 14.0193 20.8313 13.9195 20.5964 13.8663C20.3615 13.8132 20.1186 13.8077 19.8816 13.8503C19.6447 13.8928 19.4183 13.9826 19.2155 14.1144C19.0128 14.2461 18.8376 14.4174 18.7002 14.6182C18.5627 14.819 18.4656 15.0454 18.4145 15.2845L17.5249 19.3463L14.5464 18.6723C14.1022 18.5717 13.6371 18.6432 13.242 18.8729C12.847 19.1026 12.5505 19.474 12.4107 19.9142C12.2708 20.3545 12.2976 20.832 12.4859 21.2532C12.6742 21.6744 13.0103 22.009 13.4285 22.1915L11.5941 23.3772C11.1627 23.6568 10.858 24.0988 10.7469 24.6064C10.6357 25.1141 10.7271 25.6458 11.0011 26.0849L12.2067 28.0126C12.2292 28.0486 12.2584 28.0798 12.2928 28.1042C12.3271 28.1287 12.3659 28.1461 12.4068 28.1554C12.4478 28.1647 12.4901 28.1657 12.5314 28.1583C12.5727 28.1509 12.6122 28.1354 12.6476 28.1125L13.7698 27.3873V35.6073C13.7704 36.1274 13.9739 36.626 14.3356 36.9937C14.6973 37.3615 15.1878 37.5683 15.6993 37.5688H27.6017C28.1133 37.5683 28.6037 37.3614 28.9654 36.9937C29.3271 36.626 29.5306 36.1274 29.5312 35.6073V26.8135C29.5312 26.7709 29.5229 26.7286 29.5068 26.6892C29.4908 26.6498 29.4672 26.614 29.4376 26.5839C29.4079 26.5537 29.3727 26.5298 29.3339 26.5135C29.2951 26.4972 29.2536 26.4888 29.2116 26.4888ZM23.8999 16.1927C24.1059 16.0588 24.3453 15.9875 24.5899 15.9874C24.6851 15.9874 24.78 15.9981 24.8729 16.0191C25.0385 16.0562 25.1952 16.1262 25.334 16.2252C25.4728 16.3242 25.5909 16.4502 25.6815 16.5959L26.7157 18.2496L21.6851 21.5014L19.9584 18.7405L23.8999 16.1927ZM19.038 15.4257C19.107 15.1132 19.2953 14.8413 19.5615 14.6699C19.8276 14.4986 20.1498 14.4417 20.4572 14.5119C20.7646 14.582 21.032 14.7734 21.2006 15.044C21.3692 15.3146 21.4251 15.6422 21.3561 15.9547L21.0939 17.2299L18.2369 19.0835L19.038 15.4257ZM19.4192 19.089L21.1459 21.8498L18.2308 23.7341L16.5041 20.9732L19.4192 19.089ZM13.147 21.133C13.021 20.9314 12.9565 20.6964 12.9618 20.4576C12.9672 20.2188 13.042 19.987 13.177 19.7915C13.3119 19.5959 13.5008 19.4455 13.7199 19.3591C13.9389 19.2727 14.1782 19.2543 14.4076 19.3062L16.9886 19.8904L14.1234 21.7163L13.8912 21.6637C13.7388 21.6297 13.5946 21.5652 13.4668 21.4741C13.3391 21.383 13.2304 21.2671 13.147 21.133ZM12.5745 27.3902L11.5403 25.7365C11.357 25.4428 11.2959 25.0871 11.3702 24.7476C11.4446 24.408 11.6484 24.1123 11.9369 23.9253L15.965 21.3217L17.6917 24.0825L12.5745 27.3902ZM18.7685 36.9194H15.6993C15.3572 36.919 15.0291 36.7807 14.7872 36.5347C14.5452 36.2887 14.4091 35.9552 14.4087 35.6073V27.1382H18.7686L18.7685 36.9194ZM22.8284 36.9194H19.4073V27.1382H22.8284V36.9194ZM28.8922 35.6073C28.8918 35.9552 28.7558 36.2887 28.5138 36.5346C28.2719 36.7806 27.9439 36.919 27.6017 36.9194H23.4672V27.1382H28.8922V35.6073ZM32.7832 23.539L32.936 22.6333C32.946 22.5736 32.9395 22.5123 32.917 22.4562C32.8946 22.4001 32.8571 22.3515 32.8089 22.3158C32.7607 22.2802 32.7037 22.259 32.6443 22.2547C32.5849 22.2503 32.5254 22.2629 32.4727 22.291L31.6727 22.7186L30.8726 22.291C30.8199 22.2628 30.7604 22.2502 30.701 22.2546C30.6415 22.2589 30.5844 22.2801 30.5362 22.3157C30.488 22.3513 30.4506 22.4 30.4281 22.4561C30.4056 22.5122 30.3991 22.5736 30.4092 22.6333L30.5619 23.539L29.9147 24.1803C29.872 24.2226 29.8418 24.2762 29.8275 24.335C29.8132 24.3939 29.8154 24.4556 29.8338 24.5132C29.8523 24.5709 29.8862 24.6221 29.9317 24.6612C29.9773 24.7002 30.0327 24.7255 30.0917 24.7342L30.9861 24.8664L31.3861 25.6904C31.4124 25.7447 31.4532 25.7905 31.5039 25.8225C31.5545 25.8545 31.6129 25.8714 31.6725 25.8714C31.7321 25.8714 31.7906 25.8545 31.8412 25.8225C31.8918 25.7905 31.9326 25.7447 31.959 25.6904L32.3589 24.8664L33.2533 24.7342C33.3123 24.7255 33.3677 24.7002 33.4132 24.6612C33.4588 24.6221 33.4927 24.5709 33.5111 24.5132C33.5296 24.4556 33.5317 24.3939 33.5175 24.335C33.5032 24.2762 33.473 24.2226 33.4303 24.1803L32.7832 23.539ZM32.1009 24.248C32.0496 24.2555 32.001 24.2757 31.9591 24.3066C31.9172 24.3375 31.8833 24.3784 31.8604 24.4256L31.6725 24.8127L31.4846 24.4256C31.4617 24.3784 31.4278 24.3376 31.3859 24.3066C31.344 24.2757 31.2954 24.2555 31.2441 24.248L30.8239 24.1859L31.128 23.8846C31.1651 23.8479 31.1928 23.8025 31.2088 23.7524C31.2248 23.7024 31.2286 23.6491 31.2199 23.5972L31.1481 23.1717L31.5239 23.3725C31.5697 23.3971 31.6207 23.4099 31.6725 23.4099C31.7243 23.4099 31.7753 23.3971 31.8211 23.3725L32.1969 23.1717L32.1252 23.5972C32.1164 23.6491 32.1202 23.7024 32.1362 23.7524C32.1522 23.8025 32.1799 23.8479 32.217 23.8846L32.5211 24.1859L32.1009 24.248ZM36.4568 19.0649L35.5784 18.8479L35.2563 17.9894C35.2351 17.9328 35.1987 17.8833 35.1513 17.8466C35.1038 17.8099 35.0472 17.7875 34.9879 17.7818C34.9285 17.7761 34.8688 17.7874 34.8155 17.8144C34.7621 17.8414 34.7172 17.883 34.686 17.9346L34.2116 18.7168L33.3089 18.763C33.2494 18.766 33.1919 18.7859 33.1429 18.8205C33.0939 18.855 33.0555 18.9028 33.0318 18.9584C33.0081 19.014 33.0002 19.0752 33.009 19.1351C33.0178 19.1951 33.0429 19.2513 33.0815 19.2975L33.6666 19.9978L33.4309 20.8848C33.4154 20.9433 33.4162 21.0051 33.4334 21.0631C33.4506 21.1211 33.4834 21.1731 33.5281 21.2132C33.5728 21.2532 33.6276 21.2798 33.6864 21.2898C33.7452 21.2998 33.8055 21.2929 33.8607 21.2699L34.6965 20.9206L35.4538 21.4227C35.5037 21.4558 35.5618 21.474 35.6213 21.4753C35.6809 21.4767 35.7397 21.461 35.791 21.4302C35.8423 21.3993 35.884 21.3545 35.9116 21.3008C35.9391 21.2471 35.9513 21.1866 35.9468 21.1262L35.8784 20.2099L36.5818 19.6332C36.6282 19.5951 36.6632 19.5447 36.6828 19.4875C36.7025 19.4303 36.706 19.3687 36.693 19.3096C36.68 19.2504 36.651 19.1962 36.6092 19.153C36.5675 19.1097 36.5147 19.0792 36.4568 19.0649ZM35.3465 19.8118C35.3062 19.8448 35.2744 19.8873 35.2539 19.9356C35.2333 19.984 35.2247 20.0366 35.2286 20.0891L35.2605 20.5195L34.9049 20.2836C34.8615 20.2549 34.8119 20.2373 34.7603 20.2323C34.7088 20.2274 34.6568 20.2353 34.6089 20.2553L34.2163 20.4194L34.327 20.0026C34.3405 19.9518 34.3417 19.8984 34.3304 19.847C34.3191 19.7957 34.2956 19.7479 34.2621 19.7077L33.9873 19.3788L34.4113 19.3571C34.4631 19.3545 34.5134 19.3391 34.558 19.3123C34.6025 19.2855 34.64 19.2481 34.6672 19.2033L34.89 18.8359L35.0413 19.2392C35.0598 19.2884 35.0897 19.3322 35.1286 19.367C35.1674 19.4018 35.214 19.4265 35.2643 19.4389L35.6769 19.5409L35.3465 19.8118ZM31.7593 13.7863L31.5236 14.6733C31.508 14.7318 31.5089 14.7935 31.526 14.8516C31.5432 14.9096 31.576 14.9616 31.6207 15.0017C31.6654 15.0417 31.7203 15.0683 31.779 15.0783C31.8378 15.0883 31.8982 15.0814 31.9533 15.0584L32.7891 14.7091L33.5462 15.2112C33.5961 15.2443 33.6541 15.2626 33.7137 15.2639C33.7733 15.2652 33.832 15.2496 33.8833 15.2187C33.9346 15.1879 33.9764 15.143 34.0039 15.0893C34.0315 15.0356 34.0437 14.9751 34.0392 14.9147L33.9708 13.9984L34.6743 13.4216C34.7207 13.3836 34.7557 13.3331 34.7753 13.2759C34.795 13.2188 34.7985 13.1571 34.7855 13.098C34.7725 13.0389 34.7435 12.9847 34.7017 12.9414C34.66 12.8982 34.6072 12.8677 34.5493 12.8534L33.6709 12.6364L33.3489 11.7779C33.3276 11.7212 33.2912 11.6718 33.2438 11.6351C33.1963 11.5984 33.1398 11.576 33.0804 11.5703C33.0211 11.5646 32.9613 11.5759 32.908 11.6029C32.8546 11.6299 32.8098 11.6716 32.7785 11.7232L32.3042 12.5053L31.4015 12.5514C31.3419 12.5545 31.2844 12.5744 31.2354 12.6089C31.1865 12.6434 31.148 12.6912 31.1243 12.7468C31.1006 12.8024 31.0928 12.8636 31.1015 12.9236C31.1103 12.9835 31.1354 13.0397 31.174 13.0859L31.7593 13.7863ZM32.5041 13.1453C32.5559 13.1426 32.6062 13.1273 32.6508 13.1005C32.6953 13.0737 32.7328 13.0362 32.76 12.9914L32.9828 12.624L33.1341 13.0273C33.1526 13.0765 33.1825 13.1204 33.2214 13.1552C33.2602 13.19 33.3068 13.2147 33.3571 13.2271L33.7697 13.329L33.4392 13.5999C33.3989 13.633 33.3671 13.6755 33.3465 13.7238C33.326 13.7721 33.3173 13.8248 33.3212 13.8773L33.3531 14.3078L32.9975 14.0719C32.9541 14.0431 32.9045 14.0255 32.8529 14.0206C32.8014 14.0156 32.7494 14.0235 32.7015 14.0435L32.3089 14.2076L32.4196 13.7909C32.4331 13.7401 32.4343 13.6866 32.423 13.6353C32.4117 13.5839 32.3882 13.5361 32.3547 13.4959L32.0799 13.1669L32.5041 13.1453Z" fill="url(#paint0_linear_2051_10215)"/>
<path d="M25.9239 23.975C25.1828 24.4451 24.8207 25.0147 24.8057 25.0388C24.7591 25.1129 24.7435 25.2026 24.7626 25.2882C24.7816 25.3739 24.8336 25.4484 24.9071 25.4954C24.9806 25.5424 25.0697 25.558 25.1546 25.5389C25.2396 25.5197 25.3135 25.4673 25.3601 25.3932C25.4094 25.316 26.5971 23.5064 29.1822 24.1509C29.2664 24.1711 29.3551 24.157 29.429 24.1116C29.5029 24.0662 29.556 23.9932 29.5768 23.9085C29.5976 23.8239 29.5844 23.7344 29.54 23.6595C29.4957 23.5846 29.4238 23.5304 29.34 23.5086C27.7494 23.112 26.6044 23.5433 25.9239 23.975ZM32.153 20.471C32.2334 20.5047 32.3238 20.5047 32.4042 20.4712C32.4847 20.4377 32.5487 20.3733 32.582 20.2922C32.6154 20.2112 32.6155 20.1201 32.5822 20.039C32.5489 19.9579 32.4851 19.8934 32.4047 19.8598C30.0677 18.8823 28.3692 19.6143 27.3559 20.4007C26.6837 20.9276 26.1272 21.5894 25.7218 22.3443C25.6831 22.4229 25.6769 22.5137 25.7047 22.5969C25.7325 22.6801 25.7919 22.7487 25.8698 22.7878C25.9478 22.8268 26.038 22.833 26.1205 22.805C26.203 22.777 26.2711 22.7172 26.3099 22.6386C26.6716 21.9743 27.1638 21.3912 27.7564 20.925C29.0305 19.9365 30.5097 19.7837 32.153 20.471ZM28.4643 18.0199C28.4375 18.1034 28.4447 18.1942 28.4843 18.2723C28.5239 18.3505 28.5927 18.4095 28.6756 18.4365C29.1275 18.5708 29.5962 18.639 30.0673 18.6392C30.6163 18.6392 31.2503 18.5394 31.8189 18.1997C32.5629 17.7553 33.04 16.9983 33.2377 15.9498C33.246 15.9071 33.2457 15.8631 33.237 15.8204C33.2284 15.7778 33.2114 15.7373 33.1872 15.7012C33.1629 15.6652 33.1319 15.6343 33.0957 15.6104C33.0596 15.5865 33.0192 15.57 32.9767 15.5618C32.9343 15.5537 32.8907 15.5541 32.8484 15.563C32.8061 15.5719 32.7659 15.5891 32.7303 15.6137C32.6946 15.6383 32.6641 15.6697 32.6405 15.7062C32.6169 15.7427 32.6007 15.7835 32.5928 15.8263C32.432 16.6789 32.06 17.2854 31.487 17.629C30.3971 18.2826 28.901 17.8146 28.8773 17.807C28.7945 17.7801 28.7045 17.7874 28.6271 17.8273C28.5496 17.8673 28.4911 17.9365 28.4643 18.0199ZM24.1251 26.5688C24.242 26.5689 24.3563 26.5339 24.4536 26.4685C24.5508 26.403 24.6266 26.3099 24.6713 26.201C24.7161 26.0922 24.7278 25.9723 24.705 25.8567C24.6822 25.7412 24.6259 25.635 24.5432 25.5516C24.4605 25.4683 24.3552 25.4115 24.2405 25.3885C24.1258 25.3655 24.0069 25.3773 23.8989 25.4224C23.7909 25.4675 23.6985 25.5439 23.6336 25.6419C23.5686 25.7399 23.5339 25.8551 23.5339 25.973C23.5341 26.1309 23.5965 26.2824 23.7073 26.3941C23.8181 26.5058 23.9684 26.5686 24.1251 26.5688ZM24.1251 25.9071C24.138 25.9071 24.1507 25.911 24.1614 25.9182C24.1722 25.9254 24.1806 25.9357 24.1855 25.9478C24.1905 25.9598 24.1918 25.9731 24.1893 25.9859C24.1867 25.9986 24.1805 26.0104 24.1714 26.0196C24.1622 26.0288 24.1506 26.0351 24.1379 26.0377C24.1252 26.0402 24.112 26.0389 24.1001 26.0339C24.0881 26.0289 24.0779 26.0204 24.0708 26.0096C24.0636 25.9987 24.0597 25.986 24.0598 25.973C24.0598 25.9555 24.0668 25.9388 24.079 25.9265C24.0912 25.9142 24.1078 25.9072 24.1251 25.9071ZM28.7766 15.7606C28.8935 15.7606 29.0078 15.7257 29.1051 15.6602C29.2023 15.5947 29.2781 15.5017 29.3228 15.3928C29.3676 15.2839 29.3793 15.1641 29.3565 15.0485C29.3336 14.9329 29.2773 14.8267 29.1947 14.7434C29.112 14.66 29.0066 14.6033 28.892 14.5803C28.7773 14.5573 28.6584 14.5691 28.5504 14.6142C28.4423 14.6593 28.35 14.7357 28.285 14.8337C28.2201 14.9317 28.1854 15.0469 28.1854 15.1647C28.1856 15.3227 28.2479 15.4742 28.3588 15.5859C28.4696 15.6976 28.6199 15.7604 28.7766 15.7606ZM28.7766 15.0989C28.7895 15.0989 28.8022 15.1028 28.8129 15.11C28.8237 15.1172 28.8321 15.1275 28.837 15.1396C28.842 15.1516 28.8433 15.1649 28.8407 15.1777C28.8382 15.1904 28.832 15.2022 28.8228 15.2114C28.8137 15.2206 28.802 15.2269 28.7893 15.2294C28.7766 15.232 28.7635 15.2307 28.7516 15.2257C28.7396 15.2207 28.7294 15.2122 28.7222 15.2014C28.715 15.1905 28.7112 15.1778 28.7112 15.1647C28.7113 15.1473 28.7182 15.1306 28.7305 15.1183C28.7427 15.1059 28.7593 15.099 28.7766 15.0989ZM37.1095 15.3062C36.9925 15.3062 36.8782 15.3412 36.781 15.4067C36.6838 15.4721 36.608 15.5652 36.5633 15.6741C36.5185 15.783 36.5068 15.9028 36.5296 16.0184C36.5525 16.134 36.6088 16.2402 36.6914 16.3235C36.7741 16.4068 36.8795 16.4636 36.9942 16.4866C37.1089 16.5095 37.2277 16.4977 37.3358 16.4526C37.4438 16.4075 37.5361 16.3311 37.6011 16.2331C37.666 16.1351 37.7007 16.0199 37.7007 15.9021C37.7005 15.7441 37.6382 15.5926 37.5273 15.4809C37.4165 15.3692 37.2662 15.3064 37.1095 15.3062ZM37.1095 15.968C37.0965 15.968 37.0839 15.9641 37.0732 15.9569C37.0624 15.9496 37.054 15.9393 37.0491 15.9273C37.0441 15.9152 37.0428 15.902 37.0454 15.8892C37.0479 15.8764 37.0541 15.8647 37.0632 15.8555C37.0724 15.8463 37.084 15.84 37.0967 15.8374C37.1094 15.8349 37.1226 15.8362 37.1345 15.8412C37.1464 15.8462 37.1567 15.8546 37.1638 15.8655C37.171 15.8763 37.1749 15.889 37.1749 15.9021C37.1748 15.9195 37.1679 15.9362 37.1556 15.9486C37.1434 15.9609 37.1268 15.9679 37.1095 15.968ZM23.8831 23.2136C23.8831 23.0957 23.8484 22.9805 23.7834 22.8825C23.7185 22.7845 23.6261 22.7081 23.5181 22.663C23.41 22.6179 23.2911 22.6061 23.1764 22.6291C23.0617 22.6522 22.9564 22.7089 22.8737 22.7923C22.7911 22.8757 22.7348 22.9819 22.712 23.0975C22.6892 23.2131 22.701 23.3329 22.7458 23.4418C22.7906 23.5507 22.8664 23.6437 22.9637 23.7092C23.0609 23.7746 23.1753 23.8095 23.2922 23.8094C23.4489 23.8092 23.5991 23.7463 23.7099 23.6346C23.8206 23.5229 23.8829 23.3715 23.8831 23.2136ZM23.2922 23.2797C23.2793 23.2797 23.2667 23.2759 23.2559 23.2687C23.2452 23.2614 23.2368 23.2512 23.2318 23.2392C23.2268 23.2271 23.2255 23.2139 23.228 23.2011C23.2305 23.1883 23.2367 23.1766 23.2458 23.1674C23.2549 23.1581 23.2666 23.1518 23.2792 23.1492C23.2919 23.1467 23.305 23.1479 23.317 23.1529C23.3289 23.1578 23.3392 23.1662 23.3464 23.177C23.3536 23.1878 23.3575 23.2005 23.3575 23.2136C23.3575 23.231 23.3505 23.2478 23.3382 23.2601C23.3259 23.2725 23.3093 23.2794 23.2919 23.2795L23.2922 23.2797ZM36.1359 23.5877C36.019 23.5877 35.9047 23.6227 35.8075 23.6881C35.7103 23.7536 35.6345 23.8467 35.5897 23.9556C35.545 24.0644 35.5333 24.1843 35.5561 24.2998C35.5789 24.4154 35.6352 24.5216 35.7179 24.6049C35.8006 24.6883 35.9059 24.745 36.0206 24.768C36.1353 24.791 36.2542 24.7792 36.3622 24.7341C36.4702 24.689 36.5626 24.6126 36.6275 24.5147C36.6925 24.4167 36.7272 24.3014 36.7272 24.1836C36.727 24.0256 36.6646 23.8741 36.5538 23.7624C36.443 23.6507 36.2927 23.5879 36.1359 23.5877ZM36.1359 24.2494C36.123 24.2494 36.1104 24.2456 36.0997 24.2383C36.0889 24.2311 36.0806 24.2208 36.0756 24.2088C36.0707 24.1967 36.0694 24.1835 36.0719 24.1707C36.0745 24.1579 36.0807 24.1462 36.0898 24.137C36.099 24.1278 36.1106 24.1215 36.1233 24.119C36.136 24.1165 36.1491 24.1178 36.161 24.1228C36.1729 24.1278 36.1831 24.1362 36.1903 24.147C36.1975 24.1578 36.2013 24.1706 36.2013 24.1836C36.2012 24.201 36.1943 24.2177 36.1821 24.2301C36.1698 24.2424 36.1533 24.2494 36.1359 24.2494Z" fill="url(#paint1_linear_2051_10215)"/>
</g>
<defs>
<linearGradient id="paint0_linear_2051_10215" x1="10.7007" y1="12.6077" x2="37.3194" y2="37.3183" gradientUnits="userSpaceOnUse">
<stop offset="0.156958" stop-color="#7DE3FA"/>
<stop offset="0.741638" stop-color="#333BFF"/>
</linearGradient>
<linearGradient id="paint1_linear_2051_10215" x1="22.7007" y1="15.0483" x2="34.8852" y2="29.1872" gradientUnits="userSpaceOnUse">
<stop offset="0.156958" stop-color="#7DE3FA"/>
<stop offset="0.741638" stop-color="#333BFF"/>
</linearGradient>
<clipPath id="clip0_2051_10215">
<rect width="28" height="28" fill="white" transform="translate(10.7007 10.5688)"/>
</clipPath>
</defs>
</svg>
