<svg width="48" height="49" viewBox="0 0 48 49" fill="none" xmlns="http://www.w3.org/2000/svg">
<circle cx="24" cy="24.5688" r="23.5" stroke="white" stroke-opacity="0.19"/>
<path d="M35.25 15.5688H17.75C17.2859 15.5688 16.8408 15.7506 16.5126 16.074C16.1844 16.3974 16 16.8361 16 17.2935V18.072H13.75C13.2859 18.072 12.8408 18.2537 12.5126 18.5772C12.1844 18.9006 12 19.3393 12 19.7967V30.1051C12 30.4286 12.0647 30.749 12.1903 31.0479C12.3159 31.3468 12.5001 31.6184 12.7322 31.8472C12.9644 32.076 13.24 32.2575 13.5433 32.3813C13.8466 32.5051 14.1717 32.5688 14.5 32.5688H35.25C35.7141 32.5688 36.1592 32.3871 36.4874 32.0637C36.8156 31.7403 37 31.3016 37 30.8442V17.2935C37 16.8361 36.8156 16.3974 36.4874 16.074C36.1592 15.7506 35.7141 15.5688 35.25 15.5688ZM16 30.0386C16.009 30.4305 15.8631 30.8106 15.5929 31.0984C15.3228 31.3862 14.9497 31.5592 14.5525 31.5809C14.3511 31.5878 14.1504 31.5547 13.9623 31.4836C13.7742 31.4124 13.6026 31.3046 13.4577 31.1666C13.3128 31.0287 13.1976 30.8633 13.119 30.6805C13.0403 30.4977 12.9999 30.3012 13 30.1026V19.7967C13 19.6006 13.079 19.4126 13.2197 19.274C13.3603 19.1354 13.5511 19.0575 13.75 19.0575H16V30.0386ZM18.615 20.3732C18.615 20.2425 18.6677 20.1172 18.7614 20.0248C18.8552 19.9324 18.9824 19.8804 19.115 19.8804H23.115C23.2476 19.8804 23.3748 19.9324 23.4686 20.0248C23.5623 20.1172 23.615 20.2425 23.615 20.3732V24.3152C23.615 24.4459 23.5623 24.5712 23.4686 24.6637C23.3748 24.7561 23.2476 24.808 23.115 24.808H19.115C18.9824 24.808 18.8552 24.7561 18.7614 24.6637C18.6677 24.5712 18.615 24.4459 18.615 24.3152V20.3732ZM33.885 28.2573H19.115C18.9824 28.2573 18.8552 28.2053 18.7614 28.1129C18.6677 28.0205 18.615 27.8952 18.615 27.7645C18.615 27.6338 18.6677 27.5085 18.7614 27.4161C18.8552 27.3237 18.9824 27.2717 19.115 27.2717H33.885C34.0176 27.2717 34.1448 27.3237 34.2386 27.4161C34.3323 27.5085 34.385 27.6338 34.385 27.7645C34.385 27.8952 34.3323 28.0205 34.2386 28.1129C34.1448 28.2053 34.0176 28.2573 33.885 28.2573ZM33.885 24.5616H25.8225C25.6899 24.5616 25.5627 24.5097 25.4689 24.4173C25.3752 24.3249 25.3225 24.1995 25.3225 24.0688C25.3225 23.9382 25.3752 23.8128 25.4689 23.7204C25.5627 23.628 25.6899 23.5761 25.8225 23.5761H33.885C34.0176 23.5761 34.1448 23.628 34.2386 23.7204C34.3323 23.8128 34.385 23.9382 34.385 24.0688C34.385 24.1995 34.3323 24.3249 34.2386 24.4173C34.1448 24.5097 34.0176 24.5616 33.885 24.5616ZM33.885 20.8659H25.8225C25.6899 20.8659 25.5627 20.814 25.4689 20.7216C25.3752 20.6292 25.3225 20.5039 25.3225 20.3732C25.3225 20.2425 25.3752 20.1172 25.4689 20.0248C25.5627 19.9324 25.6899 19.8804 25.8225 19.8804H33.885C34.0176 19.8804 34.1448 19.9324 34.2386 20.0248C34.3323 20.1172 34.385 20.2425 34.385 20.3732C34.385 20.5039 34.3323 20.6292 34.2386 20.7216C34.1448 20.814 34.0176 20.8659 33.885 20.8659Z" fill="url(#paint0_linear_2051_10198)"/>
<path d="M20 20.5688H23V23.5688H20V20.5688Z" fill="url(#paint1_linear_2051_10198)"/>
<defs>
<linearGradient id="paint0_linear_2051_10198" x1="12" y1="16.2481" x2="28.64" y2="38.9646" gradientUnits="userSpaceOnUse">
<stop offset="0.156958" stop-color="#7DE3FA"/>
<stop offset="0.741638" stop-color="#333BFF"/>
</linearGradient>
<linearGradient id="paint1_linear_2051_10198" x1="20" y1="20.6887" x2="23.0714" y2="23.5399" gradientUnits="userSpaceOnUse">
<stop offset="0.156958" stop-color="#7DE3FA"/>
<stop offset="0.741638" stop-color="#333BFF"/>
</linearGradient>
</defs>
</svg>
