<svg width="49" height="49" viewBox="0 0 49 49" fill="none" xmlns="http://www.w3.org/2000/svg">
<circle cx="24.4482" cy="24.5688" r="23.5" stroke="white" stroke-opacity="0.19"/>
<g clip-path="url(#clip0_2051_10207)">
<path d="M36.4201 14.3605C36.3681 13.4072 35.6099 12.649 34.6566 12.597C32.7329 12.4919 28.9687 12.5942 25.3693 14.4559C23.5343 15.405 21.5937 17.0142 20.045 18.8708C20.0259 18.8937 20.0074 18.9167 19.9884 18.9396L16.4737 19.2111C15.8952 19.2558 15.3799 19.5591 15.0599 20.043L12.6621 23.6698C12.4194 24.0369 12.3808 24.4962 12.5588 24.8985C12.7369 25.3009 13.1027 25.5813 13.5374 25.6487L16.4986 26.1073C16.4881 26.1648 16.4776 26.2224 16.468 26.2799C16.3694 26.8696 16.5648 27.4759 16.9907 27.9017L21.1153 32.0264C21.4685 32.3795 21.9456 32.5742 22.4345 32.5742C22.5359 32.5742 22.6372 32.5658 22.7372 32.5491C22.7948 32.5395 22.8523 32.529 22.9099 32.5185L23.3685 35.4797C23.4358 35.9145 23.7163 36.2803 24.1185 36.4583C24.2825 36.5311 24.46 36.5688 24.6394 36.5689C24.8912 36.5687 25.1374 36.4944 25.3473 36.3551L28.9741 33.9572C29.4581 33.6372 29.7613 33.1219 29.8059 32.5434L30.0774 29.0288C30.1003 29.0098 30.1234 28.9913 30.1462 28.9722C32.0029 27.4235 33.6121 25.4829 34.5612 23.6479C36.423 20.0483 36.5251 16.284 36.4201 14.3605ZM28.1985 32.7841L24.7293 35.0778L24.2823 32.192C25.7485 31.7609 27.199 31.0704 28.5808 30.1454L28.4039 32.435C28.3988 32.5051 28.3775 32.573 28.3419 32.6335C28.3063 32.694 28.2572 32.7456 28.1985 32.7841ZM22.1097 31.0321L17.985 26.9074C17.8798 26.8021 17.8311 26.6542 17.855 26.5118C17.9776 25.7785 18.1682 25.0805 18.4041 24.4229L24.5929 30.6117C23.8031 30.8946 23.0957 31.0634 22.5053 31.1621C22.3626 31.1858 22.2149 31.1373 22.1097 31.0321ZM16.5821 20.6132L18.8716 20.4363C17.9466 21.8182 17.2561 23.2686 16.825 24.7349L13.9392 24.2879L16.233 20.8186C16.2715 20.7599 16.3231 20.7108 16.3836 20.6752C16.4441 20.6396 16.512 20.6184 16.5821 20.6132ZM29.2456 27.8922C28.1097 28.8397 27.007 29.525 25.9907 30.0209L18.9959 23.0262C19.6455 21.6994 20.4383 20.5946 21.1249 19.7716C22.5581 18.0534 24.3406 16.5712 26.0154 15.7049C29.3188 13.9962 32.7994 13.9042 34.58 14.0011C34.6937 14.0072 34.8011 14.0551 34.8816 14.1356C34.9621 14.216 35.01 14.3235 35.016 14.4371C35.1131 16.2178 35.0209 19.6983 33.3122 23.0018C32.446 24.6766 30.9637 26.459 29.2456 27.8922Z" fill="url(#paint0_linear_2051_10207)"/>
<path d="M28.9249 23.6128C29.827 23.6127 30.7295 23.2693 31.4163 22.5824C32.0818 21.9169 32.4482 21.032 32.4482 20.0908C32.4482 19.1497 32.0818 18.2648 31.4163 17.5993C30.0425 16.2253 27.8072 16.2254 26.4336 17.5993C25.768 18.2648 25.4016 19.1497 25.4016 20.0908C25.4016 21.032 25.7681 21.9169 26.4336 22.5824C27.1205 23.2694 28.0225 23.6129 28.9249 23.6128ZM27.43 18.5959C27.8421 18.1837 28.3835 17.9776 28.9248 17.9776C29.4662 17.9776 30.0076 18.1837 30.4197 18.5959C30.8189 18.9952 31.0388 19.5261 31.0388 20.0908C31.0388 20.6555 30.8189 21.1865 30.4197 21.5858C29.5955 22.4101 28.2542 22.41 27.43 21.5858C27.0307 21.1865 26.8108 20.6555 26.8108 20.0908C26.8108 19.5262 27.0308 18.9952 27.43 18.5959ZM13.1671 32.3374C13.3474 32.3374 13.5278 32.2686 13.6653 32.131L15.966 29.8301C16.2413 29.5548 16.2413 29.1086 15.966 28.8334C15.6909 28.5582 15.2447 28.5582 14.9695 28.8334L12.6688 31.1343C12.3936 31.4095 12.3936 31.8557 12.6688 32.131C12.7341 32.1965 12.8118 32.2485 12.8973 32.2839C12.9828 32.3194 13.0745 32.3375 13.1671 32.3374ZM18.0745 30.9421C17.7994 30.6668 17.3532 30.6668 17.078 30.9421L12.6546 35.3658C12.3794 35.641 12.3794 36.0872 12.6546 36.3624C12.7922 36.5001 12.9726 36.5688 13.1529 36.5688C13.3333 36.5688 13.5136 36.5001 13.6512 36.3624L18.0745 31.9387C18.3497 31.6635 18.3497 31.2173 18.0745 30.9421ZM19.1864 33.0507L16.8857 35.3516C16.6105 35.6269 16.6105 36.0731 16.8857 36.3483C17.0233 36.4859 17.2037 36.5548 17.384 36.5548C17.5643 36.5548 17.7447 36.486 17.8822 36.3483L20.183 34.0474C20.4582 33.7722 20.4582 33.326 20.183 33.0507C19.9078 32.7755 19.4616 32.7755 19.1864 33.0507Z" fill="url(#paint1_linear_2051_10207)"/>
</g>
<defs>
<linearGradient id="paint0_linear_2051_10207" x1="12.4482" y1="13.5278" x2="37.0194" y2="36.3376" gradientUnits="userSpaceOnUse">
<stop offset="0.156958" stop-color="#7DE3FA"/>
<stop offset="0.741638" stop-color="#333BFF"/>
</linearGradient>
<linearGradient id="paint1_linear_2051_10207" x1="12.4482" y1="17.368" x2="32.9242" y2="36.3761" gradientUnits="userSpaceOnUse">
<stop offset="0.156958" stop-color="#7DE3FA"/>
<stop offset="0.741638" stop-color="#333BFF"/>
</linearGradient>
<clipPath id="clip0_2051_10207">
<rect width="24" height="24" fill="white" transform="translate(12.4482 12.5688)"/>
</clipPath>
</defs>
</svg>
