<svg width="37" height="36" viewBox="0 0 37 36" fill="none" xmlns="http://www.w3.org/2000/svg">
<path d="M21.0693 33.2532L21.0693 27.2459C21.0693 26.4312 21.7481 25.7711 22.5854 25.7711C25.5729 25.7711 27.198 22.7897 27.4233 16.9055L22.5854 16.9055C21.7481 16.9055 21.0693 16.2448 21.0693 15.4304L21.0693 2.74634C21.0693 1.93204 21.7481 1.2718 22.5854 1.2718L35.4842 1.2718C36.3219 1.2718 37 1.93255 37 2.74634L37 15.4304C37 18.2511 36.7081 20.8397 36.1327 23.1249C35.5425 25.4681 34.6366 27.5168 33.4408 29.2145C32.2105 30.9591 30.6714 32.3281 28.8662 33.2819C27.0487 34.2414 24.9352 34.728 22.5849 34.728C21.7481 34.728 21.0693 34.0679 21.0693 33.2532ZM1.51624 25.771C0.679311 25.771 -3.08941e-06 26.4317 -3.16058e-06 27.2458L-3.68575e-06 33.2531C-3.75698e-06 34.0678 0.679203 34.7279 1.51624 34.7279C3.86558 34.7279 5.97941 34.2412 7.79625 33.2817C9.60184 32.328 11.1417 30.959 12.3723 29.2143C13.5676 27.5167 14.4735 25.4679 15.0638 23.1242C15.6389 20.8382 15.9308 18.2497 15.9308 15.4303L15.9308 2.74624C15.9308 1.93193 15.2518 1.2717 14.4147 1.2717L1.51635 1.2717C0.67942 1.2717 0.000742918 1.93245 0.000742847 2.74624L0.000741738 15.4304C0.000741667 16.2447 0.679311 16.9055 1.51634 16.9055L6.2852 16.9055C6.06336 22.7896 4.46201 25.771 1.51624 25.771Z" fill="url(#paint0_linear_2051_10043)"/>
<defs>
<linearGradient id="paint0_linear_2051_10043" x1="37" y1="33.3912" x2="2.66462" y2="-1.85901" gradientUnits="userSpaceOnUse">
<stop offset="0.156958" stop-color="#7DE3FA"/>
<stop offset="0.741638" stop-color="#333BFF"/>
</linearGradient>
</defs>
</svg>
