<svg width="37" height="36" viewBox="0 0 37 36" fill="none" xmlns="http://www.w3.org/2000/svg">
<g clip-path="url(#clip0_2051_10046)">
<path d="M15.9307 2.74682L15.9307 8.75407C15.9307 9.56879 15.2519 10.2289 14.4146 10.2289C11.4271 10.2289 9.80196 13.2103 9.57673 19.0945H14.4146C15.2519 19.0945 15.9307 19.7552 15.9307 20.5696L15.9307 33.2537C15.9307 34.068 15.2519 34.7282 14.4146 34.7282H1.51581C0.678146 34.7282 0 34.0674 0 33.2537L0 20.5696C0 17.7489 0.291906 15.1603 0.867345 12.8751C1.45752 10.5319 2.36344 8.48315 3.55916 6.78555C4.78953 5.04092 6.32855 3.67188 8.13384 2.71815C9.95131 1.75864 12.0648 1.27197 14.4151 1.27197C15.2519 1.27197 15.9307 1.9321 15.9307 2.74682ZM35.4838 10.229C36.3207 10.229 37 9.56827 37 8.75417V2.74692C37 1.9322 36.3208 1.27208 35.4838 1.27208C33.1344 1.27208 31.0206 1.75884 29.2038 2.71825C27.3982 3.67199 25.8583 5.04102 24.6277 6.78565C23.4324 8.48325 22.5265 10.5321 21.9362 12.8758C21.3611 15.1618 21.0692 17.7503 21.0692 20.5697V33.2538C21.0692 34.0681 21.7482 34.7283 22.5853 34.7283L35.4837 34.7283C36.3206 34.7283 36.9993 34.0676 36.9993 33.2538L36.9993 20.5696C36.9993 19.7553 36.3207 19.0945 35.4837 19.0945H30.7148C30.9366 13.2104 32.538 10.229 35.4838 10.229Z" fill="url(#paint0_linear_2051_10046)"/>
</g>
<defs>
<linearGradient id="paint0_linear_2051_10046" x1="-1.32052e-07" y1="2.6088" x2="34.3354" y2="37.859" gradientUnits="userSpaceOnUse">
<stop offset="0.156958" stop-color="#7DE3FA"/>
<stop offset="0.741638" stop-color="#333BFF"/>
</linearGradient>
<clipPath id="clip0_2051_10046">
<rect width="37" height="36" fill="white"/>
</clipPath>
</defs>
</svg>
