<svg width="152" height="24" viewBox="0 0 152 24" fill="none" xmlns="http://www.w3.org/2000/svg">
<path d="M21.6376 10.0688H14.2501L11.9626 2.94385L9.6751 10.0688H2.2876L8.2876 14.4188L6.0001 21.5063L12.0001 17.1188L18.0001 21.5063L15.6376 14.4188L21.6376 10.0688Z" fill="#333BFF"/>
<path d="M24 9.28135H14.85L12 0.506348L9.15 9.28135H0L7.3875 14.6813L4.5375 23.4563L12 18.0563L19.425 23.4938L16.575 14.7188L24 9.28135ZM12 17.1188L6 21.5063L8.2875 14.4188L2.2875 10.0688H9.675L11.9625 2.94385L14.25 10.0688H21.6375L15.6375 14.4188L18 21.5063L12 17.1188Z" fill="white"/>
<path d="M53.6376 10.0688H46.2501L43.9626 2.94385L41.6751 10.0688H34.2876L40.2876 14.4188L38.0001 21.5063L44.0001 17.1188L50.0001 21.5063L47.6376 14.4188L53.6376 10.0688Z" fill="#333BFF"/>
<path d="M56 9.28135H46.85L44 0.506348L41.15 9.28135H32L39.3875 14.6813L36.5375 23.4563L44 18.0563L51.425 23.4938L48.575 14.7188L56 9.28135ZM44 17.1188L38 21.5063L40.2875 14.4188L34.2875 10.0688H41.675L43.9625 2.94385L46.25 10.0688H53.6375L47.6375 14.4188L50 21.5063L44 17.1188Z" fill="white"/>
<path d="M85.6376 10.0688H78.2501L75.9626 2.94385L73.6751 10.0688H66.2876L72.2876 14.4188L70.0001 21.5063L76.0001 17.1188L82.0001 21.5063L79.6376 14.4188L85.6376 10.0688Z" fill="#333BFF"/>
<path d="M88 9.28135H78.85L76 0.506348L73.15 9.28135H64L71.3875 14.6813L68.5375 23.4563L76 18.0563L83.425 23.4938L80.575 14.7188L88 9.28135ZM76 17.1188L70 21.5063L72.2875 14.4188L66.2875 10.0688H73.675L75.9625 2.94385L78.25 10.0688H85.6375L79.6375 14.4188L82 21.5063L76 17.1188Z" fill="white"/>
<path d="M117.638 10.0688H110.25L107.963 2.94385L105.675 10.0688H98.2876L104.288 14.4188L102 21.5063L108 17.1188L114 21.5063L111.638 14.4188L117.638 10.0688Z" fill="#333BFF"/>
<path d="M120 9.28135H110.85L108 0.506348L105.15 9.28135H96L103.388 14.6813L100.538 23.4563L108 18.0563L115.425 23.4938L112.575 14.7188L120 9.28135ZM108 17.1188L102 21.5063L104.288 14.4188L98.2875 10.0688H105.675L107.962 2.94385L110.25 10.0688H117.638L111.638 14.4188L114 21.5063L108 17.1188Z" fill="white"/>
<path d="M149.638 10.0688H142.25L139.963 2.94385L137.675 10.0688H130.288L136.288 14.4188L134 21.5063L140 17.1188L146 21.5063L143.638 14.4188L149.638 10.0688Z" fill="#333BFF"/>
<path d="M152 9.28135H142.85L140 0.506348L137.15 9.28135H128L135.388 14.6813L132.538 23.4563L140 18.0563L147.425 23.4938L144.575 14.7188L152 9.28135ZM140 17.1188L134 21.5063L136.288 14.4188L130.287 10.0688H137.675L139.962 2.94385L142.25 10.0688H149.638L143.638 14.4188L146 21.5063L140 17.1188Z" fill="white"/>
</svg>
